{
.appVersion = "3227";
.formatVersion = 3;
DisplayStrings = (
h,
H,
U,
x
);
axes = (
{
name = Weight;
tag = wght;
}
);
customParameters = (
{
name = openTypeOS2Panose;
value = (
2,
9,
9,
7,
7,
7,
5,
6,
7,
4
);
},
{
name = fsType;
value = (
);
},
{
name = blueFuzz;
value = 1;
},
{
name = blueScale;
value = 0.03963;
},
{
name = blueShift;
value = 7;
},
{
name = strikeoutPosition;
value = 573;
},
{
name = strikeoutSize;
value = 57;
},
{
name = "Use Typo Metrics";
value = 1;
},
{
name = "Use Line Breaks";
value = 1;
},
{
name = "Enforce Compatibility Check";
value = 1;
},
{
name = "Use Extension Kerning";
value = 1;
}
);
date = "2023-11-30 05:17:03 +0000";
familyName = Asset;
featurePrefixes = (
{
automatic = 1;
code = "languagesystem DFLT dflt;

languagesystem latn dflt;
languagesystem latn AZE;
languagesystem latn CRT;
languagesystem latn KAZ;
languagesystem latn TAT;
languagesystem latn TRK;
languagesystem latn ROM;
languagesystem latn MOL;
languagesystem latn NSM;
languagesystem latn CAT;
languagesystem latn NLD;
";
name = Languagesystems;
}
);
features = (
{
automatic = 1;
code = "feature locl;
feature sups;
feature frac;
feature ordn;
feature case;
";
tag = aalt;
},
{
automatic = 1;
code = "lookup ccmp_Other_1 {
	@CombiningTopAccents = [acutecomb brevecomb caroncomb circumflexcomb commaturnedabovecomb dieresiscomb dotaccentcomb gravecomb hungarumlautcomb macroncomb ringcomb tildecomb];
	lookupflag UseMarkFilteringSet @CombiningTopAccents;
	sub i' @CombiningTopAccents by idotless;
	sub j' @CombiningTopAccents by jdotless;
} ccmp_Other_1;

lookup ccmp_latn_1 {
	lookupflag 0;
	sub ldot by l periodcentered.loclCAT;
} ccmp_latn_1;

script latn;
lookup ccmp_latn_1;
";
tag = ccmp;
},
{
automatic = 1;
code = "script latn;
language AZE;
lookup locl_latn_0 {
	sub i by idotaccent;
} locl_latn_0;
language CRT;
lookup locl_latn_0;
language KAZ;
lookup locl_latn_0;
language TAT;
lookup locl_latn_0;
language TRK;
lookup locl_latn_0;

script latn;
language ROM;

glyphs = (
{
glyphname = A;
kernLeft = KO_A;
kernRight = KO_A;
lastChange = "2023-11-30 04:50:27 +0000";
layers = (
{
anchors = (
{
name = bottom;
pos = (1593,0);
},
{
name = ogonek;
pos = (2867,10);
},
{
name = top;
pos = (1593,1291);
}
);
layerId = m01;
shapes = (
{
closed = 1;
nodes = (
(909,0,l),
(909,94,l),
(787,94,o),
(666,166,o),
(666,300,cs),
(666,313,o),
(668,327,o),
(675,346,c),
(1472,346,l),
(1479,323,o),
(1482,305,o),
(1482,291,cs),
(1482,160,o),
(1362,94,o),
(1240,94,c),
(1240,0,l),
(3161,0,l),
(3161,94,l),
(3109,94,o),
(3029,118,o),
(2942,171,cs),
(2854,224,o),
(2761,308,o),
(2685,428,cs),
(2140,1291,l),
(1131,1291,l),
(509,406,ls),
(429,293,o),
(339,216,o),
(259,166,cs),
(179,116,o),
(109,94,o),
(70,94,c),
(70,0,l)
);
},
{
closed = 1;
nodes = (
(779,537,o),
(822,604,o),
(880,693,cs),
(938,783,o),
(1013,895,o),
(1104,1032,c),
(1184,896,o),
(1246,786,o),
(1297,697,cs),
(1348,608,o),
(1384,538,o),
(1412,485,c),
(748,485,l)
);
}
);
width = 3186;
}
);
note = A;
unicode = 65;
userData = {
KernOnName = A;
};
},
{
glyphname = AE;
kernLeft = KO_AE;
kernRight = KO_AE;
lastChange = "2023-11-30 04:50:27 +0000";
layers = (
{
anchors = (
{
name = bottom;
pos = (1824,0);
},
{
name = top;
pos = (1824,1291);
}
);
layerId = m01;
shapes = (
{
closed = 1;
nodes = (
(781,0,l),
(781,94,l),
(683,94,o),
(557,138,o),
(557,278,cs),
(557,298,o),
(559,321,o),
(566,346,c),
(1243,346,l),
(1243,271,l),
(1230,150,o),
(1114,94,o),
(1002,94,c),
(1002,0,l),
(3416,0,l),
(3450,168,o),
(3467,382,o),
(3467,542,c),
(3362,542,l),
(3272,437,o),
(3103,328,o),
(2884,243,cs),
(2677,162,o),
(2430,109,o),
(2208,109,c),
(2208,592,l),
(2277,571,o),
(2400,513,o),
(2506,455,cs),
(2617,394,o),
(2706,342,o),
(2751,315,c),
(2770,397,o),
(2778,531,o),
(2778,626,cs),
(2778,727,o),
(2774,866,o),
(2751,965,c),
(2712,937,o),
(2622,885,o),
(2510,824,cs),
(2389,759,o),
(2279,707,o),
(2208,686,c),
(2208,1182,l),
(2431,1182,o),
(2660,1129,o),
(2854,1048,cs),
(3043,969,o),
(3208,859,o),
(3302,749,c),
(3407,749,l),
(3407,909,o),
(3390,1123,o),
(3356,1291,c),
(1165,1291,l),
(406,482,ls),
(297,366,o),
(195,269,o),
(100,201,cs),
(4,133,o),
(-84,94,o),
(-168,94,c),
(-168,0,l)
);
},
{
closed = 1;
nodes = (
(705,581,o),
(851,753,o),
(1243,1166,c),
(1243,485,l),
(634,485,l)
);
}
);
width = 3648;
}
);
note = AE;
unicode = 198;
},
{
glyphname = B;
kernLeft = KO_H;
kernRight = KO_B;
lastChange = "2023-11-30 04:50:27 +0000";
layers = (
{
anchors = (
{
name = bottom;
pos = (1650,0);
},
{
name = center;
pos = (1650,646);
},
{
name = top;
pos = (1650,1291);
}
);
layerId = m01;
shapes = (
{
closed = 1;
nodes = (
(1815,0,ls),
(2287,0,o),
(2647,8,o),
(2890,56,cs),
(3133,103,o),
(3257,188,o),
(3257,341,cs),
(3257,494,o),
(3102,582,o),
(2869,625,cs),
(2615,672,o),
(2325,677,o),
(1993,679,c),
(2260,681,o),
(2517,688,o),
(2732,732,cs),
(2935,773,o),
(3074,851,o),
(3074,986,cs),
(3074,1109,o),
(3007,1183,o),
(2820,1228,cs),
(2692,1259,o),
(2501,1277,o),
(2235,1285,cs),
(2102,1289,o),
(1947,1291,o),
(1770,1291,cs),
(100,1291,l),
(100,1197,l),
(223,1197,o),
(321,1186,o),
(397,1157,cs),
(435,1142,o),
(468,1122,o),
(496,1097,cs),
(581,1017,o),
(615,879,o),
(615,668,cs),
(615,240,o),
(500,107,o),
(100,94,c),
(100,0,l)
);
},
{
closed = 1;
nodes = (
(1655,632,l),
(1926,632,o),
(2151,612,o),
(2151,382,cs),
(2151,150.006,o),
(1911,128,o),
(1655,128,c)
);
},
{
closed = 1;
nodes = (
(1684,751,l),
(1655,751,l),
(1655,1171,l),
(1794,1170,o),
(1907,1162,o),
(1985,1132,cs),
(2063,1102,o),
(2106,1050,o),
(2106,963,cs),
(2106,792,o),
(1945,755,o),
(1687,750,c)
);
}
);
width = 3300;
}
);
note = B;
unicode = 66;
},
{
color = 1;
glyphname = Bhook;
kernLeft = KO_Dhook;
kernRight = KO_B;
lastChange = "2023-11-17 21:20:16 +0000";
layers = (
{
layerId = m01;
shapes = (
{
ref = B;
},
{
closed = 1;
nodes = (
(1158,1035,o),
(1221,1143,o),
(1017,1215,cs),
(949,1239,o),
(873,1258,o),
(790,1273,cs),
(623,1301,o),
(430,1311,o),
(219,1311,cs),
(-314,1311,o),
(-541,1193,o),
(-541,1017,cs),
(-541,950,o),
(-500,891,o),
(-424,848,cs),
(-348,804,o),
(-237,778,o),
(-94,778,cs),
(35,778,o),
(151,801,o),
(235,837,cs),
(319,873,o),
(370,922,o),
(370,975,cs),
(370,1027,o),
(337,1074,o),
(271,1108,cs),
(205,1142,o),
(104,1162,o),
(-28,1162,c),
(20,1182,o),
(82,1194,o),
(147,1194,cs),
(433,1194,o),
(643,1086,o),
(643,942,cs),
(643,817,o),
(894,766,o),
(949,781,cs),
(1158,837,l)
);
}
);
width = 3300;
}
);
unicode = 385;
},
{
glyphname = C;
kernLeft = KO_C;
kernRight = KO_C;
lastChange = "2023-11-30 04:50:27 +0000";
layers = (
{
anchors = (
{
name = bottom;
pos = (1429,0);
},
{
name = top;
pos = (1429,1291);
}
);
layerId = m01;
shapes = (
{
closed = 1;
nodes = (
(2352,-57,o),
(2743,178,o),
(2743,551,c),
(2594,551,l),
(2578,401,o),
(2486,284,o),
(2357,211,cs),
(2234,141,o),
(2081,102,o),
(1928,102,cs),
(1619,102,o),
(1334,275,o),
(1334,629,cs),
(1334,1047,o),
(1595,1185,o),
(1885,1185,cs),
(2014,1185,o),
(2169,1155,o),
(2304,1089,cs),
(2441,1022,o),
(2545,922,o),
(2583,786,c),
(2733,786,l),
(2733,945,o),
(2678,1213,o),
(2598,1352,c),
(2378,1352,l),
(2350,1303,o),
(2270,1270,o),
(2222,1270,cs),
(2116,1270,o),
(1993,1290,o),
(1844,1308,cs),
(1693,1327,o),
(1518,1346,o),
(1322,1346,cs),
(955,1346,o),
(654,1277,o),
(444,1156,cs),
(234,1035,o),
(115,861,o),
(115,652,cs),
(115,376,o),
(263,196,o),
(525,89,cs),
(699,17,o),
(919,-24,o),
(1180,-43,cs),
(1310,-52,o),
(1449,-57,o),
(1596,-57,cs)
);
}
);
width = 2858;
}
);
note = C;
unicode = 67;
userData = {
KernOnName = C;
};
},
{
glyphname = D;
kernLeft = KO_H;
kernRight = KO_D;
lastChange = "2023-11-30 04:50:27 +0000";
layers = (
{
anchors = (
{
name = bottom;
pos = (1668,0);
},
{
name = center;
pos = (1668,646);
},
{
name = top;
pos = (1668,1291);
}
);
layerId = m01;
shapes = (
{
closed = 1;
nodes = (
(1621,0,ls),
(1950,0,o),
(2355,7,o),
(2671,91,cs),
(2992,176,o),
(3231,337,o),
(3231,648,cs),
(3231,849,o),
(3147,987,o),
(3008,1083,cs),
(2939,1130,o),
(2857,1168,o),
(2762,1196,cs),
(2573,1251,o),
(2350,1277,o),
(2110,1285,cs),
(1989,1289,o),
(1868,1291,o),
(1747,1291,cs),
(100,1291,l),
(100,1197,l),
(223,1197,o),
(321,1186,o),
(397,1157,cs),
(435,1142,o),
(468,1122,o),
(496,1097,cs),
(581,1017,o),
(615,879,o),
(615,668,cs),
(615,240,o),
(500,107,o),
(100,94,c),
(100,0,l)
);
},
{
closed = 1;
nodes = (
(1655,1171,l),
(1743,1168,o),
(1821,1161,o),
(1885,1134,cs),
(1917,1121,o),
(1946,1102,o),
(1971,1079,cs),
(2048,1005,o),
(2087,867,o),
(2087,648,cs),
(2087,433,o),
(2042,305,o),
(1966,229,cs),
(1890,153,o),
(1782,128,o),
(1655,121,c)
);
}
);
width = 3336;
}
);
note = D;
unicode = 68;
userData = {
KernOnName = D;
};
},
{
color = 1;
glyphname = Dhook;
kernLeft = KO_Dhook;
kernRight = KO_D;
lastChange = "2023-11-17 21:20:33 +0000";
layers = (
{
layerId = m01;
shapes = (
{
ref = D;
},
{
closed = 1;
nodes = (
(1158,1035,o),
(1221,1143,o),
(1017,1215,cs),
(949,1239,o),
(873,1258,o),
(790,1273,cs),
(623,1301,o),
(430,1311,o),
(219,1311,cs),
(-314,1311,o),
(-541,1193,o),
(-541,1017,cs),
(-541,950,o),
(-500,891,o),
(-424,848,cs),
(-348,804,o),
(-237,778,o),
(-94,778,cs),
(35,778,o),
(151,801,o),
(235,837,cs),
(319,873,o),
(370,922,o),
(370,975,cs),
(370,1027,o),
(337,1074,o),
(271,1108,cs),
(205,1142,o),
(104,1162,o),
(-28,1162,c),
(20,1182,o),
(82,1194,o),
(147,1194,cs),
(433,1194,o),
(643,1086,o),
(643,942,cs),
(643,817,o),
(894,766,o),
(949,781,cs),
(1158,837,l)
);
}
);
width = 3336;
}
);
unicode = 394;
},
{
glyphname = Eth;
kernLeft = KO_Eth;
kernRight = KO_D;
lastChange = "2023-11-30 04:50:27 +0000";
layers = (
{
layerId = m01;
shapes = (
{
closed = 1;
nodes = (
(1621,0,ls),
(1950,0,o),
(2355,7,o),
(2671,91,cs),
(2992,176,o),
(3231,337,o),
(3231,648,cs),
(3231,849,o),
(3147,987,o),
(3008,1083,cs),
(2939,1130,o),
(2857,1168,o),
(2762,1196,cs),
(2573,1251,o),
(2350,1277,o),
(2110,1285,cs),
(1989,1289,o),
(1868,1291,o),
(1747,1291,cs),
(100,1291,l),
(100,1197,l),
(448,1197,o),
(601,1114,o),
(614,730,c),
(478,732,o),
(244,739,o),
(177,745,c),
(172,723,o),
(168,678,o),
(168,653,cs),
(168,627,o),
(172,580,o),
(177,561,c),
(262,568,o),
(466,574,o),
(613,576,c),
(597,218,o),
(467,107,o),
(100,94,c),
(100,0,l)
);
},
{
closed = 1;
nodes = (
(1655,575,l),
(1772,572,o),
(1876,568,o),
(1936,561,c),
(1943,596,o),
(1946,620,o),
(1946,653,cs),
(1946,688,o),
(1943,710,o),
(1936,745,c),
(1873,740,o),
(1772,735,o),
(1655,732,c),
(1655,1171,l),
(1743,1168,o),
(1821,1161,o),
(1885,1134,cs),
(1917,1121,o),
(1946,1102,o),
(1971,1079,cs),
(2048,1005,o),
(2087,867,o),
(2087,648,cs),
(2087,433,o),
(2042,305,o),
(1966,229,cs),
(1890,153,o),
(1782,128,o),
(1655,121,c)
);
}
);
width = 3336;
}
);
note = Eth;
unicode = 208;
},
{
glyphname = E;
kernLeft = KO_H;
kernRight = KO_E;
lastChange = "2023-11-30 04:50:27 +0000";
layers = (
{
anchors = (
{
name = bottom;
pos = (1546,0);
},
{
name = ogonek;
pos = (2782,10);
},
{
name = top;
pos = (1546,1291);
},
{
name = topleft;
pos = (20,1291);
}
);
layerId = m01;
shapes = (
{
closed = 1;
nodes = (
(3003,0,l),
(3037,168,o),
(3054,382,o),
(3054,542,c),
(2949,542,l),
(2886,422,o),
(2673,308,o),
(2423,229,cs),
(2162,147,o),
(1879,99,o),
(1655,99,c),
(1655,593,l),
(1734,571,o),
(1871,512,o),
(2006,451,cs),
(2147,386,o),
(2263,326,o),
(2298,305,c),
(2317,388,o),
(2325,530,o),
(2325,626,cs),
(2325,726,o),
(2321,875,o),
(2298,975,c),
(2266,952,o),
(2157,897,o),
(2010,829,cs),
(1862,761,o),
(1729,707,o),
(1655,686,c),
(1655,1192,l),
(1885,1192,o),
(2131,1149,o),
(2350,1071,cs),
(2569,993,o),
(2750,882,o),
(2839,749,c),
(2944,749,l),
(2944,909,o),
(2927,1123,o),
(2893,1291,c),
(100,1291,l),
(100,1197,l),
(223,1197,o),
(321,1186,o),
(397,1157,cs),
(435,1142,o),
(468,1122,o),
(496,1097,cs),
(581,1017,o),
(615,879,o),
(615,668,cs),
(615,240,o),
(500,107,o),
(100,94,c),
(100,0,l)
);
}
);
width = 3091;
}
);
note = E;
unicode = 69;
userData = {
KernOnName = E;
};
},
{
glyphname = F;
kernLeft = KO_H;
kernRight = KO_F;
lastChange = "2023-11-30 04:50:27 +0000";
layers = (
{
anchors = (
{
name = bottom;
pos = (1493,0);
},
{
name = top;
pos = (1493,1291);
}
);
layerId = m01;
shapes = (
{
closed = 1;
nodes = (
(2425,0,l),
(2425,94,l),
(2174,94,o),
(1991,126,o),
(1865,204,cs),
(1739,282,o),
(1671,407,o),
(1658,594,c),
(1739,574,o),
(1907,510,o),
(2046,450,cs),
(2206,381,o),
(2322,325,o),
(2360,302,c),
(2378,384,o),
(2389,541,o),
(2389,634,cs),
(2389,733,o),
(2382,879,o),
(2360,976,c),
(2320,949,o),
(2196,891,o),
(2050,829,cs),
(1906,767,o),
(1745,706,o),
(1655,686,c),
(1655,1192,l),
(1887,1192,o),
(2130,1155,o),
(2350,1083,cs),
(2571,1009,o),
(2754,895,o),
(2849,749,c),
(2954,749,l),
(2954,909,o),
(2937,1123,o),
(2903,1291,c),
(100,1291,l),
(100,1197,l),
(223,1197,o),
(321,1186,o),
(397,1157,cs),
(435,1142,o),
(468,1122,o),
(496,1097,cs),
(581,1017,o),
(615,879,o),
(615,668,cs),
(615,240,o),
(500,107,o),
(100,94,c),
(100,0,l)
);
}
);
width = 2986;
}
);
note = F;
unicode = 70;
userData = {
KernOnName = F;
};
},
{
glyphname = G;
kernLeft = KO_G;
kernRight = KO_G;
lastChange = "2023-11-30 04:50:27 +0000";
layers = (
{
anchors = (
{
name = bottom;
pos = (1539,0);
},
{
name = top;
pos = (1539,1291);
}
);
layerId = m01;
shapes = (
{
closed = 1;
nodes = (
(1951,-57,o),
(2419,-33,o),
(2895,14,c),
(2834,120,o),
(2796,264,o),
(2796,387,cs),
(2796,490,o),
(2851,527,o),
(3004,527,c),
(3004,621,l),
(1545,621,l),
(1545,527,l),
(1689,527,o),
(1786,523,o),
(1851,503,cs),
(1884,492,o),
(1909,477,o),
(1927,458,cs),
(1962,418,o),
(1977,353,o),
(1981,254,cs),
(1982,205,o),
(1983,145,o),
(1983,76,c),
(1950,69,o),
(1856,66,o),
(1821,66,cs),
(1518,66,o),
(1287,303,o),
(1287,630,cs),
(1287,817,o),
(1361,959,o),
(1478,1051,cs),
(1589,1139,o),
(1731,1185,o),
(1885,1185,cs),
(2014,1185,o),
(2169,1155,o),
(2304,1089,cs),
(2441,1022,o),
(2545,922,o),
(2583,786,c),
(2733,786,l),
(2733,946,o),
(2708,1214,o),
(2628,1352,c),
(2378,1352,l),
(2343,1293,o),
(2287,1269,o),
(2194,1269,cs),
(2099,1269,o),
(1979,1289,o),
(1849,1308,cs),
(1756,1321,o),
(1641,1333,o),
(1499,1341,cs),
(1428,1345,o),
(1348,1347,o),
(1261,1347,cs),
(534,1347,o),
(115,1055,o),
(115,608,cs),
(115,423,o),
(189,288,o),
(314,189,cs),
(376,140,o),
(450,99,o),
(535,68,cs),
(706,4,o),
(910,-32,o),
(1135,-46,cs),
(1247,-53,o),
(1361,-57,o),
(1477,-57,cs)
);
}
);
width = 3078;
}
);
note = G;
unicode = 71;
},
{
color = 1;
glyphname = H;
kernLeft = KO_H;
kernRight = KO_H;
lastChange = "2023-11-30 04:50:27 +0000";
layers = (
{
anchors = (
{
name = bottom;
pos = (1875,0);
},
{
name = center;
pos = (1875,646);
},
{
name = top;
pos = (1875,1291);
},
{
name = topleft;
pos = (20,1291);
}
);
layerId = m01;
shapes = (
{
closed = 1;
nodes = (
(1781,0,l),
(1781,94,l),
(1749,99,o),
(1720,131,o),
(1698,204,cs),
(1676,277,o),
(1660,393,o),
(1656,565,c),
(2095,565,l),
(2087,220,o),
(2034,104,o),
(1971,94,c),
(1971,0,l),
(3650,0,l),
(3650,94,l),
(3255,107,o),
(3136,236,o),
(3136,668,cs),
(3136,1107,o),
(3286,1197,o),
(3650,1197,c),
(3650,1291,l),
(1971,1291,l),
(1971,1197,l),
(2077,1197,o),
(2097,1109,o),
(2097,692,c),
(1655,692,l),
(1655,901,o),
(1660,1029,o),
(1678,1102,cs),
(1696,1175,o),
(1726,1197,o),
(1781,1197,c),
(1781,1291,l),
(100,1291,l),
(100,1197,l),
(223,1197,o),
(321,1186,o),
(397,1157,cs),
(435,1142,o),
(468,1122,o),
(496,1097,cs),
(581,1017,o),
(615,879,o),
(615,668,cs),
(615,240,o),
(500,107,o),
(100,94,c),
(100,0,l)
);
}
);
width = 3750;
}
);
note = H;
unicode = 72;
userData = {
KernOnName = H;
};
},
{
glyphname = Hbar;
kernLeft = KO_Hbar;
kernRight = KO_Hbar;
lastChange = "2023-11-30 04:50:27 +0000";
layers = (
{
layerId = m01;
shapes = (
{
closed = 1;
nodes = (
(1781,0,l),
(1781,94,l),
(1749,99,o),
(1720,131,o),
(1698,204,cs),
(1676,277,o),
(1660,393,o),
(1656,505,c),
(2095,505,l),
(2087,220,o),
(2034,104,o),
(1971,94,c),
(1971,0,l),
(3650,0,l),
(3650,94,l),
(3255,107,o),
(3136,236,o),
(3136,668,cs),
(3136,1107,o),
(3286,1197,o),
(3650,1197,c),
(3650,1291,l),
(1971,1291,l),
(1971,1197,l),
(2077,1197,o),
(2097,1109,o),
(2097,632,c),
(1655,632,l),
(1655,901,o),
(1660,1029,o),
(1678,1102,cs),
(1696,1175,o),
(1726,1197,o),
(1781,1197,c),
(1781,1291,l),
(100,1291,l),
(100,1197,l),
(223,1197,o),
(321,1186,o),
(397,1157,cs),
(435,1142,o),
(468,1122,o),
(496,1097,cs),
(581,1017,o),
(615,879,o),
(615,668,cs),
(615,240,o),
(500,107,o),
(100,94,c),
(100,0,l)
);
},
{
closed = 1;
nodes = (
(313,781,o),
(577,787,o),
(978,791,cs),
(1371,794,o),
(1701,795,o),
(1873,795,cs),
(2025,795,o),
(2348,794,o),
(2749,791,cs),
(3146,787,o),
(3414,781,o),
(3566,775,c),
(3576,800,o),
(3583,840,o),
(3583,867,cs),
(3583,887,o),
(3576,935,o),
(3566,959,c),
(3428,952,o),
(3094,946,o),
(2780,944,cs),
(2400,940,o),
(2074,939,o),
(1873,939,cs),
(1694,939,o),
(1416,939,o),
(985,943,cs),
(622,945,o),
(320,949,o),
(175,959,c),
(161,924,o),
(158,900,o),
(158,867,cs),
(158,832,o),
(161,810,o),
(175,775,c)
);
}
);
width = 3750;
}
);
unicode = 294;
},
{
glyphname = I;
kernLeft = KO_H;
kernRight = KO_I;
lastChange = "2023-11-30 04:50:27 +0000";
layers = (
{
anchors = (
{
name = bottom;
pos = (1135,0);
},
{
name = ogonek;
pos = (2042,10);
},
{
name = top;
pos = (1135,1291);
},
{
name = topleft;
pos = (20,1291);
}
);
layerId = m01;
shapes = (
{
closed = 1;
nodes = (
(2169,0,l),
(2169,94,l),
(1771,107,o),
(1655,236,o),
(1655,668,cs),
(1655,1107,o),
(1803,1197,o),
(2169,1197,c),
(2169,1291,l),
(100,1291,l),
(100,1197,l),
(223,1197,o),
(321,1186,o),
(397,1157,cs),
(435,1142,o),
(468,1122,o),
(496,1097,cs),
(581,1017,o),
(615,879,o),
(615,668,cs),
(615,240,o),
(500,107,o),
(100,94,c),
(100,0,l)
);
}
);
width = 2269;
}
);
note = I;
unicode = 73;
userData = {
KernOnName = I;
};
},
{
glyphname = J;
kernLeft = KO_J;
kernRight = KO_J;
lastChange = "2023-11-30 04:50:27 +0000";
layers = (
{
anchors = (
{
name = bottom;
pos = (1226,-51);
},
{
name = top;
pos = (1273,1291);
}
);
layerId = m01;
shapes = (
{
closed = 1;
nodes = (
(1226,-148,o),
(1361,-141,o),
(1476,-117,cs),
(1533,-106,o),
(1585,-90,o),
(1632,-70,cs),
(1759,-15,o),
(1855,88,o),
(1855,273,cs),
(1855,431,o),
(1828,567,o),
(1828,715,cs),
(1828,844,o),
(1834,940,o),
(1857,1012,cs),
(1868,1048,o),
(1884,1078,o),
(1905,1102,cs),
(1969,1175,o),
(2088,1197,o),
(2275,1197,c),
(2275,1291,l),
(207,1291,l),
(207,1197,l),
(330,1197,o),
(434,1188,o),
(519,1158,cs),
(562,1143,o),
(599,1122,o),
(632,1095,cs),
(733,1011,o),
(782,859,o),
(782,621,cs),
(782,398,o),
(764,255,o),
(719,166,cs),
(674,77,o),
(600,44,o),
(489,44,cs),
(383,44,o),
(306,56,o),
(138,89,c),
(120,-14,l),
(235,-49,o),
(363,-83,o),
(518,-107,cs),
(673,-132,o),
(856,-148,o),
(1081,-148,cs)
);
}
);
width = 2318;
}
);
note = J;
unicode = 74;
userData = {
KernOnName = J;
};
},
{
glyphname = K;
kernLeft = KO_H;
kernRight = KO_K;
lastChange = "2023-11-30 04:50:27 +0000";
layers = (
{
anchors = (
{
name = bottom;
pos = (1685,0);
},
{
name = top;
pos = (1685,1291);
}
);
layerId = m01;
shapes = (
{
closed = 1;
nodes = (
(2915,-57,o),
(3029,-51,o),
(3121,-42,cs),
(3212,-33,o),
(3280,-21,o),
(3344,-6,c),
(3344,95,l),
(3179,98,o),
(3157,131,o),
(3128,273,cs),
(3108,370,o),
(3091,455,o),
(3060,527,cs),
(3044,562,o),
(3024,594,o),
(3001,622,cs),
(2953,678,o),
(2879,716,o),
(2771,737,cs),
(2716,747,o),
(2651,752,o),
(2574,752,cs),
(2457,752,o),
(2362,743,o),
(2258,729,cs),
(2088,705,ls),
(2027,696,o),
(1955,686,o),
(1874,676,c),
(2087,781,o),
(2346,910,o),
(2595,1017,cs),
(2758,1087,o),
(2903,1142,o),
(3020,1174,cs),
(3078,1189,o),
(3126,1197,o),
(3164,1197,c),
(3164,1291,l),
(2095,1291,l),
(2095,1197,l),
(2167,1197,o),
(2219,1190,o),
(2250,1177,cs),
(2281,1164,o),
(2296,1146,o),
(2296,1123,cs),
(2296,1072,o),
(2199,992,o),
(2074,911,cs),
(1941,825,o),
(1795,747,o),
(1655,674,c),
(1663,1062,o),
(1771,1197,o),
(1890,1197,c),
(1890,1291,l),
(100,1291,l),
(100,1197,l),
(223,1197,o),
(321,1186,o),
(397,1157,cs),
(435,1142,o),
(468,1122,o),
(496,1097,cs),
(581,1017,o),
(615,879,o),
(615,668,cs),
(615,240,o),
(500,107,o),
(100,94,c),
(100,0,l),
(1899,0,l),
(1899,94,l),
(1725,94,o),
(1664,217,o),
(1656,568,c),
(1895,563,o),
(1976,482,o),
(2014,271,cs),
(2031,178,o),
(2056,109,o),
(2102,61,cs),
(2125,36,o),
(2154,16,o),
(2189,1,cs),
(2260,-30,o),
(2363,-46,o),
(2507,-52,cs),
(2578,-55,o),
(2662,-57,o),
(2759,-57,cs)
);
}
);
width = 3369;
}
);
note = K;
unicode = 75;
userData = {
KernOnName = K;
};
},
{
color = 1;
glyphname = Khook;
kernLeft = KO_H;
kernRight = KO_Khook;
lastChange = "2023-11-17 22:49:17 +0000";
layers = (
{
anchors = (
{
name = bottom;
pos = (1685,0);
},
{
name = top;
pos = (1874,1291);
}
);
layerId = m01;
shapes = (
{
closed = 1;
nodes = (
(2915,-57,o),
(3029,-51,o),
(3121,-42,cs),
(3212,-33,o),
(3280,-21,o),
(3344,-6,c),
(3344,95,l),
(3179,98,o),
(3157,131,o),
(3128,273,cs),
(3108,370,o),
(3091,455,o),
(3060,527,cs),
(3044,562,o),
(3024,594,o),
(3001,622,cs),
(2953,678,o),
(2879,716,o),
(2771,737,cs),
(2716,747,o),
(2651,752,o),
(2574,752,cs),
(2457,752,o),
(2362,743,o),
(2258,729,cs),
(2088,705,ls),
(2027,696,o),
(1955,686,o),
(1874,676,c),
(2087,781,o),
(2374,940,o),
(2623,1047,cs),
(2760,1106,o),
(2916,1173,o),
(3213,1173,cs),
(3278,1173,o),
(3340,1161,o),
(3388,1141,c),
(3256,1141,o),
(3155,1121,o),
(3089,1087,cs),
(3023,1053,o),
(2990,1006,o),
(2990,954,cs),
(2990,901,o),
(3041,852,o),
(3125,816,cs),
(3209,780,o),
(3325,757,o),
(3454,757,cs),
(3597,757,o),
(3708,783,o),
(3784,827,cs),
(3860,870,o),
(3901,929,o),
(3901,1017,cs),
(3901,1193,o),
(3596,1311,o),
(3226,1311,cs),
(2716,1311,o),
(2299,1047,o),
(2074,911,cs),
(1940,830,o),
(1795,747,o),
(1655,674,c),
(1663,1062,o),
(1770,1197,o),
(2010,1197,c),
(2010,1291,l),
(100,1291,l),
(100,1197,l),
(223,1197,o),
(321,1186,o),
(397,1157,cs),
(435,1142,o),
(468,1122,o),
(496,1097,cs),
(581,1017,o),
(615,879,o),
(615,668,cs),
(615,240,o),
(500,107,o),
(100,94,c),
(100,0,l),
(1899,0,l),
(1899,94,l),
(1725,94,o),
(1664,217,o),
(1656,568,c),
(1895,563,o),
(1976,482,o),
(2014,271,cs),
(2031,178,o),
(2056,109,o),
(2102,61,cs),
(2125,36,o),
(2154,16,o),
(2189,1,cs),
(2260,-30,o),
(2363,-46,o),
(2507,-52,cs),
(2578,-55,o),
(2662,-57,o),
(2759,-57,cs)
);
}
);
width = 3801;
}
);
unicode = 408;
},
{
glyphname = L;
kernLeft = KO_H;
kernRight = KO_L;
lastChange = "2023-11-30 04:50:27 +0000";
layers = (
{
anchors = (
{
name = bottom;
pos = (1389,0);
},
{
name = center;
pos = (1389,646);
},
{
name = top;
pos = (1389,1291);
},
{
name = topright;
pos = (2757,1291);
}
);
layerId = m01;
shapes = (
{
closed = 1;
nodes = (
(2703,0,l),
(2720,85,o),
(2733,221,o),
(2742,377,cs),
(2750,530,o),
(2754,669,o),
(2754,742,c),
(2649,742,l),
(2637,596,o),
(2522,434,o),
(2340,310,cs),
(2157,184,o),
(1914,99,o),
(1655,99,c),
(1655,668,ls),
(1655,1107,o),
(1803,1197,o),
(2169,1197,c),
(2169,1291,l),
(100,1291,l),
(100,1197,l),
(223,1197,o),
(321,1186,o),
(397,1157,cs),
(435,1142,o),
(468,1122,o),
(496,1097,cs),
(581,1017,o),
(615,879,o),
(615,668,cs),
(615,240,o),
(500,107,o),
(100,94,c),
(100,0,l)
);
}
);
width = 2777;
}
);
note = L;
unicode = 76;
userData = {
KernOnName = L;
};
},
{
glyphname = Lslash;
kernLeft = KO_Lslash;
kernRight = KO_Lslash;
lastChange = "2023-11-30 04:50:27 +0000";
layers = (
{
layerId = m01;
shapes = (
{
closed = 1;
nodes = (
(2703,0,l),
(2720,85,o),
(2733,221,o),
(2742,377,cs),
(2750,530,o),
(2754,669,o),
(2754,742,c),
(2649,742,l),
(2637,596,o),
(2522,434,o),
(2340,310,cs),
(2157,184,o),
(1914,99,o),
(1655,99,c),
(1655,677,l),
(1791,700,o),
(1980,730,o),
(2105,750,cs),
(2238,770,o),
(2349,784,o),
(2399,788,c),
(2400,800,l),
(2400,810,ls),
(2400,855,o),
(2384,907,o),
(2367,950,c),
(2273,926,o),
(1948,865,o),
(1662,816,c),
(1694,1125,o),
(1847,1197,o),
(2169,1197,c),
(2169,1291,l),
(100,1291,l),
(100,1197,l),
(223,1197,o),
(321,1186,o),
(397,1157,cs),
(435,1142,o),
(468,1122,o),
(496,1097,cs),
(581,1017,o),
(615,879,o),
(615,668,cs),
(615,637,l),
(512,620,o),
(412,603,o),
(325,591,cs),
(237,578,o),
(165,567,o),
(120,563,c),
(120,506,o),
(132,445,o),
(152,402,c),
(196,413,o),
(263,426,o),
(342,442,cs),
(421,458,o),
(511,476,o),
(606,493,c),
(590,346,o),
(548,251,o),
(468,189,cs),
(388,127,o),
(269,99,o),
(100,94,c),
(100,0,l)
);
}
);
width = 2777;
}
);
note = Lslash;
unicode = 321;
},
{
glyphname = M;
kernLeft = KO_M;
kernRight = KO_M;
lastChange = "2023-11-30 04:50:27 +0000";
layers = (
{
anchors = (
{
name = bottom;
pos = (1823,0);
},
{
name = top;
pos = (1823,1291);
}
);
layerId = m01;
shapes = (
{
closed = 1;
nodes = (
(2126,1045,l),
(2126,668,ls),
(2126,518,o),
(2121,377,o),
(2064,269,cs),
(2027,200,o),
(1966,148,o),
(1872,119,cs),
(1825,104,o),
(1768,96,o),
(1702,94,c),
(1702,0,l),
(3590,0,l),
(3590,94,l),
(3192,107,o),
(3076,236,o),
(3076,668,cs),
(3076,1107,o),
(3224,1197,o),
(3590,1197,c),
(3590,1291,l),
(2126,1291,l),
(1892,907,l),
(1558,1291,l),
(86,1291,l),
(86,1197,l),
(270,1197,o),
(403,1175,o),
(489,1097,cs),
(575,1019,o),
(615,887,o),
(615,668,cs),
(615,240,o),
(500,107,o),
(100,94,c),
(100,0,l),
(1160,0,l),
(1160,94,l),
(1027,98,o),
(936,130,o),
(873,180,cs),
(842,205,o),
(817,234,o),
(799,269,cs),
(762,338,o),
(744,422,o),
(740,518,cs),
(737,566,o),
(736,616,o),
(736,668,cs),
(736,848,l),
(1449,-36,l)
);
}
);
width = 3645;
}
);
note = M;
unicode = 77;
userData = {
KernOnName = M;
};
},
{
color = 3;
glyphname = N;
kernLeft = KO_N;
kernRight = KO_N;
lastChange = "2023-11-30 04:50:27 +0000";
layers = (
{
anchors = (
{
name = bottom;
pos = (1665,0);
},
{
name = top;
pos = (1665,1291);
}
);
layerId = m01;
shapes = (
{
closed = 1;
nodes = (
(1230,0,l),
(1230,94,l),
(835,107,o),
(716,236,o),
(716,668,cs),
(716,768,o),
(723,848,o),
(739,915,c),
(1439,315,l),
(1805,0,l),
(2831,0,l),
(2831,668,ls),
(2831,813,o),
(2842,922,o),
(2870,1000,cs),
(2884,1039,o),
(2903,1071,o),
(2926,1097,cs),
(2972,1148,o),
(3040,1176,o),
(3133,1188,cs),
(3180,1194,o),
(3234,1197,o),
(3295,1197,c),
(3295,1291,l),
(2195,1291,l),
(2195,1197,l),
(2561,1197,o),
(2709,1107,o),
(2709,668,cs),
(2707,575,l),
(1826,1291,l),
(80,1291,l),
(80,1197,l),
(203,1197,o),
(301,1186,o),
(377,1157,cs),
(415,1142,o),
(448,1122,o),
(476,1097,cs),
(561,1017,o),
(595,879,o),
(595,668,cs),
(595,240,o),
(480,107,o),
(80,94,c),
(80,0,l)
);
}
);
width = 3330;
}
);
note = N;
unicode = 78;
},
{
glyphname = Eng;
kernLeft = KO_Eng;
kernRight = KO_Eng;
lastChange = "2023-11-30 04:50:27 +0000";
layers = (
{
anchors = (
{
name = bottom;
pos = (1768,-466);
},
{
name = top;
pos = (1591,1291);
}
);
background = {
shapes = (
{
closed = 1;
nodes = (
(1230,0,l),
(1230,94,l),
(835.117,107.251,o),
(716,236.325,o),
(716,668,cs),
(716,768,o),
(723,848.333,o),
(739,915,c),
(945.466,738.029,o),
(1179.263,538.571,o),
(1439,315,cs),
(1563,209,o),
(1685,104,o),
(1805,0,c),
(2831,0,l),
(2831,668,ls),
(2831,813.333,o),
(2842,921.5,o),
(2870,999.5,cs),
(2884,1038.5,o),
(2902.5,1070.833,o),
(2925.5,1096.5,cs),
(2971.5,1147.833,o),
(3039.667,1176,o),
(3133,1188,cs),
(3179.667,1194,o),
(3233.667,1197,o),
(3295,1197,c),
(3295,1291,l),
(2195,1291,l),
(2195,1197,l),
(2561.21,1197,o),
(2709,1107.279,o),
(2709,668,cs),
(2707,575,l),
(1826,1291,l),
(80,1291,l),
(80,1197,l),
(202.667,1197,o),
(301,1186.333,o),
(377,1157,cs),
(415,1142.333,o),
(447.833,1122.167,o),
(475.5,1096.5,cs),
(560.838,1017.331,o),
(595,878.887,o),
(595,668,cs),
(595,240.145,o),
(480.223,107.341,o),
(80,94,c),
(80,0,l),
(80,0,l)
);
}
);
};
layerId = m01;
shapes = (
{
closed = 1;
nodes = (
(2228,-589,o),
(2333,-582,o),
(2448,-558,cs),
(2505,-547,o),
(2557,-531,o),
(2604,-511,cs),
(2731,-456,o),
(2827,-353,o),
(2827,-168,cs),
(2827,-15,o),
(2789,272,o),
(2799,535,c),
(2801,922,ls),
(2801,1076,o),
(2738,1208,o),
(2565,1291,cs),
(2473,1335,o),
(2358,1342,o),
(2204,1342,cs),
(1922,1342,o),
(1707,1257,o),
(1467,1150,c),
(1467,1315,l),
(75,1295,l),
(75,1201,l),
(408,1201,o),
(538,1142,o),
(538,497,cs),
(538,366,o),
(506,270,o),
(432,203,cs),
(358,136,o),
(242,101,o),
(75,94,c),
(75,0,l),
(1582,0,l),
(1582,76,l),
(1497,132,o),
(1467,237,o),
(1467,470,cs),
(1467,1042,l),
(1519,1059,o),
(1571,1070,o),
(1618,1070,cs),
(1730,1070,o),
(1790,1036,o),
(1790,488,cs),
(1790,426,o),
(1784,174,o),
(1784,100,cs),
(1784,-123,o),
(1766,-186,o),
(1721,-275,cs),
(1676,-364,o),
(1602,-397,o),
(1491,-397,cs),
(1385,-397,o),
(1308,-385,o),
(1140,-352,c),
(1122,-455,l),
(1237,-490,o),
(1365,-524,o),
(1520,-548,cs),
(1675,-573,o),
(1858,-589,o),
(2083,-589,cs)
);
}
);
width = 2827;
}
);
unicode = 330;
},
{
glyphname = O;
kernLeft = KO_O;
kernRight = KO_O;
lastChange = "2023-11-18 01:51:04 +0000";
layers = (
{
anchors = (
{
name = bottom;
pos = (1526,0);
},
{
name = center;
pos = (1526,646);
},
{
name = ogonek;
pos = (2735,10);
},
{
name = top;
pos = (1526,1291);
},
{
name = topleft;
pos = (34,1291);
},
{
name = topright;
pos = (3017,1291);
}
);
layerId = m01;
shapes = (
{
closed = 1;
nodes = (
(1754,-57,o),
(1988,-45,o),
(2197,-5,cs),
(2301,14,o),
(2398,41,o),
(2488,74,cs),
(2667,141,o),
(2800,244,o),
(2876,389,cs),
(2913,462,o),
(2932,547,o),
(2932,645,cs),
(2932,841,o),
(2852,984,o),
(2721,1088,cs),
(2655,1140,o),
(2577,1183,o),
(2488,1216,cs),
(2308,1283,o),
(2097,1321,o),
(1869,1336,cs),
(1754,1343,o),
(1640,1347,o),
(1525,1347,cs),
(1296,1347,o),
(1062,1335,o),
(854,1296,cs),
(750,1276,o),
(653,1249,o),
(564,1216,cs),
(384,1149,o),
(251,1046,o),
(176,901,cs),
(138,828,o),
(119,743,o),
(119,645,cs),
(119,449,o),
(199,306,o),
(331,202,cs),
(396,150,o),
(474,107,o),
(564,74,cs),
(743,7,o),
(953,-31,o),
(1182,-46,cs),
(1296,-53,o),
(1410,-57,o),
(1525,-57,cs)
);
},
{
closed = 1;
nodes = (
(1324,56,o),
(1284,315,o),
(1284,645,cs),
(1284,799,o),
(1295,940,o),
(1329,1051,cs),
(1363,1163,o),
(1424,1234,o),
(1520,1234,cs),
(1713,1234,o),
(1767,984,o),
(1767,645,cs),
(1767,315,o),
(1716,56,o),
(1520,56,cs)
);
}
);
width = 3051;
}
);
metricRight = "=|";
note = O;
unicode = 79;
userData = {
KernOnName = O;
};
},
{
glyphname = Oslash;
kernLeft = KO_Oslash;
kernRight = KO_Oslash;
lastChange = "2023-11-30 04:50:27 +0000";
layers = (
{
layerId = m01;
shapes = (
{
closed = 1;
nodes = (
(343,-129,o),
(470,-50,o),
(630,46,c),
(881,-33,o),
(1209,-57,o),
(1511,-57,cs),
(1740,-57,o),
(1974,-45,o),
(2183,-5,cs),
(2287,14,o),
(2384,41,o),
(2474,74,cs),
(2653,141,o),
(2786,244,o),
(2862,389,cs),
(2899,462,o),
(2918,547,o),
(2918,645,cs),
(2918,895,o),
(2785,1063,o),
(2578,1169,c),
(2686,1228,o),
(2769,1272,o),
(2805,1288,c),
(2784,1351,o),
(2756,1399,o),
(2713,1447,c),
(2677,1421,o),
(2538,1336,o),
(2386,1246,c),
(2133,1323,o),
(1818,1347,o),
(1511,1347,cs),
(1282,1347,o),
(1048,1335,o),
(840,1296,cs),
(736,1276,o),
(639,1249,o),
(550,1216,cs),
(370,1149,o),
(237,1046,o),
(162,901,cs),
(124,828,o),
(105,743,o),
(105,645,cs),
(105,392,o),
(238,229,o),
(438,124,c),
(325,61,o),
(237,14,o),
(194,-6,c),
(213,-65,o),
(244,-127,o),
(286,-166,c)
);
},
{
closed = 1;
nodes = (
(1357,56,o),
(1297,207,o),
(1278,428,c),
(1383,491,o),
(1470,541,o),
(1521,570,cs),
(1752,703,l),
(1753,675,l),
(1753,645,ls),
(1753,315,o),
(1702,56,o),
(1506,56,cs)
);
},
{
closed = 1;
nodes = (
(1270,645,ls),
(1270,799,o),
(1281,940,o),
(1315,1051,cs),
(1349,1163,o),
(1410,1234,o),
(1506,1234,cs),
(1579,1234,o),
(1634,1197,o),
(1672,1133,cs),
(1710,1068,o),
(1731,976,o),
(1743,865,c),
(1607,785,o),
(1498,723,o),
(1449,695,cs),
(1270,592,l)
);
}
);
width = 3023;
}
);
note = Oslash;
unicode = 216;
},
{
glyphname = OE;
kernLeft = KO_OE;
kernRight = KO_OE;
lastChange = "2023-11-30 04:50:27 +0000";
layers = (
{
layerId = m01;
shapes = (
{
closed = 1;
nodes = (
(3900,0,l),
(3934,168,o),
(3951,382,o),
(3951,542,c),
(3846,542,l),
(3756,437,o),
(3587,328,o),
(3368,243,cs),
(3161,162,o),
(2914,109,o),
(2692,109,c),
(2692,592,l),
(2761,571,o),
(2884,513,o),
(2990,455,cs),
(3101,394,o),
(3190,342,o),
(3235,315,c),
(3254,397,o),
(3262,531,o),
(3262,626,cs),
(3262,727,o),
(3258,866,o),
(3235,965,c),
(3196,937,o),
(3106,885,o),
(2994,824,cs),
(2873,759,o),
(2763,707,o),
(2692,686,c),
(2692,1182,l),
(2915,1182,o),
(3144,1129,o),
(3338,1048,cs),
(3527,969,o),
(3692,859,o),
(3786,749,c),
(3891,749,l),
(3891,909,o),
(3874,1123,o),
(3840,1291,c),
(1497,1291,ls),
(1270,1291,o),
(1040,1282,o),
(833,1248,cs),
(730,1231,o),
(634,1207,o),
(545,1177,cs),
(368,1117,o),
(235,1022,o),
(161,886,cs),
(124,818,o),
(105,738,o),
(105,645,cs),
(105,460,o),
(183,326,o),
(314,231,cs),
(379,183,o),
(456,144,o),
(545,114,cs),
(722,54,o),
(932,21,o),
(1157,9,cs),
(1270,3,o),
(1383,0,o),
(1497,0,cs)
);
},
{
closed = 1;
nodes = (
(1396,113,o),
(1334,162,o),
(1298,253,cs),
(1261,344,o),
(1248,477,o),
(1248,645,cs),
(1248,813,o),
(1261,947,o),
(1298,1038,cs),
(1334,1129,o),
(1396,1178,o),
(1492,1178,cs),
(1588,1178,o),
(1650,1129,o),
(1687,1038,cs),
(1723,947,o),
(1737,813,o),
(1737,645,cs),
(1737,477,o),
(1723,344,o),
(1687,253,cs),
(1650,162,o),
(1588,113,o),
(1492,113,cs)
);
}
);
width = 3988;
}
);
note = OE;
unicode = 338;
},
{
glyphname = P;
kernLeft = KO_H;
kernRight = KO_P;
lastChange = "2023-11-30 04:50:27 +0000";
layers = (
{
anchors = (
{
name = bottom;
pos = (1605,0);
},
{
name = top;
pos = (1605,1291);
}
);
layerId = m01;
shapes = (
{
closed = 1;
nodes = (
(2259,0,l),
(2259,94,l),
(1859,107,o),
(1711,192,o),
(1669,449,c),
(1882,444,o),
(2117,423,o),
(2339,423,cs),
(2483,423,o),
(2619,430,o),
(2737,454,cs),
(2796,465,o),
(2850,481,o),
(2899,501,cs),
(3040,559,o),
(3135,665,o),
(3135,843,cs),
(3135,1216,o),
(2719,1291,o),
(1720,1291,cs),
(100,1291,l),
(100,1197,l),
(223,1197,o),
(321,1186,o),
(397,1157,cs),
(435,1142,o),
(468,1122,o),
(496,1097,cs),
(581,1017,o),
(615,879,o),
(615,668,cs),
(615,240,o),
(500,107,o),
(100,94,c),
(100,0,l)
);
},
{
closed = 1;
nodes = (
(1655,619,l),
(1655,668,l),
(1655,1170,l),
(1780,1165,o),
(1883,1148,o),
(1953,1104,cs),
(2023,1059,o),
(2061,988,o),
(2061,873,cs),
(2061,769,o),
(2020,699,o),
(1949,652,cs),
(1877,604,o),
(1776,581,o),
(1657,573,c)
);
}
);
width = 3210;
}
);
note = P;
unicode = 80;
},
{
glyphname = Thorn;
kernLeft = KO_H;
kernRight = KO_Thorn;
lastChange = "2023-11-30 04:50:27 +0000";
layers = (
{
anchors = (
{
name = bottom;
pos = (1653,0);
},
{
name = top;
pos = (1653,1291);
}
);
layerId = m01;
shapes = (
{
closed = 1;
nodes = (
(2169,0,l),
(2169,94,l),
(1958,101,o),
(1826,141,o),
(1749,240,c),
(2033,241,o),
(2293,247,o),
(2513,268,cs),
(2622,278,o),
(2721,293,o),
(2810,312,cs),
(3069,367,o),
(3231,471,o),
(3231,658,cs),
(3231,818,o),
(3109,917,o),
(2862,975,cs),
(2615,1033,o),
(2244,1051,o),
(1747,1051,cs),
(1735,1051,l),
(1814,1165,o),
(1953,1197,o),
(2169,1197,c),
(2169,1291,l),
(100,1291,l),
(100,1197,l),
(223,1197,o),
(321,1186,o),
(397,1157,cs),
(435,1142,o),
(468,1122,o),
(496,1097,cs),
(581,1017,o),
(615,879,o),
(615,668,cs),
(615,636,ls),
(610,227,o),
(488,107,o),
(100,94,c),
(100,0,l)
);
},
{
closed = 1;
nodes = (
(1668,432,o),
(1655,523,o),
(1655,636,cs),
(1655,668,ls),
(1655,776,o),
(1663,862,o),
(1682,931,c),
(1942,928,o),
(2137,900,o),
(2137,648,cs),
(2137,393,o),
(1930,362,o),
(1689,359,c)
);
}
);
width = 3306;
}
);
note = Thorn;
unicode = 222;
},
{
glyphname = Q;
kernLeft = KO_Q;
kernRight = KO_Q;
lastChange = "2023-11-30 04:50:27 +0000";
layers = (
{
anchors = (
{
name = bottom;
pos = (1512,0);
},
{
name = top;
pos = (1512,1291);
}
);
layerId = m01;
shapes = (
{
closed = 1;
nodes = (
(1943,-491,o),
(2056,-457,o),
(2224,-419,c),
(2224,-337,l),
(2191,-341,o),
(2157,-344,o),
(2124,-344,cs),
(1998,-344,o),
(1879,-326,o),
(1789,-287,cs),
(1695,-246,o),
(1637,-181,o),
(1637,-90,cs),
(1637,-73,ls),
(1637,-67,o),
(1638,-61,o),
(1639,-55,c),
(1855,-50,o),
(2069,-33,o),
(2259,10,cs),
(2354,31,o),
(2441,59,o),
(2522,94,cs),
(2766,198,o),
(2918,375,o),
(2918,645,cs),
(2918,841,o),
(2838,984,o),
(2707,1088,cs),
(2641,1140,o),
(2563,1183,o),
(2474,1216,cs),
(2294,1283,o),
(2083,1321,o),
(1855,1336,cs),
(1740,1343,o),
(1626,1347,o),
(1511,1347,cs),
(1282,1347,o),
(1048,1335,o),
(840,1296,cs),
(736,1276,o),
(639,1249,o),
(550,1216,cs),
(370,1149,o),
(237,1046,o),
(162,901,cs),
(124,828,o),
(105,743,o),
(105,645,cs),
(105,386,o),
(246,211,o),
(474,106,cs),
(625,37,o),
(804,-7,o),
(1003,-30,cs),
(1102,-41,o),
(1204,-49,o),
(1307,-53,c),
(1223,-108,o),
(1160,-193,o),
(1160,-276,cs),
(1160,-446,o),
(1416,-491,o),
(1657,-491,cs)
);
},
{
closed = 1;
nodes = (
(1310,56,o),
(1270,315,o),
(1270,645,cs),
(1270,799,o),
(1281,940,o),
(1315,1051,cs),
(1349,1163,o),
(1410,1234,o),
(1506,1234,cs),
(1699,1234,o),
(1753,984,o),
(1753,645,cs),
(1753,315,o),
(1702,56,o),
(1506,56,cs)
);
}
);
width = 3023;
}
);
note = Q;
unicode = 81;
},
{
glyphname = R;
kernLeft = KO_H;
kernRight = KO_R;
lastChange = "2023-11-30 04:50:27 +0000";
layers = (
{
anchors = (
{
name = bottom;
pos = (1700,0);
},
{
name = top;
pos = (1700,1291);
}
);
layerId = m01;
shapes = (
{
closed = 1;
nodes = (
(2754,-57,o),
(2848,-53,o),
(2958,-44,cs),
(3068,-36,o),
(3193,-23,o),
(3344,-6,c),
(3344,95,l),
(3201,95,o),
(3164,123,o),
(3137,230,cs),
(3114,322,o),
(3090,397,o),
(3049,455,cs),
(3028,484,o),
(3002,509,o),
(2971,530,cs),
(2908,572,o),
(2817,599,o),
(2686,612,cs),
(2621,618,o),
(2543,621,o),
(2454,621,cs),
(2029,621,ls),
(2229,622,o),
(2416,631,o),
(2577,652,cs),
(2658,663,o),
(2731,677,o),
(2798,695,cs),
(2994,747,o),
(3117,836,o),
(3117,976,cs),
(3117,1119,o),
(3023,1198,o),
(2809,1239,cs),
(2664,1267,o),
(2458,1282,o),
(2185,1287,cs),
(2048,1290,o),
(1893,1291,o),
(1720,1291,cs),
(100,1291,l),
(100,1197,l),
(223,1197,o),
(321,1186,o),
(397,1157,cs),
(435,1142,o),
(468,1122,o),
(496,1097,cs),
(581,1017,o),
(615,879,o),
(615,668,cs),
(615,240,o),
(500,107,o),
(100,94,c),
(100,0,l),
(1899,0,l),
(1899,94,l),
(1811,94,o),
(1753,125,o),
(1715,201,cs),
(1677,277,o),
(1660,398,o),
(1656,578,c),
(1796,570,o),
(1879,547,o),
(1931,499,cs),
(1982,451,o),
(2002,379,o),
(2014,271,cs),
(2023,182,o),
(2036,115,o),
(2069,67,cs),
(2085,42,o),
(2107,22,o),
(2136,7,cs),
(2192,-25,o),
(2285,-44,o),
(2422,-51,cs),
(2490,-55,o),
(2572,-57,o),
(2669,-57,cs)
);
},
{
closed = 1;
nodes = (
(1655,1171,l),
(1790,1167,o),
(1902,1155,o),
(1982,1120,cs),
(2061,1084,o),
(2106,1027,o),
(2106,932,cs),
(2106,750,o),
(1912,699,o),
(1655,688,c)
);
}
);
width = 3399;
}
);
note = R;
unicode = 82;
},
{
glyphname = S;
kernLeft = KO_S;
kernRight = KO_S;
lastChange = "2023-11-30 04:50:27 +0000";
layers = (
{
anchors = (
{
name = bottom;
pos = (1420,0);
},
{
name = top;
pos = (1420,1291);
}
);
layerId = m01;
shapes = (
{
closed = 1;
nodes = (
(435,-22,o),
(497,-13,o),
(639,-13,cs),
(987,-13,o),
(1235,-57,o),
(1574,-57,cs),
(1864,-57,o),
(2139,-44,o),
(2371,21,cs),
(2590,82,o),
(2737,199,o),
(2737,393,cs),
(2737,677,o),
(2512,784,o),
(2233,834,cs),
(2095,858,o),
(1947,869,o),
(1809,881,cs),
(1671,893,o),
(1545,907,o),
(1453,937,cs),
(1361,967,o),
(1304,1014,o),
(1304,1093,cs),
(1304,1129,o),
(1328,1165,o),
(1375,1191,cs),
(1422,1217,o),
(1489,1234,o),
(1577,1234,cs),
(1811,1234,o),
(2025,1192,o),
(2187,1131,cs),
(2350,1069,o),
(2462,989,o),
(2490,911,c),
(2603,911,l),
(2603,958,o),
(2595,1043,o),
(2581,1131,cs),
(2567,1219,o),
(2548,1304,o),
(2527,1347,c),
(2393,1313,o),
(2336,1303,o),
(2187,1303,cs),
(2072,1303,o),
(1943,1314,o),
(1803,1325,cs),
(1662,1336,o),
(1510,1347,o),
(1353,1347,cs),
(1060,1347,o),
(779,1322,o),
(557,1248,cs),
(344,1177,o),
(205,1054,o),
(205,873,cs),
(205,738,o),
(265,645,o),
(362,580,cs),
(458,515,o),
(591,476,o),
(736,452,cs),
(880,427,o),
(1036,417,o),
(1181,406,cs),
(1325,395,o),
(1458,384,o),
(1555,360,cs),
(1651,336,o),
(1711,297,o),
(1711,232,cs),
(1711,143,o),
(1596,72,o),
(1211,72,cs),
(1029,72,o),
(846,94,o),
(686,147,cs),
(523,201,o),
(391,291,o),
(326,423,c),
(224,423,l),
(224,376,o),
(231,280,o),
(247,181,cs),
(262,81,o),
(280,-14,o),
(302,-57,c)
);
}
);
width = 2840;
}
);
note = S;
unicode = 83;
userData = {
KernOnName = S;
};
},
{
glyphname = Germandbls;
kernLeft = KO_H;
kernRight = KO_Germandbls;
lastChange = "2023-11-17 21:25:15 +0000";
layers = (
{
anchors = (
{
name = bottom;
pos = (1826,0);
},
{
name = top;
pos = (1875,1291);
}
);
layerId = m01;
shapes = (
{
closed = 1;
nodes = (
(1781,0,l),
(1781,94,l),
(1749,99,o),
(1720,131,o),
(1698,204,cs),
(1676,277,o),
(1660,393,o),
(1656,565,cs),
(1655,692,ls),
(1655,901,o),
(1660,1029,o),
(1678,1102,cs),
(1693,1166,o),
(1719,1194,o),
(1762,1196,cs),
(1872,1202,o),
(1971,1198,o),
(2090,1199,c),
(1781,795,l),
(1781,512,o),
(2009,401,o),
(2241,333,cs),
(2364,296,o),
(2461,279,o),
(2557,248,cs),
(2643,220,o),
(2700,188,o),
(2700,133,cs),
(2700,108,o),
(2682,90,o),
(2645,80,cs),
(2609,69,o),
(2556,64,o),
(2487,64,cs),
(2343,64,o),
(2227,92,o),
(2137,133,cs),
(2048,173,o),
(1984,225,o),
(1948,273,c),
(1835,273,l),
(1835,244,o),
(1841,179,o),
(1850,108,cs),
(1859,37,o),
(1874,-27,o),
(1886,-56,c),
(1944,-14,o),
(2049,1,o),
(2140,1,cs),
(2233,1,o),
(2297,-4,o),
(2362,-12,cs),
(2425,-20,o),
(2508,-31,o),
(2628,-38,cs),
(2719,-42,o),
(2806,-45,o),
(2891,-45,cs),
(3066,-45,o),
(3226,-15,o),
(3341,49,cs),
(3456,113,o),
(3527,210,o),
(3527,346,cs),
(3527,584,o),
(3356,687,o),
(3050,763,c),
(3132,857,o),
(3198,932,o),
(3251,990,cs),
(3383,1133,o),
(3459,1197,o),
(3547,1197,c),
(3547,1291,l),
(100,1291,l),
(100,1197,l),
(223,1197,o),
(321,1186,o),
(397,1157,cs),
(435,1142,o),
(468,1122,o),
(496,1097,cs),
(581,1017,o),
(615,879,o),
(615,668,cs),
(615,240,o),
(500,107,o),
(100,94,c),
(100,0,l)
);
}
);
width = 3750;
}
);
unicode = 7838;
},
{
glyphname = T;
kernLeft = KO_T;
kernRight = KO_T;
lastChange = "2023-11-30 04:50:27 +0000";
layers = (
{
anchors = (
{
name = bottom;
pos = (1435,0);
},
{
name = center;
pos = (1435,646);
},
{
name = top;
pos = (1435,1291);
}
);
layerId = m01;
shapes = (
{
closed = 1;
nodes = (
(2468,0,l),
(2468,94,l),
(2081,107,o),
(1960,228,o),
(1955,636,cs),
(1955,1169,l),
(2248,1110,o),
(2553,888,o),
(2649,619,c),
(2754,619,l),
(2754,688,o),
(2751,820,o),
(2742,951,cs),
(2732,1080,o),
(2721,1206,o),
(2703,1291,c),
(167,1291,l),
(149,1206,o),
(138,1080,o),
(129,951,cs),
(119,820,o),
(116,688,o),
(116,619,c),
(221,619,l),
(310,909,o),
(601,1111,o),
(915,1169,c),
(915,668,ls),
(915,240,o),
(800,107,o),
(400,94,c),
(400,0,l)
);
}
);
width = 2870;
}
);
note = T;
unicode = 84;
userData = {
KernOnName = T;
};
},
{
glyphname = U;
kernLeft = KO_U;
kernRight = KO_U;
lastChange = "2023-11-30 05:30:08 +0000";
layers = (
{
anchors = (
{
name = bottom;
pos = (1725,0);
},
{
name = ogonek;
pos = (2529,28);
},
{
name = top;
pos = (2014,1291);
},
{
name = topright;
pos = (3430,1291);
}
);
layerId = m01;
shapes = (
{
closed = 1;
nodes = (
(2094,-57,o),
(2271,-46,o),
(2419,-7,cs),
(2493,12,o),
(2559,39,o),
(2618,74,cs),
(2795,178,o),
(2891,372,o),
(2891,681,cs),
(2891,900,o),
(2932,1030,o),
(3019,1104,cs),
(3106,1178,o),
(3239,1197,o),
(3423,1197,c),
(3423,1291,l),
(2371,1291,l),
(2371,1197,l),
(2496,1197,o),
(2592,1164,o),
(2656,1080,cs),
(2719,996,o),
(2751,861,o),
(2751,654,cs),
(2751,287,o),
(2542,119,o),
(2257,119,cs),
(2125,119,o),
(1993,164,o),
(1896,256,cs),
(1799,347,o),
(1734,483,o),
(1734,663,cs),
(1734,864,o),
(1767,998,o),
(1831,1081,cs),
(1894,1164,o),
(1989,1197,o),
(2113,1197,c),
(2113,1291,l),
(90,1291,l),
(90,1197,l),
(447,1197,o),
(605,1112,o),
(605,678,cs),
(605,615,ls),
(605,403,o),
(676,258,o),
(796,158,cs),
(855,108,o),
(926,69,o),
(1008,41,cs),
(1171,-16,o),
(1363,-44,o),
(1575,-51,cs),
(1680,-55,o),
(1787,-57,o),
(1894,-57,cs)
);
}
);
width = 3450;
}
);
note = U;
unicode = 85;
},
{
glyphname = V;
kernLeft = KO_V;
kernRight = KO_V;
lastChange = "2023-11-30 04:50:27 +0000";
layers = (
{
anchors = (
{
name = bottom;
pos = (1555,0);
},
{
name = top;
pos = (1555,1291);
}
);
layerId = m01;
shapes = (
{
closed = 1;
nodes = (
(2112,0,l),
(2223,264,o),
(2322,485,o),
(2419,662,cs),
(2467,751,o),
(2515,829,o),
(2563,896,cs),
(2704,1092,o),
(2858,1197,o),
(3055,1197,c),
(3055,1291,l),
(2153,1291,l),
(2153,1197,l),
(2246,1197,o),
(2307,1186,o),
(2346,1163,cs),
(2385,1139,o),
(2400,1105,o),
(2400,1058,cs),
(2400,1003,o),
(2328,826,o),
(2244,637,cs),
(2202,543,o),
(2155,448,o),
(2114,366,cs),
(2073,284,o),
(2035,216,o),
(2010,177,c),
(1917,349,o),
(1825,537,o),
(1750,713,cs),
(1672,891,o),
(1627,1016,o),
(1627,1063,cs),
(1627,1169,o),
(1733,1197,o),
(1875,1197,c),
(1875,1291,l),
(100,1291,l),
(100,1197,l),
(361,1197,o),
(648,729,o),
(982,0,c)
);
}
);
width = 3110;
}
);
note = V;
unicode = 86;
userData = {
KernOnName = V;
};
},
{
glyphname = W;
kernLeft = KO_W;
kernRight = KO_W;
lastChange = "2023-11-30 04:50:27 +0000";
layers = (
{
anchors = (
{
name = bottom;
pos = (2133,0);
},
{
name = top;
pos = (2133,1291);
}
);
layerId = m01;
shapes = (
{
closed = 1;
nodes = (
(1891,0,l),
(2026,424,ls),
(2065,550,o),
(2105,661,o),
(2145,757,c),
(2214,564,o),
(2294,319,o),
(2390,0,c),
(3431,0,l),
(3514,264,o),
(3583,485,o),
(3653,662,cs),
(3688,751,o),
(3724,829,o),
(3761,896,cs),
(3868,1090,o),
(4001,1197,o),
(4211,1197,c),
(4211,1291,l),
(3414,1291,l),
(3414,1196,l),
(3511,1196,o),
(3557,1121,o),
(3557,1058,cs),
(3557,973,o),
(3527,824,o),
(3486,677,cs),
(3440,516,o),
(3392,373,o),
(3342,252,c),
(3262,420,o),
(3205,599,o),
(3169,748,cs),
(3132,896,o),
(3116,1015,o),
(3116,1063,cs),
(3116,1127,o),
(3157,1195,o),
(3250,1195,c),
(3250,1291,l),
(1873,1291,l),
(1873,1191,l),
(1970,1191,o),
(2008,1130,o),
(2008,1027,cs),
(2008,857,o),
(1904,574,o),
(1797,262,c),
(1718,425,o),
(1659,605,o),
(1621,752,cs),
(1583,895,o),
(1563,1013,o),
(1563,1063,cs),
(1563,1140,o),
(1604,1194,o),
(1687,1194,c),
(1687,1291,l),
(100,1291,l),
(100,1197,l),
(251,1197,o),
(404,1137,o),
(497,970,cs),
(572,834,o),
(713,434,o),
(823,0,c)
);
}
);
width = 4266;
}
);
note = W;
unicode = 87;
userData = {
KernOnName = W;
};
},
{
glyphname = X;
kernLeft = KO_X;
kernRight = KO_X;
lastChange = "2023-11-30 04:50:27 +0000";
layers = (
{
anchors = (
{
name = bottom;
pos = (1605,0);
},
{
name = top;
pos = (1605,1291);
}
);
layerId = m01;
shapes = (
{
closed = 1;
nodes = (
(952,0,l),
(952,94,l),
(813,94,o),
(744,130,o),
(744,201,cs),
(744,272,o),
(927,445,o),
(1091,577,c),
(1164,485,o),
(1230,399,o),
(1277,332,cs),
(1327,260,o),
(1352,218,o),
(1352,205,cs),
(1352,120,o),
(1252,94,o),
(1147,94,c),
(1147,0,l),
(3154,0,l),
(3154,94,l),
(3023,94,o),
(2848,126,o),
(2691,222,cs),
(2549,308,o),
(2347,524,o),
(2188,711,c),
(2349,832,o),
(2512,947,o),
(2699,1055,cs),
(2858,1145,o),
(2948,1197,o),
(3061,1197,c),
(3061,1291,l),
(2244,1291,l),
(2244,1197,l),
(2359,1197,o),
(2416,1161,o),
(2416,1090,cs),
(2416,1059,o),
(2381,1013,o),
(2327,960,cs),
(2273,907,o),
(2198,848,o),
(2121,792,c),
(2056,872,o),
(2000,945,o),
(1960,1001,cs),
(1918,1060,o),
(1897,1095,o),
(1897,1105,cs),
(1897,1169,o),
(1969,1197,o),
(2060,1197,c),
(2060,1291,l),
(137,1291,l),
(137,1197,l),
(260,1197,o),
(445,1168,o),
(566,1098,cs),
(629,1061,o),
(705,997,o),
(783,921,cs),
(861,844,o),
(943,753,o),
(1019,664,c),
(837,505,o),
(662,372,o),
(496,265,cs),
(325,155,o),
(186,94,o),
(100,94,c),
(100,0,l)
);
}
);
width = 3209;
}
);
note = X;
unicode = 88;
userData = {
KernOnName = X;
};
},
{
glyphname = Y;
kernLeft = KO_Y;
kernRight = KO_Y;
lastChange = "2023-11-30 04:50:27 +0000";
layers = (
{
anchors = (
{
name = bottom;
pos = (1589,0);
},
{
name = top;
pos = (1589,1291);
},
{
name = topleft;
pos = (20,1291);
}
);
layerId = m01;
shapes = (
{
closed = 1;
nodes = (
(2740,0,l),
(2740,94,l),
(2579,94,o),
(2432,117,o),
(2326,169,cs),
(2220,221,o),
(2153,303,o),
(2153,422,cs),
(2153,534,o),
(2261,720,o),
(2437,888,cs),
(2555,1000,o),
(2699,1094,o),
(2864,1151,cs),
(2947,1180,o),
(3033,1195,o),
(3123,1197,c),
(3123,1291,l),
(2083,1291,l),
(2083,1197,l),
(2243,1197,o),
(2285,1129,o),
(2285,1058,cs),
(2285,960,o),
(2123,719,o),
(2017,564,c),
(1924,687,o),
(1848,790,o),
(1796,874,cs),
(1744,957,o),
(1716,1020,o),
(1716,1063,cs),
(1716,1146,o),
(1781,1197,o),
(1898,1197,c),
(1898,1291,l),
(100,1291,l),
(100,1197,l),
(250,1197,o),
(424,1130,o),
(598,1007,cs),
(760,892,o),
(918,730,o),
(1042,542,c),
(1042,404,ls),
(1042,345,o),
(1003,271,o),
(915,209,cs),
(827,147,o),
(690,98,o),
(497,94,c),
(497,0,l)
);
}
);
width = 3178;
}
);
note = Y;
unicode = 89;
userData = {
KernOnName = Y;
};
},
{
color = 1;
glyphname = Yhook;
kernLeft = KO_Y;
kernRight = KO_Yhook;
lastChange = "2023-11-17 22:49:17 +0000";
layers = (
{
anchors = (
{
name = bottom;
pos = (1781,0);
},
{
name = top;
pos = (1968,1291);
},
{
name = topleft;
pos = (20,1291);
}
);
layerId = m01;
shapes = (
{
closed = 1;
nodes = (
(2740,0,l),
(2740,94,l),
(2579,94,o),
(2432,117,o),
(2326,169,cs),
(2220,221,o),
(2153,303,o),
(2153,422,cs),
(2153,534,o),
(2261,720,o),
(2437,888,cs),
(2446,897,ls),
(2640,1090,o),
(2753,1173,o),
(3133,1173,cs),
(3198,1173,o),
(3260,1161,o),
(3308,1141,c),
(3176,1141,o),
(3075,1121,o),
(3009,1087,cs),
(2943,1053,o),
(2910,1006,o),
(2910,954,cs),
(2910,901,o),
(2961,852,o),
(3045,816,cs),
(3129,780,o),
(3245,757,o),
(3374,757,cs),
(3517,757,o),
(3628,783,o),
(3704,827,cs),
(3780,870,o),
(3821,929,o),
(3821,1017,cs),
(3821,1193,o),
(3516,1311,o),
(3176,1311,cs),
(2740,1311,o),
(2521,1134,o),
(2360,992,c),
(2280,932,o),
(2123,719,o),
(2017,564,c),
(1924,687,o),
(1848,790,o),
(1796,874,cs),
(1744,957,o),
(1716,1020,o),
(1716,1063,cs),
(1716,1146,o),
(1781,1197,o),
(1898,1197,c),
(1898,1291,l),
(100,1291,l),
(100,1197,l),
(250,1197,o),
(424,1130,o),
(598,1007,cs),
(760,892,o),
(918,730,o),
(1042,542,c),
(1042,404,ls),
(1042,345,o),
(1003,271,o),
(915,209,cs),
(827,147,o),
(690,98,o),
(497,94,c),
(497,0,l)
);
}
);
width = 3721;
}
);
unicode = 435;
},
{
glyphname = Z;
kernLeft = KO_Z;
kernRight = KO_Z;
lastChange = "2023-11-30 04:50:27 +0000";
layers = (
{
anchors = (
{
name = bottom;
pos = (1371,0);
},
{
name = center;
pos = (1371,646);
},
{
name = top;
pos = (1371,1291);
}
);
layerId = m01;
shapes = (
{
closed = 1;
nodes = (
(2677,0,l),
(2677,508,l),
(2631,507,l),
(2584,507,l),
(2584,179,o),
(2314,121,o),
(1604,113,c),
(1737,262,o),
(1853,392,o),
(1950,503,cs),
(2144,726,o),
(2281,885,o),
(2377,990,cs),
(2509,1133,o),
(2585,1197,o),
(2673,1197,c),
(2673,1291,l),
(205,1291,l),
(205,783,l),
(253,783,l),
(286,784,l),
(301,784,l),
(301,896,o),
(324,978,o),
(380,1037,cs),
(408,1066,o),
(445,1091,o),
(492,1110,cs),
(584,1148,o),
(718,1169,o),
(901,1178,cs),
(992,1183,o),
(1097,1185,o),
(1216,1186,c),
(949,887,o),
(752,669,o),
(604,509,cs),
(529,429,o),
(466,363,o),
(413,312,cs),
(263,164,o),
(178,108,o),
(95,108,c),
(95,0,l)
);
}
);
width = 2742;
}
);
note = Z;
unicode = 90;
userData = {
KernOnName = Z;
};
},
{
glyphname = Eng.loclNSM;
lastChange = "2023-11-30 04:50:27 +0000";
layers = (
{
anchors = (
{
name = bottom;
pos = (4489,0);
},
{
name = top;
pos = (4489,1291);
}
);
layerId = m01;
shapes = (
{
closed = 1;
nodes = (
(1230,0,l),
(1230,94,l),
(835,107,o),
(716,236,o),
(716,668,cs),
(716,768,o),
(723,848,o),
(739,915,c),
(1783,19,l),
(1779,-158,o),
(1760,-277,o),
(1721,-355,cs),
(1676,-444,o),
(1602,-477,o),
(1491,-477,cs),
(1385,-477,o),
(1308,-465,o),
(1140,-432,c),
(1122,-535,l),
(1237,-570,o),
(1365,-604,o),
(1520,-628,cs),
(1675,-653,o),
(1858,-669,o),
(2083,-669,cs),
(2228,-669,o),
(2363,-662,o),
(2478,-638,cs),
(2535,-627,o),
(2587,-611,o),
(2634,-591,cs),
(2761,-536,o),
(2857,-433,o),
(2857,-248,cs),
(2857,-108,o),
(2836,14,o),
(2831,143,c),
(2831,668,ls),
(2831,813,o),
(2842,922,o),
(2870,1000,cs),
(2884,1039,o),
(2903,1071,o),
(2926,1097,cs),
(2972,1148,o),
(3040,1176,o),
(3133,1188,cs),
(3180,1194,o),
(3234,1197,o),
(3295,1197,c),
(3295,1291,l),
(2195,1291,l),
(2195,1197,l),
(2561,1197,o),
(2709,1107,o),
(2709,668,cs),
(2707,575,l),
(1826,1291,l),
(80,1291,l),
(80,1197,l),
(203,1197,o),
(301,1186,o),
(377,1157,cs),
(415,1142,o),
(448,1122,o),
(476,1097,cs),
(561,1017,o),
(595,879,o),
(595,668,cs),
(595,240,o),
(480,107,o),
(80,94,c),
(80,0,l)
);
}
);
width = 3330;
}
);
metricLeft = N;
metricRight = N;
},
{
glyphname = a;
kernLeft = KO_a;
kernRight = KO_a;
lastChange = "2023-11-30 04:50:27 +0000";
layers = (
{
anchors = (
{
name = bottom;
pos = (1427,0);
},
{
name = ogonek;
pos = (2568,10);
},
{
name = top;
pos = (1427,1047);
}
);
layerId = m01;
shapes = (
{
closed = 1;
nodes = (
(929,-45,o),
(1105,-25,o),
(1234,5,cs),
(1362,35,o),
(1445,73,o),
(1501,112,c),
(1586,-26,o),
(1796,-45,o),
(2099,-45,cs),
(2288,-45,o),
(2454,-36,o),
(2596,21,cs),
(2713,67,o),
(2814,164,o),
(2814,356,c),
(2701,356,l),
(2696,227,o),
(2624,157,o),
(2540,157,cs),
(2495,157,o),
(2453,168,o),
(2424,210,cs),
(2395,252,o),
(2377,325,o),
(2377,449,cs),
(2377,688,ls),
(2377,883,o),
(2218,989,o),
(1990,1038,cs),
(1745,1091,o),
(1467,1092,o),
(1187,1092,cs),
(977,1092,o),
(779,1071,o),
(612,1028,cs),
(440,984,o),
(317,913,o),
(317,816,cs),
(317,753,o),
(369,698,o),
(452,659,cs),
(535,619,o),
(645,595,o),
(764,595,cs),
(1021,595,o),
(1227,663,o),
(1227,796,cs),
(1227,912,o),
(1059,988,o),
(804,988,c),
(884,993,o),
(983,996,o),
(1078,996,cs),
(1209,996,o),
(1305,977,o),
(1367,933,cs),
(1429,888,o),
(1458,816,o),
(1458,709,cs),
(1458,492,l),
(1323,508,o),
(1051,519,o),
(761,519,cs),
(600,519,o),
(441,503,o),
(322,459,cs),
(203,414,o),
(125,338,o),
(125,221,cs),
(125,54,o),
(374,-45,o),
(689,-45,cs)
);
},
{
closed = 1;
nodes = (
(1052,142,o),
(1010,217,o),
(1010,270,cs),
(1010,323,o),
(1034,355,o),
(1080,375,cs),
(1126,394,o),
(1195,399,o),
(1286,399,cs),
(1341,399,o),
(1401,399,o),
(1458,396,c),
(1458,289,ls),
(1458,251,o),
(1461,218,o),
(1468,191,c),
(1354,144,o),
(1253,142,o),
(1176,142,cs)
);
}
);
width = 2814;
}
);
note = a;
unicode = 97;
userData = {
KernOnName = a;
};
},
{
glyphname = ae;
kernLeft = KO_ae;
kernRight = KO_ae;
lastChange = "2023-11-30 04:50:27 +0000";
layers = (
{
anchors = (
{
name = bottom;
pos = (1871,0);
},
{
name = top;
pos = (1871,1047);
}
);
layerId = m01;
shapes = (
{
closed = 1;
nodes = (
(842,-45,o),
(1023,-30,o),
(1180,4,cs),
(1336,38,o),
(1468,90,o),
(1545,169,c),
(1736,15,o),
(2105,-45,o),
(2604,-45,cs),
(2864,-45,o),
(3112,-13,o),
(3300,53,cs),
(3487,118,o),
(3614,224,o),
(3614,371,c),
(3483,371,l),
(3483,283,o),
(3392,212,o),
(3262,168,cs),
(3132,123,o),
(2971,99,o),
(2810,99,cs),
(2477,99,o),
(2329,210,o),
(2310,517,c),
(3614,517,l),
(3614,720,o),
(3502,864,o),
(3317,957,cs),
(3132,1049,o),
(2874,1092,o),
(2581,1092,cs),
(2322,1092,o),
(2080,1061,o),
(1880,997,c),
(1701,1053,o),
(1466,1092,o),
(1167,1092,cs),
(935,1092,o),
(723,1071,o),
(568,1028,cs),
(413,985,o),
(317,923,o),
(317,839,cs),
(317,713,o),
(482,595,o),
(764,595,cs),
(893,595,o),
(1009,616,o),
(1093,652,cs),
(1176,688,o),
(1227,737,o),
(1227,796,cs),
(1227,844,o),
(1196,891,o),
(1133,927,cs),
(1069,962,o),
(974,985,o),
(849,988,c),
(1224,988,o),
(1388,983,o),
(1388,709,cs),
(1388,493,l),
(1320,502,o),
(1227,509,o),
(1120,513,cs),
(1012,517,o),
(890,519,o),
(761,519,cs),
(606,519,o),
(460,506,o),
(331,462,cs),
(207,420,o),
(125,342,o),
(125,228,cs),
(125,119,o),
(199,46,o),
(310,7,cs),
(417,-32,o),
(542,-45,o),
(667,-45,cs)
);
},
{
closed = 1;
nodes = (
(1042,171,o),
(960,200,o),
(960,280,cs),
(960,328,o),
(996,359,o),
(1055,378,cs),
(1114,397,o),
(1195,403,o),
(1286,403,cs),
(1323,403,o),
(1361,402,o),
(1400,400,c),
(1411,345,o),
(1432,297,o),
(1463,254,c),
(1397,210,o),
(1254,171,o),
(1142,171,cs)
);
},
{
closed = 1;
nodes = (
(2326,847,o),
(2410,970,o),
(2519,970,cs),
(2571,970,o),
(2620,935,o),
(2656,878,cs),
(2691,821,o),
(2714,740,o),
(2714,649,c),
(2310,649,l)
);
}
);
width = 3742;
}
);
note = ae;
unicode = 230;
},
{
glyphname = b;
kernLeft = KO_b;
kernRight = KO_b;
lastChange = "2023-11-30 04:50:27 +0000";
layers = (
{
anchors = (
{
name = bottom;
pos = (1333,0);
},
{
name = center;
pos = (1333,524);
},
{
name = top;
pos = (1850,1108);
}
);
layerId = m01;
shapes = (
{
closed = 1;
nodes = (
(1960,-45,o),
(2176,4,o),
(2324,101,cs),
(2472,197,o),
(2553,343,o),
(2553,536,cs),
(2553,709,o),
(2476,848,o),
(2340,944,cs),
(2204,1040,o),
(2009,1092,o),
(1776,1092,cs),
(1454,1092,o),
(1264,1024,o),
(1154,940,c),
(1154,1490,l),
(-188,1400,l),
(-188,1307,l),
(-23,1307,o),
(92,1283,o),
(167,1196,cs),
(242,1108,o),
(275,957,o),
(275,704,cs),
(275,484,o),
(275,320,o),
(268,220,cs),
(261,124,o),
(250,68,o),
(230,27,c),
(314,-18,l),
(410,15,o),
(554,26,o),
(770,26,cs),
(926,26,o),
(1062,9,o),
(1206,-9,cs),
(1350,-27,o),
(1503,-45,o),
(1692,-45,cs)
);
},
{
closed = 1;
nodes = (
(1291,83,o),
(1222,98,o),
(1154,125,c),
(1154,785,l),
(1204,860,o),
(1295,911,o),
(1398,911,cs),
(1462,911,o),
(1502,871,o),
(1527,800,cs),
(1552,729,o),
(1561,626,o),
(1561,502,cs),
(1561,195,o),
(1517,83,o),
(1367,83,cs)
);
}
);
width = 2666;
}
);
note = b;
unicode = 98;
userData = {
KernOnName = b;
};
},
{
color = 1;
glyphname = bhook;
kernLeft = KO_bhook;
kernRight = KO_bhook;
lastChange = "2023-11-17 21:02:32 +0000";
layers = (
{
layerId = m01;
shapes = (
{
closed = 1;
nodes = (
(1542,-45,o),
(1758,4,o),
(1906,101,cs),
(2054,197,o),
(2135,343,o),
(2135,536,cs),
(2135,709,o),
(2058,848,o),
(1922,944,cs),
(1786,1040,o),
(1591,1092,o),
(1358,1092,cs),
(1036,1092,o),
(846,1024,o),
(736,940,c),
(722,1083,o),
(697,1147,o),
(697,1291,cs),
(697,1435,o),
(751,1543,o),
(1157,1543,cs),
(1227,1543,o),
(1284,1534,o),
(1332,1511,c),
(1200,1511,o),
(1100,1491,o),
(1034,1457,cs),
(968,1423,o),
(934,1376,o),
(934,1324,cs),
(934,1271,o),
(985,1222,o),
(1069,1186,cs),
(1153,1150,o),
(1269,1127,o),
(1398,1127,cs),
(1541,1127,o),
(1652,1153,o),
(1728,1197,cs),
(1804,1240,o),
(1845,1299,o),
(1845,1366,cs),
(1845,1542,o),
(1618,1660,o),
(980,1660,cs),
(797,1660,o),
(441,1661,o),
(167,1564,cs),
(-37,1492,o),
(-174,1360,o),
(-158,1083,cs),
(-145,864,l),
(-145,644,o),
(-143,320,o),
(-150,220,cs),
(-157,124,o),
(-168,68,o),
(-188,27,c),
(-104,-18,l),
(-8,15,o),
(136,26,o),
(352,26,cs),
(508,26,o),
(644,9,o),
(788,-9,cs),
(932,-27,o),
(1085,-45,o),
(1274,-45,cs)
);
},
{
closed = 1;
nodes = (
(873,83,o),
(804,98,o),
(736,125,c),
(736,785,l),
(786,860,o),
(877,911,o),
(980,911,cs),
(1044,911,o),
(1084,871,o),
(1109,800,cs),
(1134,729,o),
(1143,626,o),
(1143,502,cs),
(1143,195,o),
(1099,83,o),
(949,83,cs)
);
}
);
width = 2248;
}
);
metricLeft = b;
metricRight = b;
unicode = 595;
},
{
glyphname = c;
kernLeft = KO_c;
kernRight = KO_c;
lastChange = "2023-11-30 04:50:27 +0000";
layers = (
{
anchors = (
{
name = bottom;
pos = (1243,0);
},
{
name = top;
pos = (1243,1047);
}
);
layerId = m01;
shapes = (
{
closed = 1;
nodes = (
(1709,-45,o),
(1937,-9,o),
(2110,59,cs),
(2287,128,o),
(2397,233,o),
(2397,371,c),
(2274,371,l),
(2274,302,o),
(2203,240,o),
(2094,194,cs),
(1985,148,o),
(1836,119,o),
(1683,119,cs),
(1535,119,o),
(1396,156,o),
(1290,228,cs),
(1184,300,o),
(1110,413,o),
(1110,570,cs),
(1110,889,o),
(1341,989,o),
(1585,989,cs),
(1669,989,o),
(1752,980,o),
(1828,959,c),
(1563,959,o),
(1426,854,o),
(1426,750,cs),
(1426,627,o),
(1641,539,o),
(1909,539,cs),
(2052,539,o),
(2164,570,o),
(2240,618,cs),
(2316,665,o),
(2357,728,o),
(2357,793,cs),
(2357,887,o),
(2244,962,o),
(2074,1013,cs),
(1906,1063,o),
(1685,1092,o),
(1436,1092,cs),
(1091,1092,o),
(771,1054,o),
(521,961,cs),
(280,871,o),
(123,722,o),
(123,514,cs),
(123,297,o),
(273,153,o),
(513,70,cs),
(674,14,o),
(872,-19,o),
(1096,-34,cs),
(1208,-41,o),
(1324,-45,o),
(1445,-45,cs)
);
}
);
width = 2486;
}
);
note = c;
unicode = 99;
},
{
glyphname = d;
kernLeft = KO_d;
kernRight = KO_d;
lastChange = "2023-11-30 04:50:27 +0000";
layers = (
{
anchors = (
{
name = bottom;
pos = (1404,0);
},
{
name = center;
pos = (1404,524);
},
{
name = top;
pos = (1404,1047);
},
{
name = topright;
pos = (2477,2127);
}
);
layerId = m01;
shapes = (
{
closed = 1;
nodes = (
(1062,-45,o),
(1198,-27,o),
(1298,2,cs),
(1397,31,o),
(1461,72,o),
(1510,117,c),
(1536,47,o),
(1595,-18,o),
(1654,-18,cs),
(1764,-18,o),
(1939,-15,o),
(2193,-10,cs),
(2448,-5,o),
(2643,-2,o),
(2783,-2,c),
(2783,92,l),
(2614,98,o),
(2506,127,o),
(2453,188,cs),
(2418,227,o),
(2400,281,o),
(2395,351,cs),
(2392,386,o),
(2391,425,o),
(2391,468,cs),
(2391,1490,l),
(1029,1400,l),
(1029,1307,l),
(1194,1307,o),
(1309,1291,o),
(1384,1242,cs),
(1459,1193,o),
(1492,1109,o),
(1492,976,cs),
(1492,953,l),
(1347,1042,o),
(1175,1092,o),
(864,1092,cs),
(455,1092,o),
(113,912,o),
(113,522,cs),
(113,215,o),
(413,-45,o),
(870,-45,cs)
);
},
{
closed = 1;
nodes = (
(1184,126,o),
(1144,164,o),
(1119,233,cs),
(1094,302,o),
(1085,402,o),
(1085,526,cs),
(1085,664,o),
(1097,767,o),
(1121,834,cs),
(1144,901,o),
(1183,935,o),
(1236,935,cs),
(1306,935,o),
(1403,905,o),
(1492,824,c),
(1492,246,l),
(1444,173,o),
(1352,126,o),
(1248,126,cs)
);
}
);
width = 2807;
}
);
note = d;
unicode = 100;
},
{
glyphname = dcroat;
kernLeft = KO_d;
kernRight = KO_dcroat;
lastChange = "2023-11-30 04:50:27 +0000";
layers = (
{
anchors = (
{
name = bottom;
pos = (1404,0);
},
{
name = center;
pos = (1404,524);
},
{
name = top;
pos = (1404,1047);
},
{
name = topright;
pos = (2477,2127);
}
);
layerId = m01;
shapes = (
{
closed = 1;
nodes = (
(1062,-45,o),
(1198,-27,o),
(1298,2,cs),
(1397,31,o),
(1461,72,o),
(1510,117,c),
(1536,47,o),
(1595,-18,o),
(1654,-18,cs),
(1764,-18,o),
(1939,-15,o),
(2193,-10,cs),
(2448,-5,o),
(2643,-2,o),
(2783,-2,c),
(2783,92,l),
(2614,98,o),
(2506,127,o),
(2453,188,cs),
(2418,227,o),
(2400,281,o),
(2395,351,cs),
(2392,386,o),
(2391,425,o),
(2391,468,cs),
(2391,1490,l),
(1029,1400,l),
(1029,1307,l),
(1194,1307,o),
(1309,1291,o),
(1384,1242,cs),
(1459,1193,o),
(1492,1109,o),
(1492,976,cs),
(1492,953,l),
(1347,1042,o),
(1175,1092,o),
(864,1092,cs),
(455,1092,o),
(113,912,o),
(113,522,cs),
(113,215,o),
(413,-45,o),
(870,-45,cs)
);
},
{
closed = 1;
nodes = (
(1184,126,o),
(1144,164,o),
(1119,233,cs),
(1094,302,o),
(1085,402,o),
(1085,526,cs),
(1085,664,o),
(1097,767,o),
(1121,834,cs),
(1144,901,o),
(1183,935,o),
(1236,935,cs),
(1306,935,o),
(1403,905,o),
(1492,824,c),
(1492,246,l),
(1444,173,o),
(1352,126,o),
(1248,126,cs)
);
},
{
closed = 1;
nodes = (
(2004,1118,o),
(2560,1111,o),
(2629,1107,c),
(2637,1130,o),
(2641,1144,o),
(2641,1167,cs),
(2641,1190,o),
(2637,1201,o),
(2629,1224,c),
(2557,1220,o),
(2005,1218,o),
(1906,1217,cs),
(1812,1218,o),
(1220,1219,o),
(1141,1223,c),
(1135,1208,o),
(1131,1182,o),
(1131,1167,cs),
(1131,1151,o),
(1135,1119,o),
(1141,1107,c),
(1293,1112,l),
(1904,1117,ls)
);
}
);
width = 2807;
}
);
unicode = 273;
},
{
glyphname = dhook;
kernLeft = KO_d;
kernRight = KO_dhook;
lastChange = "2023-11-17 21:10:45 +0000";
layers = (
{
anchors = (
{
name = bottom;
pos = (1404,0);
},
{
name = center;
pos = (1404,524);
},
{
name = top;
pos = (2013,1629);
}
);
layerId = m01;
shapes = (
{
closed = 1;
nodes = (
(1062,-45,o),
(1198,-27,o),
(1298,2,cs),
(1397,31,o),
(1461,72,o),
(1510,117,c),
(1536,47,o),
(1595,-18,o),
(1654,-18,cs),
(1764,-18,o),
(1939,-15,o),
(2193,-10,cs),
(2448,-5,o),
(2643,-2,o),
(2783,-2,c),
(2783,92,l),
(2614,98,o),
(2486,127,o),
(2433,188,cs),
(2398,227,o),
(2380,281,o),
(2375,351,cs),
(2367,443,o),
(2371,578,o),
(2371,664,cs),
(2371,940,o),
(2334,1086,o),
(2334,1211,cs),
(2334,1355,o),
(2401,1463,o),
(2665,1463,cs),
(2730,1463,o),
(2792,1451,o),
(2840,1431,c),
(2708,1431,o),
(2607,1411,o),
(2541,1377,cs),
(2475,1343,o),
(2442,1296,o),
(2442,1244,cs),
(2442,1191,o),
(2493,1142,o),
(2577,1106,cs),
(2661,1070,o),
(2777,1047,o),
(2906,1047,cs),
(3005,1047,o),
(3096,1073,o),
(3172,1117,cs),
(3248,1160,o),
(3289,1219,o),
(3289,1286,cs),
(3289,1462,o),
(3082,1580,o),
(2593,1580,cs),
(2404,1580,o),
(2211,1570,o),
(2044,1542,cs),
(1961,1527,o),
(1885,1508,o),
(1817,1484,cs),
(1613,1412,o),
(1492,1281,o),
(1492,1019,cs),
(1492,953,l),
(1347,1042,o),
(1175,1092,o),
(864,1092,cs),
(455,1092,o),
(113,912,o),
(113,522,cs),
(113,215,o),
(413,-45,o),
(870,-45,cs)
);
},
{
closed = 1;
nodes = (
(1184,126,o),
(1144,164,o),
(1119,233,cs),
(1094,302,o),
(1085,402,o),
(1085,526,cs),
(1085,664,o),
(1097,767,o),
(1121,834,cs),
(1144,901,o),
(1183,935,o),
(1236,935,cs),
(1306,935,o),
(1403,905,o),
(1492,824,c),
(1492,246,l),
(1444,173,o),
(1352,126,o),
(1248,126,cs)
);
}
);
width = 2807;
}
);
unicode = 599;
},
{
glyphname = eth;
kernLeft = KO_eth;
kernRight = KO_eth;
lastChange = "2023-11-30 04:50:27 +0000";
layers = (
{
layerId = m01;
shapes = (
{
closed = 1;
nodes = (
(1524,-57,o),
(1742,-42,o),
(1932,-1,cs),
(2027,19,o),
(2114,46,o),
(2194,79,cs),
(2435,178,o),
(2586,350,o),
(2586,607,cs),
(2586,847,o),
(2435,1048,o),
(2192,1197,cs),
(1954,1342,o),
(1645,1440,o),
(1290,1486,c),
(1349,1541,o),
(1405,1590,o),
(1480,1651,c),
(1443,1707,o),
(1401,1748,o),
(1350,1781,c),
(1241,1654,o),
(1217,1624,o),
(1100,1504,c),
(1032,1508,o),
(965,1511,o),
(897,1511,cs),
(786,1511,o),
(679,1505,o),
(575,1493,c),
(527,1388,l),
(587,1394,o),
(645,1397,o),
(700,1397,cs),
(797,1397,o),
(886,1388,o),
(966,1370,c),
(887,1293,o),
(810,1226,o),
(707,1138,c),
(742,1086,o),
(792,1033,o),
(837,1008,c),
(970,1161,ls),
(1008,1205,o),
(1056,1255,o),
(1122,1321,c),
(1322,1234,o),
(1446,1079,o),
(1503,864,c),
(1391,872,o),
(1266,876,o),
(1109,876,cs),
(392,876,o),
(113,662,o),
(113,433,cs),
(113,299,o),
(179,181,o),
(356,91,cs),
(474,30,o),
(649,-14,o),
(889,-38,cs),
(1008,-51,o),
(1146,-57,o),
(1303,-57,cs)
);
},
{
closed = 1;
nodes = (
(1252,63,o),
(1196,85,o),
(1156,138,cs),
(1115,191,o),
(1088,276,o),
(1088,400,cs),
(1088,661,o),
(1185,757,o),
(1432,757,cs),
(1463,757,o),
(1494,756,o),
(1526,754,c),
(1535,694,o),
(1539,631,o),
(1539,563,cs),
(1539,234.994,o),
(1504,63,o),
(1309,63,cs)
);
}
);
width = 2699;
}
);
note = eth;
unicode = 240;
},
{
glyphname = e;
kernLeft = KO_e;
kernRight = KO_e;
lastChange = "2023-11-30 04:50:27 +0000";
layers = (
{
anchors = (
{
name = bottom;
pos = (1250,0);
},
{
name = ogonek;
pos = (2256,10);
},
{
name = top;
pos = (1250,1047);
}
);
layerId = m01;
shapes = (
{
closed = 1;
nodes = (
(1629,-45,o),
(1877,-13,o),
(2065,53,cs),
(2252,118,o),
(2379,224,o),
(2379,371,c),
(2248,371,l),
(2248,283,o),
(2157,212,o),
(2027,168,cs),
(1897,123,o),
(1736,99,o),
(1575,99,cs),
(1242,99,o),
(1094,210,o),
(1075,517,c),
(2379,517,l),
(2379,720,o),
(2276,864,o),
(2096,957,cs),
(1915,1049,o),
(1656,1092,o),
(1343,1092,cs),
(1108,1092,o),
(893,1071,o),
(710,1028,cs),
(618,1007,o),
(535,980,o),
(460,947,cs),
(237,849,o),
(105,697,o),
(105,498,cs),
(105,295,o),
(230,160,o),
(450,75,cs),
(670,-10,o),
(986,-45,o),
(1369,-45,cs)
);
},
{
closed = 1;
nodes = (
(1079,749,o),
(1105,834,o),
(1145,890,cs),
(1184,945,o),
(1237,970,o),
(1294,970,cs),
(1346,970,o),
(1393,945,o),
(1426,890,cs),
(1458,835,o),
(1479,750,o),
(1479,629,c),
(1074,629,l)
);
}
);
width = 2479;
}
);
note = e;
unicode = 101;
},
{
glyphname = f;
kernLeft = KO_f;
kernRight = KO_f;
lastChange = "2023-11-30 04:50:27 +0000";
layers = (
{
anchors = (
{
name = bottom;
pos = (1116,0);
},
{
name = top;
pos = (1070,1491);
}
);
layerId = m01;
shapes = (
{
closed = 1;
nodes = (
(1985,0,l),
(1985,94,l),
(1598,110,o),
(1402,185,o),
(1402,470,cs),
(1402,740,l),
(2041,740,l),
(2041,878,l),
(1402,878,l),
(1402,884,ls),
(1402,940,o),
(1378,1086.005,o),
(1378,1211,cs),
(1378,1355,o),
(1432,1463,o),
(1718,1463,cs),
(1783,1463,o),
(1845,1451,o),
(1893,1431,c),
(1761,1431,o),
(1661,1411,o),
(1595,1377,cs),
(1529,1343,o),
(1495,1296,o),
(1495,1244,cs),
(1495,1191,o),
(1546,1142,o),
(1630,1106,cs),
(1714,1070,o),
(1830,1047,o),
(1959,1047,cs),
(2102,1047,o),
(2213,1073,o),
(2289,1117,cs),
(2365,1160,o),
(2406,1219,o),
(2406,1286,cs),
(2406,1462,o),
(2179,1580,o),
(1646,1580,cs),
(1435,1580,o),
(1242,1570,o),
(1075,1542,cs),
(992,1527,o),
(916,1508,o),
(848,1484,cs),
(644,1412,o),
(523,1281,o),
(523,1083,cs),
(523,864,l),
(90,834,l),
(90,740,l),
(523,740,l),
(523,470,ls),
(523,339,o),
(497,249,o),
(426,190,cs),
(354,130,o),
(239,101,o),
(60,94,c),
(60,0,l)
);
}
);
width = 2231;
}
);
note = f;
unicode = 102;
userData = {
KernOnName = f;
};
},
{
glyphname = g;
kernLeft = KO_g;
kernRight = KO_g;
lastChange = "2023-11-30 04:50:27 +0000";
layers = (
{
anchors = (
{
name = bottom;
pos = (1301,-598);
},
{
name = top;
pos = (1201,1107);
}
);
layerId = m01;
shapes = (
{
closed = 1;
nodes = (
(1473,-505,o),
(1801,-498,o),
(2055,-445,cs),
(2313,-391,o),
(2497,-291,o),
(2497,-99,cs),
(2497,53,o),
(2374,130,o),
(2195,161,cs),
(2001,195,o),
(1779,190,o),
(1537,190,cs),
(1007,190,ls),
(924,190,o),
(846,196,o),
(788,209,cs),
(730,222,o),
(692,245,o),
(692,277,cs),
(692,313,o),
(736,340,o),
(776,340,c),
(775,345,l),
(910,330,o),
(1055,325,o),
(1204,325,cs),
(1487,325,o),
(1745,347,o),
(1944,402,cs),
(2141,456,o),
(2270,551,o),
(2270,692,cs),
(2270,828,o),
(2152,925,o),
(1973,988,c),
(2014,997,o),
(2062,998,o),
(2113,998,cs),
(2345,998,ls),
(2420,998,o),
(2520,1016,o),
(2549,1072,cs),
(2576,1123,o),
(2577,1198,o),
(2585,1236,c),
(2496,1241,o),
(2420,1242,o),
(2358,1242,cs),
(2163,1242,o),
(1932,1238,o),
(1841,1027,c),
(1657,1072,o),
(1436,1092,o),
(1204,1092,cs),
(924,1092,o),
(661,1062,o),
(465,999,cs),
(267,936,o),
(138,832,o),
(138,692,cs),
(138,515,o),
(339,413,o),
(628,365,c),
(537,345,o),
(456,313,o),
(397,272,cs),
(337,231,o),
(300,181,o),
(300,122,cs),
(300,38,o),
(374,-28,o),
(483,-75,c),
(355,-90,o),
(235,-113,o),
(147,-145,cs),
(58,-177,o),
(2,-220,o),
(2,-275,cs),
(2,-344,o),
(71,-392,o),
(184,-426,cs),
(241,-443,o),
(307,-457,o),
(384,-467,cs),
(624,-500,o),
(904,-505,o),
(1199,-505,cs)
);
},
{
closed = 1;
nodes = (
(1086,-398,o),
(955,-392,o),
(863,-373,cs),
(771,-354,o),
(719,-321,o),
(719,-268,cs),
(719,-217,o),
(740,-177,o),
(783,-147,c),
(823,-151,o),
(864,-154,o),
(904,-154,cs),
(1157,-154,o),
(1383,-155,o),
(1543,-171,cs),
(1701,-187,o),
(1801,-217,o),
(1801,-278,cs),
(1801,-332,o),
(1724,-362,o),
(1616,-378,cs),
(1509,-395,o),
(1374,-398,o),
(1245,-398,cs)
);
},
{
closed = 1;
nodes = (
(1058,435,o),
(1001,563,o),
(1001,708,cs),
(1001,862,o),
(1058,983,o),
(1203,983,cs),
(1349,983,o),
(1407,863,o),
(1407,708,cs),
(1407,562,o),
(1349,435,o),
(1203,435,cs)
);
}
);
width = 2602;
}
);
note = g;
unicode = 103;
userData = {
KernOnName = g;
};
},
{
glyphname = h;
kernLeft = KO_h;
kernRight = KO_h;
lastChange = "2023-11-30 04:50:27 +0000";
layers = (
{
anchors = (
{
name = bottom;
pos = (1517,0);
},
{
name = center;
pos = (1517,524);
},
{
name = top;
pos = (868,1406);
}
);
layerId = m01;
shapes = (
{
closed = 1;
nodes = (
(1502,0,l),
(1502,76,l),
(1417,132,o),
(1387,237,o),
(1387,470,cs),
(1387,792,l),
(1439,809,o),
(1491,820,o),
(1538,820,cs),
(1650,820,o),
(1738,786,o),
(1738,488,cs),
(1738,259,o),
(1709,132,o),
(1623,76,c),
(1623,0,l),
(3019,0,l),
(3019,94,l),
(2853,94,o),
(2752,122,o),
(2706,183,cs),
(2676,222,o),
(2662,275,o),
(2659,340,cs),
(2657,373,o),
(2656,409,o),
(2656,448,cs),
(2656,479,o),
(2657,508,o),
(2659,535,cs),
(2660,561,o),
(2661,587,o),
(2661,612,cs),
(2661,763,o),
(2631,867,o),
(2584,939,cs),
(2560,974,o),
(2532,1002,o),
(2500,1023,cs),
(2399,1087,o),
(2283,1092,o),
(2174,1092,cs),
(1892,1092,o),
(1627,1007,o),
(1387,900,c),
(1387,1490,l),
(45,1400,l),
(45,1307,l),
(210,1307,o),
(325,1283,o),
(400,1196,cs),
(475,1108,o),
(508,957,o),
(508,704,cs),
(508,537,o),
(500,414,o),
(476,326,cs),
(463,281,o),
(447,245,o),
(426,216,cs),
(385,159,o),
(321,125,o),
(232,109,cs),
(187,101,o),
(135,96,o),
(75,94,c),
(75,0,l)
);
}
);
width = 3014;
}
);
metricRight = n;
note = h;
unicode = 104;
},
{
glyphname = hbar;
kernLeft = KO_hbar;
kernRight = KO_h;
lastChange = "2023-11-30 04:50:27 +0000";
layers = (
{
layerId = m01;
shapes = (
{
closed = 1;
nodes = (
(1502,0,l),
(1502,76,l),
(1417,132,o),
(1387,237,o),
(1387,470,cs),
(1387,792,l),
(1439,809,o),
(1491,820,o),
(1538,820,cs),
(1650,820,o),
(1738,786,o),
(1738,488,cs),
(1738,259,o),
(1709,132,o),
(1623,76,c),
(1623,0,l),
(3019,0,l),
(3019,94,l),
(2853,94,o),
(2752,122,o),
(2706,183,cs),
(2676,222,o),
(2662,275,o),
(2659,340,cs),
(2657,373,o),
(2656,409,o),
(2656,448,cs),
(2656,479,o),
(2657,508,o),
(2659,535,cs),
(2660,561,o),
(2661,587,o),
(2661,612,cs),
(2661,763,o),
(2631,867,o),
(2584,939,cs),
(2560,974,o),
(2532,1002,o),
(2500,1023,cs),
(2399,1087,o),
(2283,1092,o),
(2174,1092,cs),
(1892,1092,o),
(1627,1007,o),
(1387,900,c),
(1387,1065,l),
(1487,1064,o),
(1577,1061,o),
(1646,1057,c),
(1654,1080,o),
(1658,1094,o),
(1658,1117,cs),
(1658,1140,o),
(1654,1151,o),
(1646,1174,c),
(1574,1170,o),
(1486,1168,o),
(1387,1167,c),
(1387,1490,l),
(45,1400,l),
(45,1307,l),
(222,1307,o),
(350,1278,o),
(422,1166,c),
(327,1167,o),
(237,1169,o),
(158,1173,c),
(151,1158,o),
(148,1132,o),
(148,1117,cs),
(148,1101,o),
(151,1069,o),
(158,1057,c),
(310,1062,l),
(468,1065,l),
(495,977,o),
(508,861,o),
(508,704,cs),
(508,537,o),
(500,414,o),
(476,326,cs),
(463,281,o),
(447,245,o),
(426,216,cs),
(385,159,o),
(321,125,o),
(232,109,cs),
(187,101,o),
(135,96,o),
(75,94,c),
(75,0,l)
);
}
);
width = 3034;
}
);
note = hbar;
unicode = 295;
},
{
glyphname = i;
kernLeft = KO_i;
kernRight = KO_i;
lastChange = "2023-11-30 04:50:27 +0000";
layers = (
{
anchors = (
{
name = bottom;
pos = (909,0);
}
);
layerId = m01;
shapes = (
{
closed = 1;
nodes = (
(1843,0,l),
(1843,94,l),
(1483,107,o),
(1410,255,o),
(1410,515,cs),
(1410,1075,l),
(68,985,l),
(68,891,l),
(399,891,o),
(531,782,o),
(531,515,cs),
(531,254,o),
(400,107,o),
(35,94,c),
(35,0,l)
);
},
{
closed = 1;
nodes = (
(1228,1209,o),
(1452,1320,o),
(1452,1451,cs),
(1452,1585,o),
(1228,1695,o),
(939,1695,cs),
(659,1695,o),
(427,1588,o),
(427,1451,cs),
(427,1384,o),
(485,1324,o),
(578,1280,cs),
(670,1236,o),
(799,1209,o),
(939,1209,cs)
);
}
);
width = 1838;
}
);
note = i;
unicode = 105;
userData = {
KernOnName = i;
};
},
{
glyphname = idotless;
kernLeft = KO_iacute;
kernRight = KO_idotless;
lastChange = "2023-11-30 04:50:27 +0000";
layers = (
{
anchors = (
{
name = bottom;
pos = (947,0);
},
{
name = ogonek;
pos = (1879,0);
},
{
name = top;
pos = (947,1047);
}
);
layerId = m01;
shapes = (
{
closed = 1;
nodes = (
(1879,0,l),
(1879,94,l),
(1519,107,o),
(1417,255,o),
(1417,515,cs),
(1417,1075,l),
(75,985,l),
(75,891,l),
(406,891,o),
(538,781.992,o),
(538,515,cs),
(538,255,o),
(433,107,o),
(75,94,c),
(75,0,l)
);
}
);
width = 1894;
}
);
note = dotlessi;
unicode = 305;
},
{
glyphname = ij;
kernLeft = KO_ij;
kernRight = KO_j;
lastChange = "2023-11-30 04:50:27 +0000";
layers = (
{
layerId = m01;
shapes = (
{
closed = 1;
nodes = (
(2696,-462,o),
(2869,-440,o),
(3006,-365,cs),
(3094,-317,o),
(3159,-245,o),
(3195,-145,cs),
(3212,-96,o),
(3221,-38,o),
(3221,27,cs),
(3221,183,o),
(3208,429,o),
(3208,677,cs),
(3209,897,l),
(3209,1075,l),
(1855,985,l),
(1855,891,l),
(2020,891,o),
(2135,853,o),
(2210,782,cs),
(2285,711,o),
(2318,605,o),
(2318,472,cs),
(2318,67,ls),
(2318,-146,o),
(2290,-301,o),
(2081,-301,cs),
(2029,-301,o),
(1967,-296,o),
(1888,-287,c),
(1888,-406,l),
(2072,-431,o),
(2295,-462,o),
(2514,-462,cs)
);
},
{
closed = 1;
nodes = (
(1883,0,l),
(1883,94,l),
(1523,107,o),
(1450,255,o),
(1450,515,cs),
(1450,1075,l),
(108,985,l),
(108,891,l),
(439,891,o),
(571,781.992,o),
(571,515,cs),
(571,254,o),
(440,107,o),
(75,94,c),
(75,0,l)
);
},
{
closed = 1;
nodes = (
(1268,1209,o),
(1492,1320,o),
(1492,1451,cs),
(1492,1585,o),
(1268,1695,o),
(979,1695,cs),
(699,1695,o),
(467,1588,o),
(467,1451,cs),
(467,1384,o),
(525,1324,o),
(618,1280,cs),
(710,1236,o),
(839,1209,o),
(979,1209,cs)
);
},
{
closed = 1;
nodes = (
(2994,1209,o),
(3218,1320,o),
(3218,1451,cs),
(3218,1585,o),
(2994,1695,o),
(2705,1695,cs),
(2425,1695,o),
(2193,1588,o),
(2193,1451,cs),
(2193,1384,o),
(2251,1324,o),
(2344,1280,cs),
(2436,1236,o),
(2565,1209,o),
(2705,1209,cs)
);
}
);
width = 3500;
}
);
note = ij;
unicode = 307;
},
{
glyphname = j;
kernLeft = KO_j;
kernRight = KO_j;
lastChange = "2023-11-30 04:50:27 +0000";
layers = (
{
layerId = m01;
shapes = (
{
closed = 1;
nodes = (
(823,-462,o),
(996,-440,o),
(1133,-365,cs),
(1221,-317,o),
(1286,-245,o),
(1322,-145,cs),
(1339,-96,o),
(1348,-38,o),
(1348,27,cs),
(1348,183,o),
(1335,429,o),
(1335,677,cs),
(1336,897,l),
(1336,1075,l),
(-18,985,l),
(-18,891,l),
(147,891,o),
(262,853,o),
(337,782,cs),
(412,711,o),
(445,605,o),
(445,472,cs),
(445,67,ls),
(445,-146,o),
(417,-301,o),
(208,-301,cs),
(156,-301,o),
(94,-296,o),
(15,-287,c),
(15,-406,l),
(199,-431,o),
(422,-462,o),
(641,-462,cs)
);
},
{
closed = 1;
nodes = (
(1121,1209,o),
(1345,1320,o),
(1345,1451,cs),
(1345,1585,o),
(1121,1695,o),
(832,1695,cs),
(552,1695,o),
(320,1588,o),
(320,1451,cs),
(320,1384,o),
(378,1324,o),
(471,1280,cs),
(563,1236,o),
(692,1209,o),
(832,1209,cs)
);
}
);
width = 1627;
}
);
note = j;
unicode = 106;
userData = {
KernOnName = j;
};
},
{
glyphname = jdotless;
lastChange = "2023-11-30 04:50:27 +0000";
layers = (
{
anchors = (
{
name = bottom;
pos = (814,-598);
},
{
name = top;
pos = (804,1047);
}
);
layerId = m01;
shapes = (
{
closed = 1;
nodes = (
(823,-462,o),
(996,-440,o),
(1133,-365,cs),
(1221,-317,o),
(1286,-245,o),
(1322,-145,cs),
(1339,-96,o),
(1348,-38,o),
(1348,27,cs),
(1348,183,o),
(1335,429,o),
(1335,677,cs),
(1336,897,l),
(1336,1075,l),
(-18,985,l),
(-18,891,l),
(147,891,o),
(262,853,o),
(337,782,cs),
(412,711,o),
(445,605,o),
(445,472,cs),
(445,67,ls),
(445,-146,o),
(417,-301,o),
(208,-301,cs),
(156,-301,o),
(94,-296,o),
(15,-287,c),
(15,-406,l),
(199,-431,o),
(422,-462,o),
(641,-462,cs)
);
}
);
width = 1627;
}
);
unicode = 567;
},
{
glyphname = jcircumflex;
kernLeft = KO_jcircumflex;
kernRight = KO_jcircumflex;
lastChange = "2023-11-30 04:50:27 +0000";
layers = (
{
layerId = m01;
shapes = (
{
closed = 1;
nodes = (
(823,-462,o),
(994,-439,o),
(1127,-365,cs),
(1213,-317,o),
(1274,-245,o),
(1309,-145,cs),
(1326,-96,o),
(1335,-38,o),
(1335,27,cs),
(1335,183,o),
(1322,429,o),
(1322,677,cs),
(1323,897,l),
(1323,1075,l),
(-19,985,l),
(-19,891,l),
(146,891,o),
(261,853,o),
(336,782,cs),
(411,711,o),
(444,605,o),
(444,472,cs),
(444,325,l),
(444,222,l),
(445,153,l),
(445,109,l),
(445,80,l),
(445,56,ls),
(445,-79,o),
(439,-168,o),
(407,-223,cs),
(375,-279,o),
(315,-301,o),
(207,-301,cs),
(155,-301,o),
(93,-296,o),
(14,-287,c),
(14,-406,l),
(198,-431,o),
(421,-462,o),
(640,-462,cs)
);
},
{
closed = 1;
nodes = (
(132,1187,l),
(763,1440,l),
(1394,1187,l),
(1558,1187,l),
(1434,1280,o),
(1338,1360,o),
(1259,1428,cs),
(1153,1520,ls),
(1062,1602,o),
(988,1666,o),
(912,1716,cs),
(873,1741,o),
(834,1766,o),
(763,1766,cs),
(692,1766,o),
(653,1741,o),
(614,1716,cs),
(538,1666,o),
(464,1602,o),
(373,1520,cs),
(310,1464,o),
(233,1397,o),
(135,1317,cs),
(86,1277,o),
(30,1234,o),
(-32,1187,c)
);
}
);
width = 1614;
}
);
note = jcircumflex;
unicode = 309;
},
{
glyphname = k;
kernLeft = KO_k;
kernRight = KO_k;
lastChange = "2023-11-30 04:50:27 +0000";
layers = (
{
anchors = (
{
name = bottom;
pos = (1523,0);
},
{
name = top;
pos = (1514,1440);
}
);
layerId = m01;
shapes = (
{
closed = 1;
nodes = (
(2404,-57,o),
(2546,-50,o),
(2659,-39,cs),
(2771,-28,o),
(2854,-17,o),
(2889,-6,c),
(2889,99,l),
(2857,103,o),
(2811,123,o),
(2768,164,cs),
(2725,205,o),
(2685,267,o),
(2661,355,cs),
(2641,431,o),
(2593,484,o),
(2517,517,cs),
(2441,550,o),
(2335,565,o),
(2196,565,cs),
(2002,565,o),
(1734,540,o),
(1486,500,c),
(1730,652,o),
(1964,765,o),
(2177,840,cs),
(2389,915,o),
(2580,952,o),
(2739,952,c),
(2739,1046,l),
(1627,1046,l),
(1627,952,l),
(1676,952,o),
(1715,950,o),
(1744,946,cs),
(1773,942,o),
(1787,933,o),
(1787,920,cs),
(1787,905,o),
(1750,860,o),
(1675,789,cs),
(1607,725,o),
(1514,647,o),
(1417,579,c),
(1417,1490,l),
(75,1400,l),
(75,1307,l),
(240,1307,o),
(355,1283,o),
(430,1196,cs),
(505,1108,o),
(538,957,o),
(538,704,cs),
(538,537,o),
(526,414,o),
(498,326,cs),
(483,281,o),
(464,245,o),
(441,216,cs),
(394,159,o),
(326,125,o),
(234,109,cs),
(188,101,o),
(135,96,o),
(75,94,c),
(75,0,l),
(1589,0,l),
(1589,94,l),
(1456,94,o),
(1420,199,o),
(1417,438,c),
(1662,435,o),
(1677,335,o),
(1698,228,cs),
(1711,153,o),
(1725,97,o),
(1754,54,cs),
(1769,33,o),
(1788,15,o),
(1812,1,cs),
(1888,-43,o),
(2030,-57,o),
(2252,-57,cs)
);
}
);
width = 2904;
}
);
note = k;
unicode = 107;
userData = {
KernOnName = k;
};
},
{
glyphname = kgreenlandic;
kernLeft = KO_kgreenlandic;
kernRight = KO_kgreenlandic;
lastChange = "2023-11-30 04:50:27 +0000";
layers = (
{
anchors = (
{
name = bottom;
pos = (1432,0);
},
{
name = top;
pos = (1432,1047);
}
);
layerId = m01;
shapes = (
{
closed = 1;
nodes = (
(2364,-57,o),
(2506,-50,o),
(2619,-39,cs),
(2731,-28,o),
(2814,-17,o),
(2849,-6,c),
(2849,99,l),
(2785,107,o),
(2710,175,o),
(2661,355,cs),
(2641,431,o),
(2593,484,o),
(2517,517,cs),
(2441,550,o),
(2335,565,o),
(2196,565,cs),
(2002,565,o),
(1734,540,o),
(1486,500,c),
(1730,652,o),
(1964,765,o),
(2177,840,cs),
(2389,915,o),
(2580,952,o),
(2739,952,c),
(2739,1046,l),
(1627,1046,l),
(1627,952,l),
(1676,952,o),
(1715,950,o),
(1744,946,cs),
(1773,942,o),
(1787,933,o),
(1787,920,cs),
(1787,905,o),
(1750,860,o),
(1675,789,cs),
(1607,725,o),
(1514,647,o),
(1417,579,c),
(1417,1137,l),
(75,1047,l),
(75,954,l),
(184,954,o),
(273,949,o),
(342,926,cs),
(376,915,o),
(405,899,o),
(430,879,cs),
(507,815,o),
(538,694,o),
(538,504,cs),
(538,341,o),
(513,235,o),
(441,177,cs),
(370,119,o),
(248,100,o),
(75,94,c),
(75,0,l),
(1589,0,l),
(1589,94,l),
(1456,94,o),
(1420,199,o),
(1417,438,c),
(1662,435,o),
(1677,335,o),
(1698,228,cs),
(1711,153,o),
(1720,97,o),
(1744,54,cs),
(1755,33,o),
(1771,15,o),
(1792,1,cs),
(1858,-44,o),
(1990,-57,o),
(2212,-57,cs)
);
}
);
width = 2864;
}
);
note = kgreenlandic;
unicode = 312;
},
{
color = 1;
glyphname = khook;
kernLeft = KO_khook;
kernRight = KO_khook;
lastChange = "2023-11-17 21:02:32 +0000";
layers = (
{
anchors = (
{
name = bottom;
pos = (1452,0);
},
{
name = top;
pos = (1452,1971);
}
);
layerId = m01;
shapes = (
{
closed = 1;
nodes = (
(2404,-57,o),
(2546,-50,o),
(2659,-39,cs),
(2771,-28,o),
(2854,-17,o),
(2889,-6,c),
(2889,99,l),
(2857,103,o),
(2811,123,o),
(2768,164,cs),
(2725,205,o),
(2685,267,o),
(2661,355,cs),
(2641,431,o),
(2593,484,o),
(2517,517,cs),
(2441,550,o),
(2335,565,o),
(2196,565,cs),
(2002,565,o),
(1734,540,o),
(1486,500,c),
(1730,652,o),
(1964,765,o),
(2177,840,cs),
(2389,915,o),
(2580,952,o),
(2739,952,c),
(2739,1046,l),
(1627,1046,l),
(1627,952,l),
(1676,952,o),
(1715,950,o),
(1744,946,cs),
(1773,942,o),
(1787,933,o),
(1787,920,cs),
(1787,905,o),
(1750,860,o),
(1675,789,cs),
(1607,725,o),
(1514,647,o),
(1417,579,c),
(1417,816,ls),
(1417,1039,o),
(1378,1166,o),
(1378,1291,cs),
(1378,1435,o),
(1432,1543,o),
(1838,1543,cs),
(1908,1543,o),
(1965,1534,o),
(2013,1511,c),
(1881,1511,o),
(1781,1491,o),
(1715,1457,cs),
(1649,1423,o),
(1615,1376,o),
(1615,1324,cs),
(1615,1271,o),
(1666,1222,o),
(1750,1186,cs),
(1834,1150,o),
(1950,1127,o),
(2079,1127,cs),
(2222,1127,o),
(2333,1153,o),
(2409,1197,cs),
(2485,1240,o),
(2526,1299,o),
(2526,1366,cs),
(2526,1542,o),
(2299,1660,o),
(1661,1660,cs),
(1478,1660,o),
(1122,1661,o),
(848,1564,cs),
(644,1492,o),
(507,1360,o),
(523,1083,cs),
(536,864,l),
(538,704,ls),
(538,537,o),
(526,414,o),
(498,326,cs),
(483,281,o),
(464,245,o),
(441,216,cs),
(394,159,o),
(326,125,o),
(234,109,cs),
(188,101,o),
(135,96,o),
(75,94,c),
(75,0,l),
(1589,0,l),
(1589,94,l),
(1456,94,o),
(1420,199,o),
(1417,438,c),
(1662,435,o),
(1677,335,o),
(1698,228,cs),
(1711,153,o),
(1725,97,o),
(1754,54,cs),
(1769,33,o),
(1788,15,o),
(1812,1,cs),
(1888,-43,o),
(2030,-57,o),
(2252,-57,cs)
);
}
);
width = 2904;
}
);
unicode = 409;
},
{
glyphname = l;
kernLeft = KO_l;
kernRight = KO_l;
lastChange = "2023-11-30 04:50:27 +0000";
layers = (
{
anchors = (
{
name = bottom;
pos = (904,0);
},
{
name = center;
pos = (904,524);
},
{
name = top;
pos = (904,1435);
},
{
name = topright;
pos = (1413,2128);
}
);
layerId = m01;
shapes = (
{
closed = 1;
nodes = (
(1792,0,l),
(1792,94,l),
(1474,107,o),
(1387,209,o),
(1387,470,cs),
(1387,1490,l),
(45,1400,l),
(45,1307,l),
(161,1307,o),
(252,1296,o),
(321,1264,cs),
(355,1247,o),
(384,1225,o),
(408,1196,cs),
(455,1139,o),
(485,1050,o),
(498,925,cs),
(505,862,o),
(508,789,o),
(508,704,cs),
(508,531,o),
(500,406,o),
(476,317,cs),
(463,272,o),
(447,236,o),
(426,209,cs),
(385,153,o),
(321,122,o),
(232,108,cs),
(187,101,o),
(135,96,o),
(75,94,c),
(75,0,l)
);
}
);
width = 1807;
}
);
note = l;
unicode = 108;
userData = {
KernOnName = l;
};
},
{
glyphname = ldot;
kernLeft = KO_l;
lastChange = "2023-11-30 04:50:27 +0000";
layers = (
{
layerId = m01;
shapes = (
{
closed = 1;
nodes = (
(1792,0,l),
(1792,94,l),
(1474,107,o),
(1387,209,o),
(1387,470,cs),
(1387,1490,l),
(45,1400,l),
(45,1307,l),
(161,1307,o),
(252,1296,o),
(321,1264,cs),
(355,1247,o),
(384,1225,o),
(408,1196,cs),
(455,1139,o),
(485,1050,o),
(498,925,cs),
(505,862,o),
(508,789,o),
(508,704,cs),
(508,531,o),
(500,406,o),
(476,317,cs),
(463,272,o),
(447,236,o),
(426,209,cs),
(385,153,o),
(321,122,o),
(232,108,cs),
(187,101,o),
(135,96,o),
(75,94,c),
(75,0,l)
);
},
{
closed = 1;
nodes = (
(2272,355,o),
(2468,467,o),
(2468,640,cs),
(2468,725,o),
(2419,797,o),
(2338,846,cs),
(2257,894,o),
(2142,922,o),
(2011,922,cs),
(1880,922,o),
(1766,894,o),
(1685,846,cs),
(1604,797,o),
(1555,725,o),
(1555,640,cs),
(1555,467,o),
(1750,355,o),
(2011,355,cs)
);
}
);
width = 2301;
}
);
note = ldot;
unicode = 320;
},
{
glyphname = lslash;
kernLeft = KO_lslash;
kernRight = KO_lslash;
lastChange = "2023-11-30 04:50:27 +0000";
layers = (
{
layerId = m01;
shapes = (
{
closed = 1;
nodes = (
(1792,0,l),
(1792,94,l),
(1474,107,o),
(1387,209,o),
(1387,470,cs),
(1387,792,l),
(1536,822,o),
(1692,847,o),
(1775,856,c),
(1775,868,ls),
(1775,917,o),
(1759,970,o),
(1739,1017,c),
(1663,995,o),
(1524,963,o),
(1387,933,c),
(1387,1490,l),
(45,1400,l),
(45,1307,l),
(157,1307,o),
(246,1297,o),
(314,1267,cs),
(347,1252,o),
(376,1231,o),
(400,1204,cs),
(474,1121,o),
(503,974,o),
(507,752,c),
(366,724,o),
(181,687,o),
(88,677,c),
(91,618,o),
(103,561,o),
(124,517,c),
(220,544,o),
(359,576,o),
(507,611,c),
(503,466,o),
(492,361,o),
(465,286,cs),
(452,248,o),
(434,217,o),
(413,193,cs),
(370,145,o),
(308,119,o),
(223,107,cs),
(180,100,o),
(131,96,o),
(75,94,c),
(75,0,l)
);
}
);
width = 1807;
}
);
note = lslash;
unicode = 322;
},
{
glyphname = m;
kernLeft = KO_n;
kernRight = KO_m;
lastChange = "2023-11-30 04:50:27 +0000";
layers = (
{
anchors = (
{
name = bottom;
pos = (2094,0);
},
{
name = top;
pos = (2094,1047);
}
);
layerId = m01;
shapes = (
{
closed = 1;
nodes = (
(1491,0,l),
(1491,76,l),
(1406,132,o),
(1376,237,o),
(1376,470,cs),
(1376,795,l),
(1425,810,o),
(1474,820,o),
(1519,820,cs),
(1631,820,o),
(1719,786,o),
(1719,488,cs),
(1719,259,o),
(1690,132,o),
(1604,76,c),
(1604,0,l),
(2700,0,l),
(2700,76,l),
(2660,76,o),
(2635,106,o),
(2620,164,cs),
(2605,222,o),
(2601,310,o),
(2601,427,cs),
(2601,458,o),
(2602,491,o),
(2604,524,cs),
(2606,612,ls),
(2606,687,o),
(2599,749,o),
(2588,802,c),
(2635,813,o),
(2679,820,o),
(2722,820,cs),
(2834,820,o),
(2922,786,o),
(2922,488,cs),
(2922,259,o),
(2893,132,o),
(2807,76,c),
(2807,0,l),
(4177,0,l),
(4177,94,l),
(4026,94,o),
(3933,124,o),
(3878,183,cs),
(3822,242,o),
(3804,331,o),
(3804,448,cs),
(3804,479,o),
(3805,508,o),
(3807,535,cs),
(3809,612,ls),
(3809,763,o),
(3779,867,o),
(3732,939,cs),
(3708,974,o),
(3680,1002,o),
(3648,1023,cs),
(3547,1087,o),
(3431,1092,o),
(3322,1092,cs),
(3035,1092,o),
(2796,1006,o),
(2559,897,c),
(2479,1078,o),
(2315,1092,o),
(2155,1092,cs),
(1869,1092,o),
(1612,1008,o),
(1376,903,c),
(1376,1065,l),
(70,975,l),
(70,881,l),
(403,881,o),
(533,822,o),
(533,497,cs),
(533,366,o),
(501,270,o),
(427,203,cs),
(353,136,o),
(237,101,o),
(70,94,c),
(70,0,l)
);
}
);
width = 4172;
}
);
metricLeft = n;
metricRight = n;
note = m;
unicode = 109;
},
{
glyphname = n;
kernLeft = KO_n;
kernRight = KO_n;
lastChange = "2023-11-30 04:50:27 +0000";
layers = (
{
anchors = (
{
name = bottom;
pos = (1532,0);
},
{
name = top;
pos = (1532,1047);
}
);
layerId = m01;
shapes = (
{
closed = 1;
nodes = (
(1527,0,l),
(1527,76,l),
(1442,132,o),
(1412,237,o),
(1412,470,cs),
(1412,792,l),
(1464,809,o),
(1516,820,o),
(1563,820,cs),
(1675,820,o),
(1763,786,o),
(1763,488,cs),
(1763,259,o),
(1734,132,o),
(1648,76,c),
(1648,0,l),
(3054,0,l),
(3054,94,l),
(2878,94,o),
(2784,124,o),
(2736,183,cs),
(2687,242,o),
(2681,331,o),
(2681,448,cs),
(2681,479,o),
(2682,508,o),
(2684,535,cs),
(2686,612,ls),
(2686,763,o),
(2656,867,o),
(2609,939,cs),
(2585,974,o),
(2557,1002,o),
(2525,1023,cs),
(2424,1087,o),
(2308,1092,o),
(2199,1092,cs),
(1917,1092,o),
(1652,1007,o),
(1412,900,c),
(1412,1065,l),
(70,975,l),
(70,881,l),
(403,881,o),
(533,822,o),
(533,497,cs),
(533,366,o),
(501,270,o),
(427,203,cs),
(353,136,o),
(237,101,o),
(70,94,c),
(70,0,l)
);
}
);
width = 3049;
}
);
note = n;
unicode = 110;
userData = {
KernOnName = n;
};
},
{
glyphname = eng;
kernLeft = KO_n;
kernRight = KO_eng;
lastChange = "2023-11-17 20:56:22 +0000";
layers = (
{
anchors = (
{
name = bottom;
pos = (1537,-513);
},
{
name = top;
pos = (1537,1047);
}
);
layerId = m01;
shapes = (
{
closed = 1;
nodes = (
(1532,0,l),
(1532,76,l),
(1447,132,o),
(1417,237,o),
(1417,470,cs),
(1417,792,l),
(1469,809,o),
(1521,820,o),
(1568,820,cs),
(1700,820,o),
(1796,786,o),
(1796,488,cs),
(1796,67,ls),
(1796,-146,o),
(1768,-301,o),
(1559,-301,cs),
(1507,-301,o),
(1445,-296,o),
(1366,-287,c),
(1366,-406,l),
(1550,-431,o),
(1773,-462,o),
(1992,-462,cs),
(2174,-462,o),
(2347,-440,o),
(2484,-365,cs),
(2572,-317,o),
(2637,-245,o),
(2673,-145,cs),
(2690,-96,o),
(2699,-38,o),
(2699,27,cs),
(2699,138,o),
(2692,190,o),
(2689,299,c),
(2691,612,ls),
(2691,763,o),
(2661,867,o),
(2614,939,cs),
(2590,974,o),
(2562,1002,o),
(2530,1023,cs),
(2429,1087,o),
(2313,1092,o),
(2204,1092,cs),
(1922,1092,o),
(1657,1007,o),
(1417,900,c),
(1417,1065,l),
(75,975,l),
(75,881,l),
(408,881,o),
(538,822,o),
(538,497,cs),
(538,366,o),
(506,270,o),
(432,203,cs),
(358,136,o),
(242,101,o),
(75,94,c),
(75,0,l)
);
}
);
width = 3074;
}
);
unicode = 331;
},
{
glyphname = o;
kernLeft = KO_o;
kernRight = KO_o;
lastChange = "2023-11-18 01:47:56 +0000";
layers = (
{
anchors = (
{
name = bottom;
pos = (1306,0);
},
{
name = center;
pos = (1306,524);
},
{
name = ogonek;
pos = (2356,10);
},
{
name = top;
pos = (1306,1047);
},
{
name = topright;
pos = (2599,1047);
}
);
layerId = m01;
shapes = (
{
closed = 1;
nodes = (
(1665,-45,o),
(1966,1,o),
(2176,95,cs),
(2386,189,o),
(2506,331,o),
(2506,523,cs),
(2506,716,o),
(2386,860,o),
(2176,954,cs),
(1966,1048,o),
(1665,1093,o),
(1306,1093,cs),
(946,1093,o),
(647,1048,o),
(436,954,cs),
(225,860,o),
(105,716,o),
(105,523,cs),
(105,139,o),
(585,-45,o),
(1306,-45,cs)
);
},
{
closed = 1;
nodes = (
(1242,60,o),
(1192,114,o),
(1157,199,cs),
(1121,283,o),
(1102,399,o),
(1102,523,cs),
(1102,648,o),
(1121,765,o),
(1157,850,cs),
(1192,935,o),
(1242,990,o),
(1306,990,cs),
(1369,990,o),
(1419,935,o),
(1455,850,cs),
(1490,765,o),
(1509,648,o),
(1509,523,cs),
(1509,399,o),
(1490,283,o),
(1455,199,cs),
(1419,114,o),
(1369,60,o),
(1306,60,cs)
);
}
);
width = 2611;
}
);
metricRight = "=|";
note = o;
unicode = 111;
userData = {
KernOnName = o;
};
},
{
glyphname = oslash;
kernLeft = KO_oslash;
kernRight = KO_oslash;
lastChange = "2023-11-30 04:50:27 +0000";
layers = (
{
layerId = m01;
shapes = (
{
closed = 1;
nodes = (
(239,-206,o),
(299,-170,o),
(373,-125,cs),
(445,-81,o),
(532,-30,o),
(632,29,c),
(820,-20,o),
(1050,-45,o),
(1314,-45,cs),
(1673,-45,o),
(1974,1,o),
(2184,95,cs),
(2394,189,o),
(2514,331,o),
(2514,523,cs),
(2514,706,o),
(2409,839,o),
(2222,934,c),
(2358,1007,o),
(2465,1065,o),
(2512,1085,c),
(2491,1146,o),
(2461,1200,o),
(2420,1245,c),
(2393,1226,o),
(2341,1194,o),
(2273,1153,cs),
(2030,1008,l),
(1835,1065,o),
(1595,1093,o),
(1314,1093,cs),
(954,1093,o),
(655,1048,o),
(444,954,cs),
(233,860,o),
(113,716,o),
(113,523,cs),
(113,332,o),
(228,194,o),
(433,99,c),
(288,19,o),
(169,-43,o),
(114,-70,c),
(132,-127,o),
(165,-191,o),
(206,-229,c)
);
},
{
closed = 1;
nodes = (
(1269,60,o),
(1230,87,o),
(1199,133,cs),
(1168,179,o),
(1144,242,o),
(1129,318,c),
(1334,437,l),
(1517,541,l),
(1517,523,ls),
(1517,399,o),
(1498,283,o),
(1463,199,cs),
(1427,114,o),
(1377,60,o),
(1314,60,cs)
);
},
{
closed = 1;
nodes = (
(1110,483,o),
(1109,491,o),
(1110,499,c),
(1110,523,ls),
(1110,648,o),
(1129,765,o),
(1165,850,cs),
(1200,935,o),
(1250,990,o),
(1314,990,cs),
(1409,990,o),
(1474,865,o),
(1503,701,c),
(1262,562,ls),
(1231,543,o),
(1178,512,o),
(1111,476,c)
);
}
);
width = 2627;
}
);
note = oslash;
unicode = 248;
},
{
glyphname = oe;
kernLeft = KO_oe;
kernRight = KO_oe;
lastChange = "2023-11-30 04:50:27 +0000";
layers = (
{
layerId = m01;
shapes = (
{
closed = 1;
nodes = (
(1514,-45,o),
(1759,-8,o),
(1962,65,c),
(2200,-13,o),
(2479,-45,o),
(2722,-45,cs),
(2982,-45,o),
(3230,-13,o),
(3418,53,cs),
(3605,118,o),
(3732,224,o),
(3732,371,c),
(3601,371,l),
(3601,283,o),
(3510,212,o),
(3380,168,cs),
(3250,123,o),
(3089,99,o),
(2928,99,cs),
(2595,99,o),
(2447,210,o),
(2428,517,c),
(3732,517,l),
(3732,715,o),
(3608,863,o),
(3405,957,cs),
(3204,1049,o),
(2935,1092,o),
(2639,1092,cs),
(2472,1092,o),
(2222,1053,o),
(1998,969,c),
(1783,1052,o),
(1530,1093,o),
(1314,1093,cs),
(954,1093,o),
(655,1048,o),
(444,954,cs),
(233,860,o),
(113,716,o),
(113,523,cs),
(113,139,o),
(593,-45,o),
(1314,-45,cs)
);
},
{
closed = 1;
nodes = (
(1250,77,o),
(1200,126,o),
(1165,207,cs),
(1129,287,o),
(1110,399,o),
(1110,523,cs),
(1110,648,o),
(1129,760,o),
(1165,841,cs),
(1200,921,o),
(1250,970,o),
(1314,970,cs),
(1377,970,o),
(1427,921,o),
(1463,841,cs),
(1498,760,o),
(1517,648,o),
(1517,523,cs),
(1517,399,o),
(1498,287,o),
(1463,207,cs),
(1427,126,o),
(1377,77,o),
(1314,77,cs)
);
},
{
closed = 1;
nodes = (
(2444,847,o),
(2528,970,o),
(2637,970,cs),
(2689,970,o),
(2738,935,o),
(2774,878,cs),
(2809,821,o),
(2832,740,o),
(2832,649,c),
(2428,649,l)
);
}
);
width = 3882;
}
);
note = oe;
unicode = 339;
},
{
glyphname = p;
kernLeft = KO_p;
kernRight = KO_p;
lastChange = "2023-11-30 04:50:27 +0000";
layers = (
{
anchors = (
{
name = bottom;
pos = (1435,0);
},
{
name = top;
pos = (1435,1047);
}
);
layerId = m01;
shapes = (
{
closed = 1;
nodes = (
(1869,-462,l),
(1869,-368,l),
(1472,-355,o),
(1357,-253,o),
(1357,8,cs),
(1357,96,l),
(1519,6,o),
(1764,-45,o),
(1985,-45,cs),
(2202,-45,o),
(2395,5,o),
(2534,103,cs),
(2673,201,o),
(2756,348,o),
(2756,544,cs),
(2756,852,o),
(2564,1092,o),
(1979,1092,cs),
(1819,1092,o),
(1691,1075,o),
(1590,1048,cs),
(1489,1020,o),
(1413,983,o),
(1357,940,c),
(1357,1074,l),
(15,984,l),
(15,890,l),
(124,890,o),
(213,877,o),
(282,841,cs),
(316,823,o),
(345,799,o),
(370,768,cs),
(419,707,o),
(451,615,o),
(467,488,cs),
(474,424,o),
(478,350,o),
(478,265,cs),
(478,98,o),
(466,-27,o),
(438,-119,cs),
(423,-165,o),
(404,-203,o),
(381,-234,cs),
(334,-295,o),
(266,-333,o),
(174,-351,cs),
(128,-360,o),
(75,-366,o),
(15,-368,c),
(15,-462,l)
);
},
{
closed = 1;
nodes = (
(1546,115,o),
(1449,153,o),
(1357,237,c),
(1357,790,l),
(1407,865,o),
(1498,916,o),
(1601,916,cs),
(1665,916,o),
(1705,879,o),
(1730,811,cs),
(1755,743,o),
(1764,644,o),
(1764,520,cs),
(1764,383,o),
(1752,281,o),
(1729,215,cs),
(1705,148,o),
(1666,115,o),
(1613,115,cs)
);
}
);
width = 2869;
}
);
note = p;
unicode = 112;
userData = {
KernOnName = p;
};
},
{
glyphname = thorn;
kernLeft = KO_thorn;
kernRight = KO_thorn;
lastChange = "2023-11-30 04:50:27 +0000";
layers = (
{
anchors = (
{
name = bottom;
pos = (1410,0);
},
{
name = top;
pos = (1410,1971);
}
);
layerId = m01;
shapes = (
{
closed = 1;
nodes = (
(1819,-462,l),
(1819,-368,l),
(1639,-361,o),
(1524,-332,o),
(1453,-272,cs),
(1382,-213,o),
(1357,-123,o),
(1357,8,cs),
(1357,96,l),
(1519,6,o),
(1764,-45,o),
(1985,-45,cs),
(2188,-45,o),
(2369,5,o),
(2498,103,cs),
(2627,201,o),
(2706,348,o),
(2706,544,cs),
(2706,851,o),
(2434,1092,o),
(1979,1092,cs),
(1820,1092,o),
(1693,1076,o),
(1593,1049,cs),
(1492,1022,o),
(1416,984,o),
(1360,943,c),
(1360,1490,l),
(18,1400,l),
(18,1307,l),
(235,1307,o),
(358,1189,o),
(421,1043,cs),
(492,877,o),
(508,684,o),
(508,495,cs),
(508,275,o),
(498,70,o),
(428,-102,cs),
(384,-210,o),
(313,-291,o),
(206,-335,cs),
(153,-357,o),
(89,-368,o),
(15,-368,c),
(15,-462,l)
);
},
{
closed = 1;
nodes = (
(1546,98,o),
(1449,136,o),
(1357,220,c),
(1357,810,l),
(1407,885,o),
(1498,936,o),
(1601,936,cs),
(1665,936,o),
(1705,894,o),
(1730,822,cs),
(1755,749,o),
(1764,644,o),
(1764,520,cs),
(1764,383,o),
(1752,278,o),
(1729,206,cs),
(1705,134,o),
(1666,98,o),
(1613,98,cs)
);
}
);
width = 2819;
}
);
note = thorn;
unicode = 254;
},
{
glyphname = q;
kernLeft = KO_q;
kernRight = KO_q;
lastChange = "2023-11-30 04:50:27 +0000";
layers = (
{
anchors = (
{
name = bottom;
pos = (1366,0);
},
{
name = top;
pos = (1366,1047);
}
);
layerId = m01;
shapes = (
{
closed = 1;
nodes = (
(2794,-462,l),
(2794,-368,l),
(2674,-363,o),
(2588,-342,o),
(2525,-298,cs),
(2493,-276,o),
(2467,-248,o),
(2447,-213,cs),
(2407,-144,o),
(2385,-44,o),
(2377,88,cs),
(2372,154,o),
(2370,229,o),
(2370,314,cs),
(2370,535,o),
(2386,830,o),
(2415,1020,c),
(2332,1065,l),
(2183,1030,o),
(2031,1020,o),
(1878,1020,cs),
(1552,1020,o),
(1217,1092,o),
(870,1092,cs),
(673,1092,o),
(488,1050,o),
(348,961,cs),
(215,876,o),
(113,735,o),
(113,526,cs),
(113,363,o),
(188,222,o),
(320,119,cs),
(452,16,o),
(642,-45,o),
(870,-45,cs),
(1030,-45,o),
(1158,-28,o),
(1259,-1,cs),
(1360,26,o),
(1436,63,o),
(1492,106,c),
(1492,53,ls),
(1492,-207,o),
(1349,-355,o),
(989,-368,c),
(989,-462,l)
);
},
{
closed = 1;
nodes = (
(1184,112,o),
(1144,159,o),
(1119,236,cs),
(1094,312,o),
(1085,421,o),
(1085,545,cs),
(1085,683,o),
(1097,788,o),
(1121,860,cs),
(1144,931,o),
(1182,967,o),
(1235,967,cs),
(1301,967,o),
(1400,956,o),
(1492,910,c),
(1492,238,l),
(1443,165,o),
(1351,112,o),
(1248,112,cs)
);
}
);
width = 2731;
}
);
note = q;
unicode = 113;
},
{
glyphname = r;
kernLeft = KO_r;
kernRight = KO_r;
lastChange = "2023-11-30 04:50:27 +0000";
layers = (
{
anchors = (
{
name = bottom;
pos = (1263,0);
},
{
name = top;
pos = (860,1047);
}
);
layerId = m01;
shapes = (
{
closed = 1;
nodes = (
(1919,0,l),
(1919,94,l),
(1537,110,o),
(1412,237,o),
(1412,524,cs),
(1412,816,l),
(1573,915,o),
(1725,955,o),
(1967,955,c),
(1803,952,o),
(1612,888,o),
(1612,744,cs),
(1612,683,o),
(1654,631,o),
(1729,595,cs),
(1804,558,o),
(1910,537,o),
(2039,537,cs),
(2182,537,o),
(2294,571,o),
(2370,621,cs),
(2446,671,o),
(2487,736,o),
(2487,801,cs),
(2487,888,o),
(2450,960,o),
(2371,1012,cs),
(2291,1063,o),
(2171,1092,o),
(2006,1092,cs),
(1796,1092,o),
(1562,1032,o),
(1412,927,c),
(1412,1075,l),
(70,985,l),
(70,891,l),
(401,891,o),
(533,781.992,o),
(533,515,cs),
(533,255,o),
(428,107,o),
(70,94,c),
(70,0,l)
);
}
);
width = 2526;
}
);
note = r;
unicode = 114;
userData = {
KernOnName = r;
};
},
{
glyphname = s;
kernLeft = KO_s;
kernRight = KO_s;
lastChange = "2023-11-30 04:50:27 +0000";
layers = (
{
anchors = (
{
name = bottom;
pos = (1222,0);
},
{
name = top;
pos = (1222,1047);
}
);
layerId = m01;
shapes = (
{
closed = 1;
nodes = (
(296,-14,o),
(414,1,o),
(502,1,cs),
(651,1,o),
(817,-10,o),
(990,-22,cs),
(1163,-34,o),
(1346,-45,o),
(1533,-45,cs),
(1761,-45,o),
(1957,-3,o),
(2097,69,cs),
(2237,140,o),
(2319,239,o),
(2319,355,cs),
(2319,571,o),
(2126,669,o),
(1889,722,cs),
(1772,748,o),
(1644,763,o),
(1527,776,cs),
(1410,788,o),
(1303,799,o),
(1224,818,cs),
(1145,837,o),
(1097,863,o),
(1097,907,cs),
(1097,980,o),
(1208,989,o),
(1252,989,cs),
(1467,989,o),
(1663,962,o),
(1812,924,cs),
(1961,886,o),
(2062,835,o),
(2089,791,c),
(2209,791,l),
(2209,859,o),
(2188,1028,o),
(2158,1093,c),
(2098,1056,o),
(1973,1044,o),
(1881,1044,cs),
(1804,1044,o),
(1661,1056,o),
(1495,1068,cs),
(1330,1080,o),
(1144,1092,o),
(966,1092,cs),
(735,1092,o),
(531,1060,o),
(380,993,cs),
(225,924,o),
(133,817,o),
(133,667,cs),
(133,449,o),
(335,362,o),
(580,321,cs),
(828,278,o),
(1108,284,o),
(1270,251,cs),
(1351,234,o),
(1402,208,o),
(1402,163,cs),
(1402,137,o),
(1383,115,o),
(1345,98,cs),
(1307,81,o),
(1255,72,o),
(1189,72,cs),
(960,72,o),
(757,91,o),
(604,126,cs),
(451,161,o),
(346,211,o),
(310,271,c),
(187,271,l),
(187,207,o),
(208,8,o),
(238,-56,c)
);
}
);
width = 2443;
}
);
note = s;
unicode = 115;
},
{
glyphname = germandbls;
kernLeft = KO_germandbls;
kernRight = KO_germandbls;
lastChange = "2023-11-30 04:50:27 +0000";
layers = (
{
layerId = m01;
shapes = (
{
closed = 1;
nodes = (
(1778,-14,o),
(1883,1,o),
(1975,1,cs),
(2067,1,o),
(2132,-4,o),
(2197,-12,cs),
(2259,-20,o),
(2342,-31,o),
(2463,-38,cs),
(2554,-42,o),
(2641,-45,o),
(2726,-45,cs),
(2901,-45,o),
(3060,-15,o),
(3176,49,cs),
(3291,113,o),
(3362,210,o),
(3362,346,cs),
(3362,610,o),
(3134,701,o),
(2903,759,cs),
(2784,788,o),
(2678,806,o),
(2587,838,cs),
(2501,868,o),
(2443,905,o),
(2443,972,cs),
(2443,1054,o),
(2535,1079,o),
(2535,1214,cs),
(2535,1434,o),
(2180,1530,o),
(1569,1530,cs),
(887,1530,o),
(538,1460,o),
(538,1083,cs),
(538,880,l),
(195,850,l),
(195,756,l),
(538,756,l),
(538,470,ls),
(538,339,o),
(512,249,o),
(441,190,cs),
(369,130,o),
(254,101,o),
(75,94,c),
(75,0,l),
(1418,0,l),
(1418,771,ls),
(1418,871,o),
(1412,946,o),
(1406,1009,cs),
(1400,1069,o),
(1393,1122,o),
(1393,1169,cs),
(1393,1307,o),
(1432,1422,o),
(1646,1422,cs),
(1765,1422,o),
(1856,1365,o),
(1856,1263,c),
(1852,1203,o),
(1824,1167,o),
(1789,1132,cs),
(1771,1115,o),
(1752,1097,o),
(1732,1080,cs),
(1691,1045,o),
(1656,997,o),
(1633,927,cs),
(1622,892,o),
(1616,848,o),
(1616,795,cs),
(1616,512,o),
(1844,401,o),
(2076,333,cs),
(2199,296,o),
(2295,279,o),
(2392,248,cs),
(2478,220,o),
(2535,188,o),
(2535,133,cs),
(2535,108,o),
(2517,90,o),
(2480,80,cs),
(2443,69,o),
(2391,64,o),
(2322,64,cs),
(2178,64,o),
(2061,92,o),
(1972,133,cs),
(1883,173,o),
(1819,225,o),
(1783,273,c),
(1670,273,l),
(1670,244,o),
(1675,179,o),
(1685,108,cs),
(1694,37,o),
(1708,-27,o),
(1721,-56,c)
);
}
);
width = 3408;
}
);
note = germandbls;
unicode = 223;
},
{
glyphname = t;
kernLeft = KO_t;
kernRight = KO_t;
lastChange = "2023-11-30 04:50:27 +0000";
layers = (
{
anchors = (
{
name = bottom;
pos = (1025,0);
},
{
name = center;
pos = (1025,524);
},
{
name = top;
pos = (457,1188);
},
{
name = topright;
pos = (1650,2129);
}
);
layerId = m01;
shapes = (
{
closed = 1;
nodes = (
(1389,-45,o),
(1566,-28,o),
(1696,5,cs),
(1761,21,o),
(1814,41,o),
(1857,65,cs),
(1985,137,o),
(2029,240,o),
(2029,380,c),
(1908,380,l),
(1908,159,o),
(1731,96,o),
(1548,96,cs),
(1432,96,o),
(1362,130,o),
(1320,210,cs),
(1278,289,o),
(1265,414,o),
(1265,597,cs),
(1265,909,l),
(1892,909,l),
(1892,1047,l),
(1265,1047,l),
(1265,1497,l),
(1053,1497,l),
(1029,1329,o),
(900,1204,o),
(713,1123,cs),
(530,1043,o),
(299,1003,o),
(58,1003,c),
(58,909,l),
(330,909,l),
(330,484,ls),
(330,332,o),
(369,223,o),
(438,145,cs),
(473,106,o),
(515,74,o),
(564,49,cs),
(662,0,o),
(784,-27,o),
(927,-37,cs),
(998,-42,o),
(1074,-45,o),
(1153,-45,cs)
);
}
);
width = 2049;
}
);
note = t;
unicode = 116;
userData = {
KernOnName = t;
};
},
{
glyphname = u;
kernLeft = KO_u;
kernRight = KO_u;
lastChange = "2023-11-30 04:50:27 +0000";
layers = (
{
anchors = (
{
name = bottom;
pos = (1418,0);
},
{
name = ogonek;
pos = (2552,10);
},
{
name = top;
pos = (1418,1047);
},
{
name = topright;
pos = (2815,1047);
}
);
layerId = m01;
shapes = (
{
closed = 1;
nodes = (
(1141,-45,o),
(1366,23,o),
(1588,130,c),
(1611,55,o),
(1681,-18,o),
(1798,-18,cs),
(1905,-18,o),
(2064,-14,o),
(2286,-10,cs),
(2507,-6,o),
(2683,-2,o),
(2823,-2,c),
(2817,92,l),
(2501,105,o),
(2455,206,o),
(2455,468,cs),
(2455,1110,l),
(1370,1020,l),
(1370,943,l),
(1482,914,o),
(1576,850,o),
(1576,617,cs),
(1576,231,l),
(1529,216,o),
(1483,209,o),
(1440,209,cs),
(1360,209,o),
(1310,234,o),
(1280,283,cs),
(1250,331,o),
(1240,405,o),
(1240,505,cs),
(1240,1092,l),
(8,1002,l),
(8,908,l),
(32,910,o),
(54,911,o),
(75,911,cs),
(307,911,o),
(332,760,o),
(332,622,cs),
(332,535,o),
(316,406,o),
(316,316,cs),
(316,199,o),
(353,121,o),
(410,67,cs),
(439,40,o),
(472,19,o),
(510,4,cs),
(628,-44,o),
(760,-45,o),
(862,-45,cs)
);
}
);
width = 2835;
}
);
note = u;
unicode = 117;
userData = {
KernOnName = u;
};
},
{
glyphname = v;
kernLeft = KO_v;
kernRight = KO_v;
lastChange = "2023-11-30 04:50:27 +0000";
layers = (
{
anchors = (
{
name = bottom;
pos = (1311,0);
},
{
name = top;
pos = (1311,1047);
}
);
layerId = m01;
shapes = (
{
closed = 1;
nodes = (
(1844,0,l),
(1927,151,o),
(2005,308,o),
(2078,453,cs),
(2154,603,o),
(2219,728,o),
(2283,818,cs),
(2362,929,o),
(2495,953,o),
(2612,953,c),
(2612,1047,l),
(1839,1047,l),
(1839,953,l),
(1968,953,o),
(2109,928,o),
(2109,861,cs),
(2109,825,o),
(2048,680,o),
(1960,504,cs),
(1869,321,o),
(1791,177,o),
(1755,130,c),
(1682,242,o),
(1579,416,o),
(1499,565,cs),
(1411,731,o),
(1366,832,o),
(1366,865,cs),
(1366,938,o),
(1542,953,o),
(1636,953,c),
(1636,1047,l),
(10,1047,l),
(10,953,l),
(87,953,o),
(227,917,o),
(300,834,cs),
(365,759,o),
(449,623,o),
(539,473,cs),
(639,305,o),
(732,141,o),
(820,0,c)
);
}
);
width = 2622;
}
);
note = v;
unicode = 118;
},
{
glyphname = w;
kernLeft = KO_w;
kernRight = KO_w;
lastChange = "2023-11-30 04:50:27 +0000";
layers = (
{
anchors = (
{
name = bottom;
pos = (1919,0);
},
{
name = top;
pos = (1919,1047);
}
);
layerId = m01;
shapes = (
{
closed = 1;
nodes = (
(1670,0,l),
(1694,69,o),
(1739,190,o),
(1789,315,cs),
(1842,450,o),
(1896,570,o),
(1938,646,c),
(1982,569,o),
(2041,429,o),
(2088,310,cs),
(2136,184,o),
(2180,67,o),
(2208,0,c),
(3158,0,l),
(3192,97,o),
(3244,234,o),
(3314,411,cs),
(3384,586,o),
(3453,740,o),
(3498,818,cs),
(3553,911,o),
(3666,953,o),
(3827,953,c),
(3827,1047,l),
(3144,1047,l),
(3144,953,l),
(3284,953,o),
(3324,911,o),
(3324,861,cs),
(3324,828,o),
(3292,715,o),
(3227,528,cs),
(3169,360,o),
(3108,208,o),
(3073,141,c),
(3011,260,o),
(2939,432,o),
(2890,571,cs),
(2841,710,o),
(2806,826,o),
(2806,865,cs),
(2806,889,o),
(2821,910,o),
(2851,927,cs),
(2880,944,o),
(2925,953,o),
(2986,953,c),
(2986,1047,l),
(1638,1047,l),
(1638,953,l),
(1761,953,o),
(1815,939,o),
(1815,848,cs),
(1815,786,o),
(1778,649,o),
(1731,511,cs),
(1682,366,o),
(1629,230,o),
(1587,145,c),
(1524,272,o),
(1458,433,o),
(1409,578,cs),
(1357,729,o),
(1326,837,o),
(1326,874,cs),
(1326,922,o),
(1385,953,o),
(1480,953,c),
(1480,1047,l),
(10,1047,l),
(10,953,l),
(92,953,o),
(231,918,o),
(310,834,cs),
(376,760,o),
(456,606,o),
(531,440,cs),
(612,257,o),
(676,100,o),
(722,0,c)
);
}
);
width = 3837;
}
);
note = w;
unicode = 119;
},
{
glyphname = x;
kernLeft = KO_x;
kernRight = KO_x;
lastChange = "2023-11-30 06:10:43 +0000";
layers = (
{
anchors = (
{
name = bottom;
pos = (1371,0);
},
{
name = top;
pos = (1371,1047);
}
);
layerId = m01;
shapes = (
{
closed = 1;
nodes = (
(726,0,l),
(726,94,l),
(625,94,o),
(582,139.992,o),
(582,185,cs),
(582,217,o),
(623,265,o),
(681,318,cs),
(739,370,o),
(815,428,o),
(887,477,c),
(955,406,o),
(1012,341,o),
(1052,289,cs),
(1095,233,o),
(1116,198,o),
(1116,182,cs),
(1116,110,o),
(1048,94,o),
(953,94,c),
(953,0,l),
(2726,0,l),
(2726,94,l),
(2644,94,o),
(2420,147,o),
(2329,212,cs),
(2213,295,o),
(2097,397,o),
(1996,497,c),
(2053,544,o),
(2115,595,o),
(2184,649,cs),
(2399,818,ls),
(2504,902,o),
(2637,953,o),
(2730,953,c),
(2730,1047,l),
(2054,1047,l),
(2054,953,l),
(2154,953,o),
(2198,908,o),
(2198,861,cs),
(2198,830,o),
(2159,790,o),
(2103,743,cs),
(2046,696,o),
(1972,645,o),
(1900,596,c),
(1840,661,o),
(1790,721,o),
(1754,768,cs),
(1716,818,o),
(1698,851,o),
(1698,865,cs),
(1698,937,o),
(1766,953,o),
(1861,953,c),
(1861,1047,l),
(75,1047,l),
(75,953,l),
(116,953,o),
(193,940,o),
(275,920,cs),
(356,899,o),
(438,867,o),
(485,834,cs),
(590,757,o),
(696,665,o),
(791,573,c),
(690,482,o),
(565,381,o),
(408,256,cs),
(301,170,o),
(188,94,o),
(75,94,c),
(75,0,l)
);
}
);
width = 2741;
}
);
note = x;
unicode = 120;
userData = {
KernOnName = x;
};
},
{
glyphname = y;
kernLeft = KO_y;
kernRight = KO_y;
lastChange = "2023-11-30 04:50:27 +0000";
layers = (
{
anchors = (
{
name = bottom;
pos = (1306,0);
},
{
name = top;
pos = (1306,1047);
}
);
layerId = m01;
shapes = (
{
closed = 1;
nodes = (
(1057,-546,o),
(1243,-514,o),
(1415,-429,cs),
(1586,-345,o),
(1741,-208,o),
(1870,0,cs),
(1969,163,o),
(2038,313,o),
(2103,449,cs),
(2168,585,o),
(2228,708,o),
(2309,813,cs),
(2394,925,o),
(2465,953,o),
(2622,953,c),
(2622,1047,l),
(1859,1047,l),
(1859,953,l),
(1994,953,o),
(2115,934,o),
(2115,844,cs),
(2115,784,o),
(2057,646,o),
(1987,501,cs),
(1912,346,o),
(1836,206,o),
(1781,107,c),
(1703,249,o),
(1610,409,o),
(1528,557,cs),
(1443,710,o),
(1385,824,o),
(1385,864,cs),
(1385,937.991,o),
(1564,953,o),
(1656,953,c),
(1656,1047,l),
(-10,1047,l),
(-10,953,l),
(107,953,o),
(176,951,o),
(301,826,cs),
(376,750,o),
(466,633,o),
(567,478,cs),
(667,323,o),
(779,132,o),
(895,-89,c),
(1657,-89,l),
(1433,-361,o),
(1157,-443,o),
(832,-443,cs),
(739,-443,o),
(575,-429,o),
(486,-414,c),
(752,-414,o),
(888,-333,o),
(888,-234,cs),
(888,-119,o),
(704,-33,o),
(445,-33,cs),
(302,-33,o),
(185,-57,o),
(104,-97,cs),
(23,-138,o),
(-23,-195,o),
(-23,-263,cs),
(-23,-449,o),
(374,-546,o),
(865,-546,cs)
);
}
);
width = 2611;
}
);
note = y;
unicode = 121;
userData = {
KernOnName = y;
};
},
{
color = 9;
glyphname = yhook;
kernLeft = KO_y;
kernRight = KO_yhook;
lastChange = "2023-11-17 21:17:42 +0000";
layers = (
{
anchors = (
{
name = bottom;
pos = (1306,0);
},
{
name = top;
pos = (1306,1047);
}
);
layerId = m01;
shapes = (
{
closed = 1;
nodes = (
(1057,-546,o),
(1243,-514,o),
(1415,-429,cs),
(1586,-345,o),
(1741,-208,o),
(1870,0,cs),
(1969,163,o),
(2038,313,o),
(2103,449,cs),
(2168,585,o),
(2361,1163,o),
(2442,1308,cs),
(2493,1400,o),
(2593,1543,o),
(2889,1543,cs),
(2959,1543,o),
(3016,1534,o),
(3064,1511,c),
(2932,1511,o),
(2832,1491,o),
(2766,1457,cs),
(2700,1423,o),
(2666,1376,o),
(2666,1324,cs),
(2666,1271,o),
(2717,1222,o),
(2801,1186,cs),
(2885,1150,o),
(3001,1127,o),
(3130,1127,cs),
(3273,1127,o),
(3384,1153,o),
(3460,1197,cs),
(3536,1240,o),
(3577,1299,o),
(3577,1366,cs),
(3577,1542,o),
(3350,1660,o),
(2888,1660,cs),
(2536,1660,o),
(2345,1473,o),
(2259,1188,c),
(2216,1069,o),
(2057,646,o),
(1987,501,cs),
(1912,346,o),
(1836,206,o),
(1781,107,c),
(1703,249,o),
(1610,409,o),
(1528,557,cs),
(1443,710,o),
(1385,824,o),
(1385,864,cs),
(1385,937.991,o),
(1564,953,o),
(1656,953,c),
(1656,1047,l),
(-10,1047,l),
(-10,953,l),
(107,953,o),
(176,951,o),
(301,826,cs),
(376,750,o),
(466,633,o),
(567,478,cs),
(667,323,o),
(779,132,o),
(895,-89,c),
(1657,-89,l),
(1433,-361,o),
(1157,-443,o),
(832,-443,cs),
(739,-443,o),
(575,-429,o),
(486,-414,c),
(752,-414,o),
(888,-333,o),
(888,-234,cs),
(888,-119,o),
(704,-33,o),
(445,-33,cs),
(302,-33,o),
(185,-57,o),
(104,-97,cs),
(23,-138,o),
(-23,-195,o),
(-23,-263,cs),
(-23,-449,o),
(374,-546,o),
(865,-546,cs)
);
}
);
width = 2611;
}
);
unicode = 436;
},
{
glyphname = z;
kernLeft = KO_z;
kernRight = KO_z;
lastChange = "2023-11-30 04:50:27 +0000";
layers = (
{
anchors = (
{
name = bottom;
pos = (1230,0);
},
{
name = center;
pos = (1230,524);
},
{
name = top;
pos = (1230,1047);
}
);
layerId = m01;
shapes = (
{
closed = 1;
nodes = (
(2333,0,l),
(2333,387,l),
(2220,387,l),
(2220,268,o),
(2152,195,o),
(2017,151,cs),
(1881,107,o),
(1677,92,o),
(1408,88,c),
(1833,468,o),
(2050,685,o),
(2169,807,cs),
(2266,906,o),
(2304,953,o),
(2345,953,c),
(2345,1047,l),
(187,1047,l),
(187,660,l),
(300,660,l),
(300,776,o),
(361,849,o),
(490,895,cs),
(619,941,o),
(817,959,o),
(1090,964,c),
(694,606,o),
(496,406,o),
(346,256,cs),
(236,146,o),
(197,104,o),
(136,104,c),
(136,0,l)
);
}
);
width = 2459;
}
);
note = z;
unicode = 122;
},
{
glyphname = ordfeminine;
kernLeft = KO_ordfeminine;
kernRight = KO_ordfeminine;
lastChange = "2023-11-30 04:50:27 +0000";
layers = (
{
layerId = m01;
shapes = (
{
closed = 1;
nodes = (
(752,946,o),
(844,959,o),
(916,976,cs),
(987,993,o),
(1036,1015,o),
(1069,1035,c),
(1096,996,o),
(1141,974,o),
(1201,962,cs),
(1261,950,o),
(1337,947,o),
(1425,947,cs),
(1651,947,o),
(1854,972,o),
(1854,1188,c),
(1776,1188,l),
(1765,1113,o),
(1744,1075,o),
(1681,1075,cs),
(1625,1075,o),
(1591,1127,o),
(1591,1244,cs),
(1591,1387,ls),
(1591,1504,o),
(1497,1567,o),
(1360,1597,cs),
(1213,1629,o),
(1051,1630,o),
(878,1630,cs),
(759,1630,o),
(634,1618,o),
(532,1592,cs),
(430,1565,o),
(355,1523,o),
(355,1464,cs),
(355,1387,o),
(488.005,1350,o),
(623,1350,cs),
(770,1350,o),
(902,1369,o),
(902,1452,cs),
(902,1487,o),
(876,1513,o),
(832,1530,cs),
(787,1546,o),
(724,1555,o),
(648,1555,c),
(696,1559,o),
(754,1560,o),
(813,1560,cs),
(967,1560,o),
(1040,1530,o),
(1040,1400,cs),
(1040,1290,l),
(1000,1295,o),
(937,1300,o),
(865,1302,cs),
(792,1304,o),
(707,1305,o),
(622,1305,cs),
(525,1305,o),
(430,1295,o),
(359,1267,cs),
(287,1239,o),
(241,1191,o),
(241,1118,cs),
(241,1054,o),
(293,1012,o),
(368,985,cs),
(443,957,o),
(541,946,o),
(633,946,cs)
);
},
{
closed = 1;
nodes = (
(825,1069,o),
(772,1090,o),
(772,1146,cs),
(772,1213,o),
(832,1221,o),
(937,1221,cs),
(1040,1219,l),
(1040,1147,ls),
(1040,1127,o),
(1041,1109,o),
(1045,1093,c),
(998,1080,o),
(940,1069,o),
(889,1069,cs)
);
}
);
width = 2005;
}
);
note = ordfeminine;
unicode = 170;
},
{
glyphname = ordmasculine;
kernLeft = KO_ordmasculine;
kernRight = KO_ordmasculine;
lastChange = "2023-11-30 04:50:27 +0000";
layers = (
{
layerId = m01;
shapes = (
{
closed = 1;
nodes = (
(1427,946,o),
(1719,1055,o),
(1719,1287,cs),
(1719,1520,o),
(1428,1630,o),
(998,1630,cs),
(565,1630,o),
(277,1518,o),
(277,1287,cs),
(277,1056,o),
(566,946,o),
(998,946,cs)
);
},
{
closed = 1;
nodes = (
(921,1039,o),
(876,1140.991,o),
(876,1287,cs),
(876,1438,o),
(922,1538,o),
(998,1538,cs),
(1079,1538,o),
(1120,1431,o),
(1120,1287,cs),
(1120,1146,o),
(1078,1039,o),
(998,1039,cs)
);
}
);
width = 1997;
}
);
note = ordmasculine;
unicode = 186;
},
{
glyphname = zero;
kernLeft = KO_zero;
kernRight = KO_zero;
lastChange = "2023-11-30 04:50:27 +0000";
layers = (
{
layerId = m01;
shapes = (
{
closed = 1;
nodes = (
(1942,-57,o),
(2293,-16,o),
(2575,98,cs),
(2848,208,o),
(3020,388,o),
(3020,646,cs),
(3020,821,o),
(2941,958,o),
(2809,1062,cs),
(2743,1113,o),
(2665,1157,o),
(2575,1194,cs),
(2300,1304,o),
(1949,1347,o),
(1580,1347,cs),
(1211,1347,o),
(860,1304,o),
(587,1194,cs),
(406,1121,o),
(272,1019,o),
(197,881,cs),
(160,812,o),
(141,733,o),
(141,646,cs),
(141,389,o),
(313,207,o),
(587,98,cs),
(866,-15,o),
(1217,-57,o),
(1580,-57,cs)
);
},
{
closed = 1;
nodes = (
(1473,56,o),
(1408,146,o),
(1372,267,cs),
(1334,396,o),
(1324,531,o),
(1324,643,cs),
(1324,745,o),
(1334,878,o),
(1372,1011,cs),
(1408,1136,o),
(1473,1234,o),
(1574,1234,cs),
(1642,1234,o),
(1695,1193,o),
(1734,1130,cs),
(1753,1098,o),
(1770,1062,o),
(1783,1021,cs),
(1824,895,o),
(1837,752,o),
(1837,643,cs),
(1837,534,o),
(1824,393,o),
(1783,267,cs),
(1743,146,o),
(1673,56,o),
(1574,56,cs)
);
}
);
width = 3161;
}
);
note = zero;
unicode = 48;
},
{
glyphname = one;
kernLeft = KO_one;
kernRight = KO_one;
lastChange = "2023-11-30 04:50:27 +0000";
layers = (
{
layerId = m01;
shapes = (
{
closed = 1;
nodes = (
(2209,0,l),
(2209,94,l),
(2070,98,o),
(1967,116,o),
(1892,153,cs),
(1854,172,o),
(1823,196,o),
(1798,225,cs),
(1749,283,o),
(1721,365,o),
(1710,477,cs),
(1704,532,o),
(1701,596,o),
(1701,668,cs),
(1701,1302,l),
(1545,1347,l),
(1431,1316,o),
(1128,1266,o),
(866,1234,cs),
(585,1199,o),
(293,1171,o),
(133,1171,c),
(133,1050,l),
(361,1047,o),
(505,1000,o),
(591,921,cs),
(677,841,o),
(705,730,o),
(705,602,cs),
(705,248,o),
(553,107,o),
(70,94,c),
(70,0,l)
);
}
);
width = 2234;
}
);
note = one;
unicode = 49;
},
{
glyphname = two;
kernLeft = KO_two;
kernRight = KO_two;
lastChange = "2023-11-30 04:50:27 +0000";
layers = (
{
layerId = m01;
shapes = (
{
closed = 1;
nodes = (
(2719,-81,o),
(3002,1,o),
(3002,320,cs),
(3002,459,o),
(2903,545,o),
(2839,583,c),
(2819,519,o),
(2723,472,o),
(2581,440,cs),
(2439,408,o),
(2251,392,o),
(2046,392,cs),
(1853,393,l),
(1655,394,ls),
(1072,394,o),
(690,341,o),
(525,204,c),
(523,215,o),
(522,226,o),
(522,237,cs),
(522,306,o),
(577,370,o),
(707,418,cs),
(837,466,o),
(1042,499,o),
(1342,510,cs),
(1890,527,o),
(2291,562,o),
(2553,630,cs),
(2815,698,o),
(2940,801,o),
(2940,954,cs),
(2940,1053,o),
(2871,1127,o),
(2763,1183,cs),
(2655,1238,o),
(2509,1275,o),
(2355,1300,cs),
(2201,1324,o),
(2038,1337,o),
(1899,1343,cs),
(1760,1349,o),
(1645,1349,o),
(1582,1349,cs),
(1247,1349,o),
(943,1316,o),
(718,1257,cs),
(494,1198,o),
(348,1113,o),
(348,1007,cs),
(348,911,o),
(413,844,o),
(510,800,cs),
(607,756,o),
(737,736,o),
(868,736,cs),
(1007,736,o),
(1134,758,o),
(1227,799,cs),
(1319,839,o),
(1377,897,o),
(1377,969,cs),
(1377,1022,o),
(1351,1075,o),
(1280,1115,cs),
(1209,1155,o),
(1093,1184,o),
(913,1191,c),
(1007,1200,o),
(1148,1212,o),
(1269,1212,cs),
(1453,1212,o),
(1599,1185,o),
(1699,1138,cs),
(1798,1090,o),
(1851,1021,o),
(1851,937,cs),
(1851,773,o),
(1634,695,o),
(1225,655,cs),
(896,622,o),
(646,576,o),
(478,502,cs),
(310,428,o),
(225,325,o),
(225,181,cs),
(225,8,o),
(370,-79,o),
(535,-79,cs),
(644,-79,o),
(736,-10,o),
(736,62,cs),
(736,79,o),
(730,97,o),
(717,115,c),
(741,115,ls),
(954,115,o),
(1238,67,o),
(1531,17,cs),
(1825,-33,o),
(2126,-81,o),
(2372,-81,cs)
);
}
);
width = 3217;
}
);
note = two;
unicode = 50;
},
{
glyphname = three;
kernLeft = KO_three;
kernRight = KO_three;
lastChange = "2023-11-30 04:50:27 +0000";
layers = (
{
layerId = m01;
shapes = (
{
closed = 1;
nodes = (
(1802,-57,o),
(2083,-50,o),
(2321,-29,cs),
(2440,-19,o),
(2547,-5,o),
(2644,13,cs),
(2836,49,o),
(2975,104,o),
(3049,181,cs),
(3086,220,o),
(3104,265,o),
(3104,317,cs),
(3104,430,o),
(3009,506,o),
(2827,555,cs),
(2645,603,o),
(2377,625,o),
(2030,636,c),
(2657,671,o),
(2946,767,o),
(2946,992,cs),
(2946,1073,o),
(2877,1140,o),
(2761,1193,cs),
(2703,1219,o),
(2634,1242,o),
(2555,1261,cs),
(2326,1317,o),
(2022,1347,o),
(1686,1347,cs),
(1337,1347,o),
(1005,1315,o),
(760,1261,cs),
(587,1223,o),
(458,1173,o),
(386,1113,cs),
(349,1083,o),
(331,1050,o),
(331,1015,cs),
(331,919,o),
(396,852,o),
(493,808,cs),
(590,764,o),
(720,744,o),
(851,744,cs),
(991,744,o),
(1118,766,o),
(1210,807,cs),
(1302,847,o),
(1360,905,o),
(1360,977,cs),
(1360,1030,o),
(1335,1083,o),
(1264,1123,cs),
(1192,1163,o),
(1077,1192,o),
(897,1199,c),
(940,1200,o),
(1005,1206,o),
(1094,1213,cs),
(1176,1219,o),
(1272,1224,o),
(1368,1224,cs),
(1499,1224,o),
(1631,1213,o),
(1731,1175,cs),
(1830,1137,o),
(1897,1071,o),
(1897,964,cs),
(1897,876,o),
(1844,807,o),
(1737,756,cs),
(1630,705,o),
(1469,679,o),
(1252,679,c),
(1252,582,l),
(1706,579,o),
(1893,468,o),
(1893,324,cs),
(1893,223,o),
(1817,158,o),
(1701,122,cs),
(1588,85,o),
(1438,73,o),
(1281,73,cs),
(1068,73,o),
(851,93,o),
(765,99,c),
(1104,104,o),
(1266,200,o),
(1266,293,cs),
(1266,392,o),
(1085,491,o),
(748,491,cs),
(613,491,o),
(477,470,o),
(376,429,cs),
(270,387,o),
(201,325,o),
(201,242,cs),
(201,174,o),
(272,117,o),
(391,73,cs),
(450,51,o),
(521,32,o),
(603,16,cs),
(840,-32,o),
(1151,-57,o),
(1498,-57,cs)
);
}
);
width = 3248;
}
);
note = three;
unicode = 51;
},
{
glyphname = four;
kernLeft = KO_four;
kernRight = KO_four;
lastChange = "2023-11-30 04:50:27 +0000";
layers = (
{
layerId = m01;
shapes = (
{
closed = 1;
nodes = (
(2993,0,l),
(2993,94,l),
(2872,98,o),
(2774,102,o),
(2697,115,cs),
(2658,122,o),
(2625,131,o),
(2597,144,cs),
(2509,183,o),
(2466,259,o),
(2450,399,c),
(3024,399,l),
(3024,526,l),
(2443,526,l),
(2443,1326,l),
(1228,1326,l),
(1228,1299,o),
(1154,1237,o),
(1074,1177,cs),
(981,1106,o),
(853,1021,o),
(720,934,cs),
(587,846,o),
(446,759,o),
(326,686,cs),
(205,613,o),
(105,555,o),
(52,526,c),
(52,399,l),
(1287,399,l),
(1256,283,o),
(1184,209,o),
(1080,163,cs),
(975,117,o),
(837,99,o),
(674,94,c),
(674,0,l)
);
},
{
closed = 1;
nodes = (
(622,529,o),
(609,539,o),
(609,556,cs),
(609,592,o),
(642,645,o),
(692,705,cs),
(742,765,o),
(811,832,o),
(884,895,cs),
(957,958,o),
(1036,1015,o),
(1105,1058,cs),
(1174,1101,o),
(1235,1127,o),
(1272,1127,cs),
(1294,1127,o),
(1305,1119,o),
(1305,1103,cs),
(1305,546,l),
(1305,536,l),
(1304,526,l),
(654,526,l)
);
}
);
width = 3208;
}
);
note = four;
unicode = 52;
},
{
glyphname = five;
kernLeft = KO_five;
kernRight = KO_five;
lastChange = "2023-11-30 04:50:27 +0000";
layers = (
{
layerId = m01;
shapes = (
{
closed = 1;
nodes = (
(2003,-57,o),
(2320,-16,o),
(2560,60,cs),
(2724,112,o),
(2845,182,o),
(2913,268,cs),
(2946,311,o),
(2963,358,o),
(2963,410,cs),
(2963,674,o),
(2598,798,o),
(1669,798,cs),
(1289,798,o),
(847,772,o),
(512,675,c),
(526,760,o),
(533,829,o),
(545,941,c),
(662,986,o),
(819,992,o),
(933,992,cs),
(1140,992,o),
(1358,966,o),
(1592,939,cs),
(1826,911,o),
(2074,885,o),
(2342,885,cs),
(2647,885,o),
(2789,993,o),
(2789,1205,cs),
(2789,1261,o),
(2778,1319,o),
(2751,1383,c),
(2654,1305,o),
(2462,1281,o),
(2319,1281,cs),
(2220,1281,o),
(2074,1291,o),
(1914,1300,cs),
(1746,1309,o),
(1556,1319,o),
(1364,1319,cs),
(1219,1319,o),
(1071,1307,o),
(926,1280,cs),
(781,1253,o),
(648,1207,o),
(560,1145,c),
(561,1153,l),
(561,1159,ls),
(561,1227,o),
(538,1296,o),
(437,1296,cs),
(416,1296,o),
(412,1291,o),
(381,1283,c),
(381,1105,o),
(362,780,o),
(312,600,c),
(462,551,l),
(576,587,o),
(886,650,o),
(1124,650,cs),
(1305,650,o),
(1468,635,o),
(1600,591,cs),
(1725,548,o),
(1807,473,o),
(1807,359,cs),
(1807,261,o),
(1704,182,o),
(1548,134,cs),
(1396,86,o),
(1208,60,o),
(999,60,cs),
(892,60,o),
(787,81,o),
(701,89,c),
(1040,94,o),
(1202,190,o),
(1202,283,cs),
(1202,381,o),
(1023,481,o),
(683,481,cs),
(532,481,o),
(401,461,o),
(307,422,cs),
(213,382,o),
(156,325,o),
(156,252,cs),
(156,169,o),
(240,107,o),
(378,61,cs),
(447,38,o),
(528,19,o),
(623,4,cs),
(905,-41,o),
(1260,-57,o),
(1645,-57,cs)
);
}
);
width = 3120;
}
);
note = five;
unicode = 53;
},
{
glyphname = six;
kernLeft = KO_six;
kernRight = KO_six;
lastChange = "2023-11-30 04:50:27 +0000";
layers = (
{
layerId = m01;
shapes = (
{
closed = 1;
nodes = (
(1945,-56,o),
(2187,-41,o),
(2396,-10,cs),
(2501,5,o),
(2596,25,o),
(2683,49,cs),
(2856,96,o),
(2982,161,o),
(3051,242,cs),
(3085,283,o),
(3102,328,o),
(3102,378,cs),
(3102,515,o),
(2998,616,o),
(2822,681,cs),
(2645,746,o),
(2393,778,o),
(2100,778,cs),
(1939,778,o),
(1798,766,o),
(1673,746,cs),
(1548,726,o),
(1437,698,o),
(1333,665,c),
(1334,841,o),
(1371,966,o),
(1428,1052,cs),
(1457,1095,o),
(1490,1129,o),
(1529,1155,cs),
(1605,1206,o),
(1692,1232,o),
(1782,1241,cs),
(1827,1245,o),
(1870,1247,o),
(1913,1247,cs),
(1982,1247,o),
(2089,1236,o),
(2165,1213,c),
(1936,1213,o),
(1810,1128,o),
(1810,1033,cs),
(1810,934,o),
(2047,850,o),
(2423,850,cs),
(2703,850,o),
(2962,911,o),
(2962,1053,cs),
(2962,1142,o),
(2830,1214,o),
(2622,1265,cs),
(2479,1300,o),
(2303,1324,o),
(2099,1337,cs),
(1996,1343,o),
(1889,1346,o),
(1776,1346,cs),
(1399,1346,o),
(999,1297,o),
(699,1184,cs),
(549,1127,o),
(423,1054,o),
(335,963,cs),
(246,872,o),
(195,763,o),
(195,635,cs),
(195,357,o),
(386,177,o),
(678,76,cs),
(871,9,o),
(1095,-29,o),
(1334,-44,cs),
(1453,-52,o),
(1572,-56,o),
(1689,-56,cs)
);
},
{
closed = 1;
nodes = (
(1617,57,o),
(1536,65,o),
(1465,134,cs),
(1419,178,o),
(1382,252,o),
(1358,362,cs),
(1346,417,o),
(1338,483,o),
(1335,561,c),
(1419,590,o),
(1523,617,o),
(1632,617,cs),
(1831,617,o),
(2028,535,o),
(2028,326,cs),
(2028,114,o),
(1832,57,o),
(1699,57,cs)
);
}
);
width = 3267;
}
);
note = six;
unicode = 54;
},
{
glyphname = seven;
kernLeft = KO_seven;
kernRight = KO_seven;
lastChange = "2023-11-30 04:50:27 +0000";
layers = (
{
layerId = m01;
shapes = (
{
closed = 1;
nodes = (
(1612,-72,o),
(1759,-36,o),
(1864,20,cs),
(1968,76,o),
(2032,151,o),
(2048,231,cs),
(2065,332,o),
(2125,401,o),
(2206,457,cs),
(2290,515,o),
(2383,551,o),
(2487,604,cs),
(2586,654,o),
(2683,711,o),
(2755,797,cs),
(2827,883,o),
(2875,996,o),
(2875,1160,cs),
(2875,1355,l),
(2632,1314,o),
(2392,1280,o),
(2145,1280,cs),
(1671,1280,o),
(1272,1381,o),
(806,1381,cs),
(535,1381,o),
(353,1352,o),
(239,1287,cs),
(125,1222,o),
(78,1120,o),
(78,975,cs),
(78,824,o),
(230,665,o),
(322,625,c),
(407,625,l),
(407,730,o),
(474,801,o),
(643,846,cs),
(811,891,o),
(1080,910,o),
(1484,910,cs),
(1728,910,o),
(1988,923,o),
(2220,949,cs),
(2447,975,o),
(2645,1011,o),
(2761,1059,c),
(2689,831,o),
(2362,746,o),
(1997,689,cs),
(1745,649,o),
(1231,605,o),
(996,485,cs),
(881,426,o),
(811,346,o),
(811,229,cs),
(811,115,o),
(885,38,o),
(1004,-9,cs),
(1119,-55,o),
(1269,-72,o),
(1432,-72,cs)
);
}
);
width = 2993;
}
);
note = seven;
unicode = 55;
},
{
glyphname = eight;
kernLeft = KO_eight;
kernRight = KO_eight;
lastChange = "2023-11-30 04:50:27 +0000";
layers = (
{
layerId = m01;
shapes = (
{
closed = 1;
nodes = (
(2553,-57,o),
(3008,135,o),
(3008,364,cs),
(3008,489,o),
(2927,590,o),
(2796,668,cs),
(2664,746,o),
(2482,803,o),
(2279,843,c),
(2519,864,o),
(2736,955,o),
(2736,1064,cs),
(2736,1129,o),
(2658,1180,o),
(2537,1217,cs),
(2476,1236,o),
(2406,1251,o),
(2327,1264,cs),
(2094,1301,o),
(1812,1316,o),
(1551,1316,cs),
(1213,1316,o),
(901,1283,o),
(671,1216,cs),
(437,1148,o),
(291,1041,o),
(291,898,cs),
(291,681,o),
(532,553,o),
(814,473,c),
(667,460,o),
(526,438,o),
(422,400,cs),
(317,362,o),
(249,305,o),
(249,224,cs),
(249,168,o),
(301,122,o),
(388,86,cs),
(475,49,o),
(594,20,o),
(730,-1,cs),
(990,-42,o),
(1329,-57,o),
(1571,-57,cs)
);
},
{
closed = 1;
nodes = (
(1072,50,o),
(800,115,o),
(800,262,c),
(806,356,o),
(872,419,o),
(939,441,c),
(1016,424,o),
(1093,407,o),
(1169,396,cs),
(1449,355,o),
(1659,320,o),
(1800,284,cs),
(1926,252,o),
(2010,214,o),
(2010,162,cs),
(2005,62,o),
(1780,50,o),
(1577,50,cs)
);
},
{
closed = 1;
nodes = (
(2078,877,l),
(2010,886,ls),
(1770,915,o),
(1582,948,o),
(1454,986,cs),
(1326,1024,o),
(1257,1070,o),
(1257,1130,cs),
(1260,1212,o),
(1460,1215,o),
(1602,1215,cs),
(1994,1215,o),
(2242,1155,o),
(2242,1019,c),
(2237,946,o),
(2205,896,o),
(2144,867,c)
);
}
);
width = 3126;
}
);
note = eight;
unicode = 56;
},
{
glyphname = nine;
kernLeft = KO_nine;
kernRight = KO_nine;
lastChange = "2023-11-30 04:50:27 +0000";
layers = (
{
layerId = m01;
shapes = (
{
closed = 1;
nodes = (
(1690,-56,o),
(1987,-34,o),
(2239,14,cs),
(2365,38,o),
(2479,69,o),
(2582,107,cs),
(2886,218,o),
(3072,397,o),
(3072,655,cs),
(3072,933,o),
(2884,1113,o),
(2595,1214,cs),
(2403,1281,o),
(2181,1319,o),
(1943,1335,cs),
(1824,1342,o),
(1705,1346,o),
(1588,1346,cs),
(1315,1346,o),
(1066,1331,o),
(855,1300,cs),
(750,1285,o),
(654,1265,o),
(569,1242,cs),
(398,1194,o),
(278,1129,o),
(214,1048,cs),
(181,1007,o),
(165,962,o),
(165,912,cs),
(165,638,o),
(579,492,o),
(1167,492,cs),
(1509,492,o),
(1743,537,o),
(1933,599,c),
(1930,424,o),
(1885,304,o),
(1819,222,cs),
(1786,181,o),
(1749,148,o),
(1708,125,cs),
(1627,77,o),
(1543,54,o),
(1471,48,cs),
(1434,45,o),
(1404,43,o),
(1380,43,cs),
(1311,43,o),
(1195,55,o),
(1122,77,c),
(1354.008,77,o),
(1478,154,o),
(1478,247,cs),
(1478,345,o),
(1243,420,o),
(864,420,cs),
(724,420,o),
(584,404,o),
(479,372,cs),
(374,339,o),
(303,288,o),
(303,217,cs),
(303,33,o),
(732,-56,o),
(1369,-56,cs)
);
},
{
closed = 1;
nodes = (
(1435,653,o),
(1239,736,o),
(1239,944,cs),
(1239,1158,o),
(1446,1233,o),
(1579,1233,cs),
(1766,1233,o),
(1916,1155,o),
(1932,708,c),
(1848,679,o),
(1744,653,o),
(1636,653,cs)
);
}
);
width = 3267;
}
);
note = nine;
unicode = 57;
},
{
glyphname = onehalf;
lastChange = "2023-11-30 04:50:27 +0000";
layers = (
{
layerId = m01;
shapes = (
{
closed = 1;
nodes = (
(654,-163,o),
(853,41,o),
(1025,215,cs),
(1268,459,o),
(1391,580,o),
(1477,666,cs),
(1659,845,ls),
(1737,922,o),
(1826,1011,o),
(1927,1109,cs),
(2128,1304,o),
(2290,1463,o),
(2383,1543,c),
(2344,1605,o),
(2289,1657,o),
(2227,1703,c),
(2142,1608,o),
(1995,1455,o),
(1799,1253,cs),
(1650,1099,o),
(1469,916,o),
(1336,783,cs),
(1156,605,l),
(889,347,ls),
(692,158,o),
(526,1,o),
(443,-64,c),
(486,-131,o),
(539,-184,o),
(601,-225,c)
);
},
{
closed = 1;
nodes = (
(1281,884,l),
(1281,966,l),
(1073,974,o),
(1009,1095,o),
(1009,1325,cs),
(1009,1749,l),
(917,1773,l),
(849,1755,o),
(724,1730,o),
(590,1710,cs),
(454,1690,o),
(320,1674,o),
(235,1674,c),
(235,1593,l),
(345,1591,o),
(420,1551,o),
(458,1492,cs),
(498,1429,o),
(508,1360,o),
(508,1291,cs),
(508,1102,o),
(446,974,o),
(204,966,c),
(204,884,l)
);
},
{
closed = 1;
nodes = (
(2900,-132,o),
(3045,-95,o),
(3045,88,cs),
(3045,176,o),
(2997,236,o),
(2958,260,c),
(2947,224,o),
(2896,196,o),
(2821,177,cs),
(2745,157,o),
(2645,148,o),
(2536,148,cs),
(2316,148,o),
(2141,143,o),
(2009,126,cs),
(1876,109,o),
(1785,79,o),
(1733,27,c),
(1732,27,l),
(1731,32,o),
(1730,37,o),
(1730,41,cs),
(1730,52,ls),
(1730,99,o),
(1756,146,o),
(1821,183,cs),
(1886,219,o),
(1991,246,o),
(2151,254,cs),
(2443,267,o),
(2656,291,o),
(2796,339,cs),
(2936,387,o),
(3002,458,o),
(3002,566,cs),
(3002,691,o),
(2853,754,o),
(2691,785,cs),
(2524,816,o),
(2347,816,o),
(2281,816,cs),
(1898,816,o),
(1643,723,o),
(1643,598,cs),
(1643,480,o),
(1771,430,o),
(1902,430,cs),
(2034,430,o),
(2171,483,o),
(2171,576,cs),
(2171,643,o),
(2118,691,o),
(1924,702,c),
(1970,705,o),
(2040,713,o),
(2114,713,cs),
(2315,713,o),
(2432,661,o),
(2432,558,cs),
(2432,447,o),
(2315,394,o),
(2090,361,cs),
(1739,318,o),
(1583,210,o),
(1583,21,cs),
(1583,-76,o),
(1654,-128,o),
(1735,-128,cs),
(1789,-128,o),
(1836,-90,o),
(1836,-48,cs),
(1836,-37,o),
(1832,-27,o),
(1827,-18,c),
(1838,-18,ls),
(1941,-18,o),
(2101,-46,o),
(2255,-75,cs),
(2411,-104,o),
(2583,-132,o),
(2711,-132,cs)
);
}
);
width = 3188;
}
);
note = onehalf;
unicode = 189;
},
{
glyphname = onequarter;
lastChange = "2023-11-30 04:50:27 +0000";
layers = (
{
layerId = m01;
shapes = (
{
closed = 1;
nodes = (
(644,-163,o),
(843,41,o),
(1015,215,cs),
(1258,459,o),
(1381,580,o),
(1467,666,cs),
(1649,845,ls),
(1727,922,o),
(1816,1011,o),
(1917,1109,cs),
(2118,1304,o),
(2280,1463,o),
(2373,1543,c),
(2334,1605,o),
(2279,1657,o),
(2217,1703,c),
(2132,1608,o),
(1985,1455,o),
(1789,1253,cs),
(1640,1099,o),
(1459,916,o),
(1326,783,cs),
(1146,605,l),
(879,347,ls),
(682,158,o),
(516,1,o),
(433,-64,c),
(476,-131,o),
(529,-184,o),
(591,-225,c)
);
},
{
closed = 1;
nodes = (
(1241,884,l),
(1241,966,l),
(1033,974,o),
(969,1095,o),
(969,1325,cs),
(969,1749,l),
(877,1773,l),
(814,1756,o),
(694,1731,o),
(550,1710,cs),
(414,1690,o),
(280,1674,o),
(195,1674,c),
(195,1593,l),
(305,1591,o),
(380,1551,o),
(418,1492,cs),
(458,1429,o),
(468,1360,o),
(468,1291,cs),
(468,1102,o),
(406,974,o),
(164,966,c),
(164,884,l)
);
},
{
closed = 1;
nodes = (
(2977,0,l),
(2977,59,l),
(2802,66,o),
(2720,151,o),
(2697,310,c),
(3015,310,l),
(3015,418,l),
(2690,418,l),
(2690,858,l),
(2019,858,l),
(2019,830,o),
(1883,729,o),
(1760,642,cs),
(1621,544,o),
(1484,453,o),
(1420,418,c),
(1420,310,l),
(2104,310,l),
(2070,173,o),
(1967,64,o),
(1811,59,c),
(1811,0,l)
);
},
{
closed = 1;
nodes = (
(1697,408,o),
(1697,409,o),
(1697,411,cs),
(1697,448,o),
(1777,531,o),
(1869,605,cs),
(1971,687,o),
(2065,742,o),
(2101,742,cs),
(2112,742,o),
(2117,738,o),
(2117,729,cs),
(2117,418,l),
(1721,418,l),
(1714,417,o),
(1709,415,o),
(1706,412,cs),
(1702,409,o),
(1699,408,o),
(1698,408,cs)
);
}
);
width = 3188;
}
);
note = onequarter;
unicode = 188;
},
{
glyphname = threequarters;
lastChange = "2023-11-30 04:50:27 +0000";
layers = (
{
layerId = m01;
shapes = (
{
closed = 1;
nodes = (
(813,-163,o),
(1012,41,o),
(1184,215,cs),
(1427,459,o),
(1550,580,o),
(1636,666,cs),
(1818,845,ls),
(1896,922,o),
(1985,1011,o),
(2086,1109,cs),
(2287,1304,o),
(2449,1463,o),
(2542,1543,c),
(2503,1605,o),
(2448,1657,o),
(2386,1703,c),
(2301,1608,o),
(2154,1455,o),
(1958,1253,cs),
(1809,1099,o),
(1628,916,o),
(1495,783,cs),
(1315,605,l),
(1048,347,ls),
(851,158,o),
(685,1,o),
(602,-64,c),
(645,-131,o),
(698,-184,o),
(760,-225,c)
);
},
{
closed = 1;
nodes = (
(1268,921,o),
(1615,957,o),
(1615,1141,cs),
(1615,1279,o),
(1361,1320,o),
(1023,1331,c),
(1323,1350,o),
(1533,1408,o),
(1533,1541,cs),
(1533,1612,o),
(1456,1665,o),
(1339,1700,cs),
(1222,1734,o),
(1069,1750,o),
(906,1750,cs),
(737,1750,o),
(569,1732,o),
(446,1699,cs),
(319,1665,o),
(235,1615,o),
(235,1553,cs),
(235,1443,o),
(363,1399,o),
(494,1399,cs),
(629,1399,o),
(749,1449,o),
(749,1533,cs),
(749,1600,o),
(698,1648,o),
(516,1659,c),
(559,1659,o),
(660,1672,o),
(751,1672,cs),
(888,1672,o),
(1029,1659,o),
(1029,1527,cs),
(1029,1476,o),
(1003,1438,o),
(950,1414,cs),
(897,1390,o),
(816,1378,o),
(709,1378,c),
(709,1289,l),
(822,1289,o),
(902,1274,o),
(954,1250,cs),
(1005,1225,o),
(1028,1188,o),
(1028,1144,cs),
(1028,1016,o),
(868,1002,o),
(708,1002,cs),
(658,1002,o),
(610,1004,o),
(565,1008,cs),
(452,1016,l),
(537,1018,o),
(600,1029,o),
(641,1050,cs),
(681,1070,o),
(701,1096,o),
(701,1127,cs),
(701,1191,o),
(597,1243,o),
(442,1243,cs),
(312,1243,o),
(170,1193,o),
(170,1090,cs),
(170,1031,o),
(252,988,o),
(370,962,cs),
(489,935,o),
(642,921,o),
(816,921,cs)
);
},
{
closed = 1;
nodes = (
(3187,0,l),
(3187,59,l),
(3012,66,o),
(2930,151,o),
(2907,310,c),
(3225,310,l),
(3225,418,l),
(2900,418,l),
(2900,858,l),
(2219,858,l),
(2219,830,o),
(2083,729,o),
(1960,642,cs),
(1821,544,o),
(1684,453,o),
(1620,418,c),
(1620,310,l),
(2304,310,l),
(2270,173,o),
(2167,64,o),
(2011,59,c),
(2011,0,l)
);
},
{
closed = 1;
nodes = (
(1897,408,o),
(1897,409,o),
(1897,411,cs),
(1897,446,o),
(1967,522,o),
(2069,605,cs),
(2160,680,o),
(2260,742,o),
(2301,742,cs),
(2312,742,o),
(2317,738,o),
(2317,729,cs),
(2317,418,l),
(1926,418,ls),
(1918,418,o),
(1912,416,o),
(1907,413,cs),
(1902,410,o),
(1899,408,o),
(1898,408,cs)
);
}
);
width = 3363;
}
);
note = threequarters;
unicode = 190;
},
{
glyphname = onesuperior;
kernLeft = KO_onesuperior;
kernRight = KO_onesuperior;
lastChange = "2023-11-30 04:50:27 +0000";
layers = (
{
layerId = m01;
shapes = (
{
closed = 1;
nodes = (
(1281,884,l),
(1281,966,l),
(1078,974,o),
(1012,1085,o),
(1009,1308,cs),
(1009,1749,l),
(917,1773,l),
(849,1755,o),
(724,1730,o),
(590,1710,cs),
(454,1690,o),
(320,1674,o),
(235,1674,c),
(235,1593,l),
(345,1591,o),
(420,1551,o),
(458,1492,cs),
(498,1429,o),
(508,1360,o),
(508,1291,cs),
(508,1102,o),
(446,974,o),
(204,966,c),
(204,884,l)
);
}
);
width = 1357;
}
);
note = onesuperior;
unicode = 185;
},
{
glyphname = twosuperior;
kernLeft = KO_twosuperior;
kernRight = KO_twosuperior;
lastChange = "2023-11-30 04:50:27 +0000";
layers = (
{
layerId = m01;
shapes = (
{
closed = 1;
nodes = (
(1485,831,o),
(1630,868,o),
(1630,1051,cs),
(1630,1139,o),
(1582,1199,o),
(1543,1223,c),
(1532,1187,o),
(1481,1159,o),
(1406,1140,cs),
(1330,1120,o),
(1230,1111,o),
(1121,1111,cs),
(901,1111,o),
(726,1106,o),
(594,1089,cs),
(461,1072,o),
(370,1042,o),
(318,990,c),
(317,990,l),
(316,995,o),
(315,1000,o),
(315,1004,cs),
(315,1015,ls),
(315,1062,o),
(341,1109,o),
(406,1146,cs),
(471,1182,o),
(576,1209,o),
(736,1217,cs),
(1028,1230,o),
(1241,1254,o),
(1381,1302,cs),
(1521,1350,o),
(1587,1421,o),
(1587,1529,cs),
(1587,1654,o),
(1438,1717,o),
(1276,1748,cs),
(1109,1779,o),
(932,1779,o),
(866,1779,cs),
(483,1779,o),
(228,1686,o),
(228,1561,cs),
(228,1443,o),
(356,1393,o),
(487,1393,cs),
(619,1393,o),
(756,1446,o),
(756,1539,cs),
(756,1606,o),
(703,1654,o),
(509,1665,c),
(555,1668,o),
(625,1676,o),
(699,1676,cs),
(900,1676,o),
(1017,1624,o),
(1017,1521,cs),
(1017,1410,o),
(900,1357,o),
(675,1324,cs),
(324,1281,o),
(168,1173,o),
(168,984,cs),
(168,887,o),
(239,835,o),
(320,835,cs),
(374,835,o),
(421,873,o),
(421,915,cs),
(421,926,o),
(417,936,o),
(412,945,c),
(423,945,ls),
(526,945,o),
(686,917,o),
(840,888,cs),
(996,859,o),
(1168,831,o),
(1296,831,cs)
);
}
);
width = 1769;
}
);
note = twosuperior;
unicode = 178;
},
{
glyphname = threesuperior;
kernLeft = KO_threesuperior;
kernRight = KO_threesuperior;
lastChange = "2023-11-30 04:50:27 +0000";
layers = (
{
layerId = m01;
shapes = (
{
closed = 1;
nodes = (
(1340,921,o),
(1677,957,o),
(1677,1141,cs),
(1677,1279,o),
(1409,1320,o),
(1051,1331,c),
(1208,1340,o),
(1341,1360,o),
(1434,1393,cs),
(1527,1426,o),
(1581,1474,o),
(1581,1541,cs),
(1581,1613,o),
(1493,1665,o),
(1365,1700,cs),
(1238,1734,o),
(1070,1750,o),
(899,1750,cs),
(722,1750,o),
(549,1732,o),
(423,1699,cs),
(295,1666,o),
(210,1615,o),
(210,1553,cs),
(210,1443,o),
(345,1399,o),
(484,1399,cs),
(634,1399,o),
(763,1441,o),
(763,1523,cs),
(763,1556,o),
(761,1587,o),
(735,1610,cs),
(709,1633,o),
(658,1649,o),
(563,1654,c),
(586,1654,o),
(615,1657,o),
(649,1663,cs),
(683,1669,o),
(725,1672,o),
(775,1672,cs),
(924,1672,o),
(1048,1658,o),
(1048,1527,cs),
(1048,1476,o),
(1022,1438,o),
(969,1414,cs),
(916,1390,o),
(834,1378,o),
(721,1378,c),
(721,1289,l),
(841,1289,o),
(925,1274,o),
(979,1250,cs),
(1033,1225,o),
(1057,1188,o),
(1057,1144,cs),
(1057,1080,o),
(1020,1045,o),
(961,1025,cs),
(902,1005,o),
(823,1002,o),
(739,1002,cs),
(687,1002,o),
(642,1005,o),
(603,1010,cs),
(564,1015,o),
(530,1019,o),
(499,1021,c),
(588,1022,o),
(647,1034,o),
(683,1053,cs),
(719,1072,o),
(732,1098,o),
(732,1129,cs),
(732,1158,o),
(703,1187,o),
(652,1209,cs),
(601,1231,o),
(528,1245,o),
(439,1245,cs),
(301,1245,o),
(151,1205,o),
(151,1102,cs),
(151,1045,o),
(223,999,o),
(364,967,cs),
(499,936,o),
(694,921,o),
(930,921,cs)
);
}
);
width = 1769;
}
);
note = threesuperior;
unicode = 179;
},
{
glyphname = period;
kernLeft = KO_period;
kernRight = KO_period;
lastChange = "2023-11-30 04:50:27 +0000";
layers = (
{
layerId = m01;
shapes = (
{
closed = 1;
nodes = (
(834,-45,o),
(1030,67,o),
(1030,240,cs),
(1030,325,o),
(981,397,o),
(900,446,cs),
(819,494,o),
(704,522,o),
(573,522,cs),
(442,522,o),
(328,494,o),
(247,446,cs),
(166,397,o),
(117,325,o),
(117,240,cs),
(117,67,o),
(312,-45,o),
(573,-45,cs)
);
}
);
width = 1147;
}
);
note = period;
unicode = 46;
userData = {
KernOnName = period;
};
},
{
glyphname = comma;
kernLeft = KO_comma;
kernRight = KO_comma;
lastChange = "2023-11-30 04:50:27 +0000";
layers = (
{
layerId = m01;
shapes = (
{
closed = 1;
nodes = (
(822,-331,o),
(1073,-205,o),
(1073,159,cs),
(1073,268,o),
(1029,359,o),
(945,421,cs),
(860,483,o),
(734,518,o),
(573,518,cs),
(446,518,o),
(333,490,o),
(251,442,cs),
(169,393,o),
(117,321,o),
(117,236,cs),
(117,53,o),
(325,-39,o),
(573,-39,cs),
(710,-39,o),
(819,-23,o),
(903,44,c),
(890,-152,o),
(730,-220,o),
(534,-220,cs),
(406,-220,o),
(281,-193,o),
(194,-151,c),
(154,-257,l),
(274,-306,o),
(409,-331,o),
(540,-331,cs)
);
}
);
width = 1190;
}
);
note = comma;
unicode = 44;
},
{
glyphname = colon;
kernLeft = KO_colon;
kernRight = KO_colon;
lastChange = "2023-11-30 04:50:27 +0000";
layers = (
{
layerId = m01;
shapes = (
{
closed = 1;
nodes = (
(834,661,o),
(1030,773,o),
(1030,946,cs),
(1030,1031,o),
(981,1103,o),
(900,1152,cs),
(819,1200,o),
(704,1228,o),
(573,1228,cs),
(442,1228,o),
(328,1200,o),
(247,1152,cs),
(166,1103,o),
(117,1031,o),
(117,946,cs),
(117,773,o),
(312,661,o),
(573,661,cs)
);
},
{
closed = 1;
nodes = (
(834,-45,o),
(1030,67,o),
(1030,240,cs),
(1030,325,o),
(981,397,o),
(900,446,cs),
(819,494,o),
(704,522,o),
(573,522,cs),
(442,522,o),
(328,494,o),
(247,446,cs),
(166,397,o),
(117,325,o),
(117,240,cs),
(117,67,o),
(312,-45,o),
(573,-45,cs)
);
}
);
width = 1147;
}
);
note = colon;
unicode = 58;
},
{
glyphname = semicolon;
kernLeft = KO_semicolon;
kernRight = KO_semicolon;
lastChange = "2023-11-30 04:50:27 +0000";
layers = (
{
layerId = m01;
shapes = (
{
closed = 1;
nodes = (
(822,-331,o),
(1073,-205,o),
(1073,159,cs),
(1073,268,o),
(1029,359,o),
(945,421,cs),
(860,483,o),
(734,518,o),
(573,518,cs),
(446,518,o),
(333,490,o),
(251,442,cs),
(169,393,o),
(117,321,o),
(117,236,cs),
(117,53,o),
(325,-39,o),
(573,-39,cs),
(710,-39,o),
(819,-23,o),
(903,44,c),
(890,-152,o),
(730,-220,o),
(534,-220,cs),
(406,-220,o),
(281,-193,o),
(194,-151,c),
(154,-257,l),
(274,-306,o),
(409,-331,o),
(540,-331,cs)
);
},
{
closed = 1;
nodes = (
(834,661,o),
(1030,773,o),
(1030,946,cs),
(1030,1031,o),
(981,1103,o),
(900,1152,cs),
(819,1200,o),
(704,1228,o),
(573,1228,cs),
(442,1228,o),
(328,1200,o),
(247,1152,cs),
(166,1103,o),
(117,1031,o),
(117,946,cs),
(117,773,o),
(312,661,o),
(573,661,cs)
);
}
);
width = 1190;
}
);
note = semicolon;
unicode = 59;
},
{
glyphname = exclam;
kernLeft = KO_exclam;
kernRight = KO_exclam;
lastChange = "2023-11-30 04:50:27 +0000";
layers = (
{
layerId = m01;
shapes = (
{
closed = 1;
nodes = (
(639,661,o),
(690,684,o),
(690,739,cs),
(690,864,o),
(781,974,o),
(884,1073,cs),
(951,1138,o),
(1011,1203,o),
(1049,1271,cs),
(1068,1304,o),
(1077,1339,o),
(1077,1376,cs),
(1077,1603,o),
(842,1680,o),
(574,1680,cs),
(306,1680,o),
(71,1603,o),
(71,1376,cs),
(71,1303,o),
(114,1236,o),
(171,1171,cs),
(200,1138,o),
(231,1106,o),
(265,1073,cs),
(367,974,o),
(458,864,o),
(458,739,cs),
(458,684,o),
(507,661,o),
(574,661,cs)
);
},
{
closed = 1;
nodes = (
(699,-45,o),
(814,-14,o),
(897,36,cs),
(980,86,o),
(1031,154,o),
(1031,230,cs),
(1031,306,o),
(980,376,o),
(897,426,cs),
(814,476,o),
(699,507,o),
(574,507,cs),
(447,507,o),
(334,476,o),
(252,426,cs),
(170,376,o),
(118,306,o),
(118,230,cs),
(118,154,o),
(170,86,o),
(252,36,cs),
(334,-14,o),
(447,-45,o),
(574,-45,cs)
);
}
);
width = 1148;
}
);
note = exclam;
unicode = 33;
},
{
glyphname = exclamdown;
kernLeft = KO_exclamdown;
kernRight = KO_exclamdown;
lastChange = "2023-11-30 04:50:27 +0000";
layers = (
{
layerId = m01;
shapes = (
{
closed = 1;
nodes = (
(842,-535,o),
(1077,-458,o),
(1077,-231,cs),
(1077,-158,o),
(1034,-91,o),
(977,-26,cs),
(948,7,o),
(917,39,o),
(884,72,cs),
(781,171,o),
(690,281,o),
(690,406,cs),
(690,461,o),
(639,484,o),
(574,484,cs),
(507,484,o),
(458,461,o),
(458,406,cs),
(458,281,o),
(367,171,o),
(265,72,cs),
(197,7,o),
(138,-58,o),
(100,-125,cs),
(81,-159,o),
(71,-194,o),
(71,-231,cs),
(71,-458,o),
(306,-535,o),
(574,-535,cs)
);
},
{
closed = 1;
nodes = (
(699,638,o),
(815,670,o),
(897,720,cs),
(979,770,o),
(1030,839,o),
(1030,915,cs),
(1030,991,o),
(979,1060,o),
(897,1110,cs),
(815,1160,o),
(699,1190,o),
(574,1190,cs),
(447,1190,o),
(334,1160,o),
(251,1110,cs),
(168,1060,o),
(117,991,o),
(117,915,cs),
(117,839,o),
(168,770,o),
(251,720,cs),
(334,670,o),
(447,638,o),
(574,638,cs)
);
}
);
width = 1148;
}
);
note = exclamdown;
unicode = 161;
},
{
glyphname = question;
kernLeft = KO_question;
kernRight = KO_question;
lastChange = "2023-11-30 04:50:27 +0000";
layers = (
{
layerId = m01;
shapes = (
{
closed = 1;
nodes = (
(1350,635,o),
(1389,650,o),
(1413,678,cs),
(1434,701,o),
(1459,736,o),
(1518,762,cs),
(1687,838,o),
(1858,883,o),
(2010,920,cs),
(2220,973,ls),
(2349,1006,o),
(2446,1052,o),
(2499,1120,cs),
(2526,1154,o),
(2539,1197,o),
(2539,1250,cs),
(2539,1343,o),
(2485,1414,o),
(2399,1467,cs),
(2313,1519,o),
(2194,1555,o),
(2066,1580,cs),
(1937,1604,o),
(1798,1616,o),
(1671,1623,cs),
(1544,1630,o),
(1428,1630,o),
(1347,1630,cs),
(1020,1630,o),
(726,1603,o),
(490,1550,cs),
(329,1513,o),
(207,1462,o),
(139,1397,cs),
(105,1364,o),
(88,1328,o),
(88,1288,cs),
(88,1192,o),
(149,1125,o),
(241,1081,cs),
(332,1037,o),
(455,1017,o),
(579,1017,cs),
(710,1017,o),
(830,1039,o),
(918,1080,cs),
(1005,1120,o),
(1059,1178,o),
(1059,1250,cs),
(1059,1303,o),
(1035,1356,o),
(968,1396,cs),
(900,1436,o),
(790,1465,o),
(621,1472,c),
(714,1483,o),
(924,1494,o),
(1022,1494,cs),
(1155,1494,o),
(1284,1484,o),
(1379,1449,cs),
(1474,1414,o),
(1536,1357,o),
(1536,1262,cs),
(1536,1155,o),
(1439,1077,o),
(1329,1007,cs),
(1257,961,o),
(1193,912,o),
(1153,857,cs),
(1132,829,o),
(1122,797,o),
(1122,762,cs),
(1122,681,o),
(1196,635,o),
(1269,635,cs)
);
},
{
closed = 1;
nodes = (
(1431,-45,o),
(1546,-14,o),
(1629,36,cs),
(1712,86,o),
(1763,154,o),
(1763,230,cs),
(1763,306,o),
(1712,376,o),
(1629,426,cs),
(1546,476,o),
(1431,507,o),
(1306,507,cs),
(1179,507,o),
(1066,476,o),
(984,426,cs),
(902,376,o),
(850,306,o),
(850,230,cs),
(850,154,o),
(902,86,o),
(984,36,cs),
(1066,-14,o),
(1179,-45,o),
(1306,-45,cs)
);
}
);
width = 2637;
}
);
note = question;
unicode = 63;
},
{
glyphname = questiondown;
kernLeft = KO_questiondown;
kernRight = KO_questiondown;
lastChange = "2023-11-30 04:50:27 +0000";
layers = (
{
layerId = m01;
shapes = (
{
closed = 1;
nodes = (
(1617,-485,o),
(1911,-458,o),
(2147,-404,cs),
(2308,-368,o),
(2430,-317,o),
(2498,-252,cs),
(2532,-219,o),
(2549,-183,o),
(2549,-143,cs),
(2549,-47,o),
(2488,20,o),
(2397,64,cs),
(2305,108,o),
(2182,128,o),
(2058,128,cs),
(1927,128,o),
(1807,106,o),
(1720,66,cs),
(1632,25,o),
(1578,-33,o),
(1578,-105,cs),
(1578,-158,o),
(1602,-211,o),
(1670,-251,cs),
(1737,-291,o),
(1845,-320,o),
(2016,-327,c),
(1923,-338,o),
(1713,-349,o),
(1615,-349,cs),
(1482,-349,o),
(1353,-339,o),
(1258,-304,cs),
(1163,-269,o),
(1101,-212,o),
(1101,-117,cs),
(1101,-10,o),
(1198,68,o),
(1308,139,cs),
(1380,185,o),
(1444,233,o),
(1485,289,cs),
(1505,316,o),
(1515,348,o),
(1515,383,cs),
(1515,464,o),
(1441,510,o),
(1368,510,cs),
(1287,510,o),
(1248,495,o),
(1224,468,cs),
(1203,444,o),
(1178,409,o),
(1119,383,cs),
(950,307,o),
(779,262,o),
(628,225,cs),
(417,172,ls),
(288,139,o),
(191,93,o),
(138,25,cs),
(111,-9,o),
(98,-52,o),
(98,-105,cs),
(98,-198,o),
(153,-269,o),
(239,-321,cs),
(325,-374,o),
(443,-410,o),
(572,-434,cs),
(700,-459,o),
(839,-471,o),
(966,-478,cs),
(1093,-485,o),
(1209,-485,o),
(1290,-485,cs)
);
},
{
closed = 1;
nodes = (
(1456,638,o),
(1572,670,o),
(1654,720,cs),
(1736,770,o),
(1787,839,o),
(1787,915,cs),
(1787,991,o),
(1736,1060,o),
(1654,1110,cs),
(1572,1160,o),
(1456,1190,o),
(1331,1190,cs),
(1204,1190,o),
(1091,1160,o),
(1008,1110,cs),
(925,1060,o),
(874,991,o),
(874,915,cs),
(874,839,o),
(925,770,o),
(1008,720,cs),
(1091,670,o),
(1204,638,o),
(1331,638,cs)
);
}
);
width = 2637;
}
);
note = questiondown;
unicode = 191;
},
{
glyphname = periodcentered;
lastChange = "2023-11-30 04:50:27 +0000";
layers = (
{
layerId = m01;
shapes = (
{
closed = 1;
nodes = (
(834,355,o),
(1030,467,o),
(1030,640,cs),
(1030,725,o),
(981,797,o),
(900,846,cs),
(819,894,o),
(704,922,o),
(573,922,cs),
(442,922,o),
(328,894,o),
(247,846,cs),
(166,797,o),
(117,725,o),
(117,640,cs),
(117,467,o),
(312,355,o),
(573,355,cs)
);
}
);
width = 1147;
}
);
note = periodcentered;
unicode = 183;
},
{
glyphname = bullet;
lastChange = "2023-11-30 04:50:27 +0000";
layers = (
{
layerId = m01;
shapes = (
{
closed = 1;
nodes = (
(1006,347,o),
(1159,517,o),
(1159,690,cs),
(1159,777,o),
(1121,864,o),
(1037,929,cs),
(952,993,o),
(821,1037,o),
(637,1037,cs),
(453,1037,o),
(323,993,o),
(239,929,cs),
(155,864,o),
(117,777,o),
(117,690,cs),
(117,517,o),
(270,347,o),
(637,347,cs)
);
}
);
width = 1276;
}
);
note = bullet;
unicode = 8226;
},
{
glyphname = asterisk;
kernLeft = KO_asterisk;
kernRight = KO_asterisk;
lastChange = "2023-11-30 04:50:27 +0000";
layers = (
{
layerId = m01;
shapes = (
{
closed = 1;
nodes = (
(941,413,o),
(1008,480,o),
(1008,588,cs),
(1008,708,o),
(870,866,o),
(838,1073,c),
(938,994,o),
(1007,890,o),
(1067,806,cs),
(1126,722,o),
(1185,662,o),
(1269,662,cs),
(1330,662,o),
(1386,700,o),
(1433,781,cs),
(1460,828,o),
(1473,872,o),
(1473,911,cs),
(1473,971,o),
(1442,1017,o),
(1386,1050,cs),
(1334,1079,o),
(1256,1085,o),
(1168,1092,cs),
(1079,1099,o),
(978,1108,o),
(882,1145,c),
(978,1181,o),
(1078,1190,o),
(1167,1198,cs),
(1255,1205,o),
(1333,1210,o),
(1385,1241,cs),
(1441,1274,o),
(1473,1319,o),
(1473,1379,cs),
(1473,1418,o),
(1460,1461,o),
(1433,1508,cs),
(1386,1589,o),
(1329,1628,o),
(1269,1628,cs),
(1184,1628,o),
(1124,1568,o),
(1066,1484,cs),
(1010,1402,o),
(936,1294,o),
(838,1217,c),
(867,1418,o),
(1000,1583,o),
(1000,1704,cs),
(1000,1812,o),
(933,1879,o),
(792,1879,cs),
(651,1879,o),
(584,1812,o),
(584,1704,cs),
(584,1644,o),
(619,1573,o),
(657,1493,cs),
(695,1412,o),
(737,1321,o),
(753,1218,c),
(653,1297,o),
(584,1400,o),
(526,1484,cs),
(468,1566,o),
(409,1628,o),
(324,1628,cs),
(263,1628,o),
(207,1589,o),
(160,1508,cs),
(133,1461,o),
(120,1418,o),
(120,1379,cs),
(120,1319,o),
(151,1274,o),
(208,1241,cs),
(311,1180,o),
(513,1219,o),
(711,1145,c),
(614,1108,o),
(514,1099,o),
(425,1092,cs),
(336,1085,o),
(259,1079,o),
(207,1050,cs),
(150,1017,o),
(119,971,o),
(119,911,cs),
(119,871,o),
(133,828,o),
(160,781,cs),
(207,700,o),
(263,662,o),
(324,662,cs),
(407,662,o),
(468,722,o),
(526,806,cs),
(584,890,o),
(653,993,o),
(753,1072,c),
(737,969,o),
(697,878,o),
(661,798,cs),
(625,718,o),
(592,648,o),
(592,588,cs),
(592,480,o),
(659,413,o),
(800,413,cs)
);
}
);
width = 1594;
}
);
note = asterisk;
unicode = 42;
},
{
glyphname = numbersign;
kernLeft = KO_numbersign;
kernRight = KO_numbersign;
lastChange = "2023-11-30 04:50:27 +0000";
layers = (
{
layerId = m01;
shapes = (
{
closed = 1;
nodes = (
(511,0,l),
(624,385,l),
(756,385,o),
(819,387,o),
(880,387,cs),
(939,387,l),
(1037,386,l),
(923,0,l),
(1116,0,l),
(1228,383,l),
(1327,382,o),
(1429,380,o),
(1513,377,cs),
(1597,373,o),
(1662,371,o),
(1689,367,c),
(1692,392,o),
(1694,432,o),
(1694,459,cs),
(1694,474,o),
(1693,534,o),
(1689,561,c),
(1664,557,o),
(1606,555,o),
(1532,552,cs),
(1458,548,o),
(1367,546,o),
(1276,545,c),
(1374,881,l),
(1470,880,o),
(1568,878,o),
(1649,875,cs),
(1729,871,o),
(1792,869,o),
(1817,865,c),
(1820,890,o),
(1822,930,o),
(1822,957,cs),
(1822,972,o),
(1821,1032,o),
(1817,1059,c),
(1793,1055,o),
(1738,1053,o),
(1667,1050,cs),
(1596,1047,o),
(1510,1045,o),
(1422,1044,c),
(1531,1416,l),
(1341,1416,l),
(1230,1040,l),
(1096,1039,l),
(1008,1039,l),
(816,1039,l),
(926,1416,l),
(736,1416,l),
(625,1042,l),
(532,1043,o),
(437,1044,o),
(360,1048,cs),
(283,1051,o),
(224,1054,o),
(203,1059,c),
(199,1024,o),
(198,990,o),
(198,957,cs),
(198,922,o),
(199,900,o),
(203,865,c),
(252,871,o),
(399,874,o),
(577,880,c),
(478,544,l),
(387,545,o),
(297,547,o),
(225,550,cs),
(152,553,o),
(96,557,o),
(75,561,c),
(71,526,o),
(70,492,o),
(70,459,cs),
(70,424,o),
(71,402,o),
(75,367,c),
(114,372,o),
(258,378,o),
(430,381,c),
(318,0,l)
);
},
{
closed = 1;
nodes = (
(802,541,l),
(670,542,l),
(770,883,l),
(1008,885,l),
(1184,883,l),
(1083,542,l),
(960,541,l),
(880,541,l)
);
}
);
width = 1884;
}
);
note = numbersign;
unicode = 35;
},
{
glyphname = slash;
kernLeft = KO_slash;
kernRight = KO_slash;
lastChange = "2023-11-30 04:50:27 +0000";
layers = (
{
layerId = m01;
shapes = (
{
closed = 1;
nodes = (
(161,-386,o),
(249,-207,o),
(365,33,cs),
(498,307,o),
(588,483,o),
(628,564,cs),
(736,775,l),
(896,1085,l),
(1059,1393,ls),
(1107,1484,o),
(1148,1558,o),
(1172,1598,c),
(1148,1619,o),
(1082,1654,o),
(1085,1652,cs),
(1060,1665,o),
(1009,1685,o),
(990,1690,c),
(960,1618,o),
(845,1375,o),
(749,1178,cs),
(597,868,l),
(482,638,ls),
(461,598,o),
(427,527,o),
(375,428,cs),
(328,337,o),
(276,232,o),
(214,115,cs),
(100,-103,o),
(-13,-317,o),
(-60,-389,c),
(-4,-434,o),
(59,-464,o),
(123,-481,c)
);
}
);
width = 1112;
}
);
note = slash;
unicode = 47;
},
{
glyphname = backslash;
kernLeft = KO_backslash;
kernRight = KO_backslash;
lastChange = "2023-11-30 04:50:27 +0000";
layers = (
{
layerId = m01;
shapes = (
{
closed = 1;
nodes = (
(1053,-464,o),
(1115,-434,o),
(1172,-389,c),
(1125,-317,o),
(1012,-103,o),
(898,115,cs),
(836,232,o),
(784,337,o),
(737,428,cs),
(685,527,o),
(651,598,o),
(630,638,cs),
(515,868,l),
(363,1178,ls),
(267,1375,o),
(152,1618,o),
(122,1690,c),
(103,1685,o),
(52,1665,o),
(27,1652,cs),
(30,1654,o),
(-36,1619,o),
(-60,1598,c),
(-36,1558,o),
(5,1484,o),
(54,1393,cs),
(217,1085,l),
(377,775,ls),
(425,682,o),
(463,607,o),
(484,564,cs),
(524,483,o),
(614,307,o),
(747,33,cs),
(804,-85,o),
(854,-187,o),
(896,-276,cs),
(939,-368,o),
(973,-441,o),
(989,-481,c)
);
}
);
width = 1112;
}
);
note = backslash;
unicode = 92;
},
{
glyphname = hyphen;
kernLeft = KO_hyphen;
kernRight = KO_hyphen;
lastChange = "2023-11-30 04:50:27 +0000";
layers = (
{
layerId = m01;
shapes = (
{
closed = 1;
nodes = (
(175,546,o),
(354,551,o),
(481,553,cs),
(581,555,o),
(740,558,o),
(840,558,cs),
(884,558,o),
(1021,557,o),
(1195,554,cs),
(1369,550,o),
(1505,544,o),
(1549,538,c),
(1552,563,o),
(1554,612,o),
(1554,640,cs),
(1554,655,o),
(1553,715,o),
(1549,742,c),
(1508,735,o),
(1345,729,o),
(1204,727,cs),
(1034,723,o),
(897,722,o),
(840,722,cs),
(811,722,o),
(671,722,o),
(484,725,cs),
(344,727,o),
(188,732,o),
(135,742,c),
(131,707,o),
(130,673,o),
(130,640,cs),
(130,605,o),
(131,573,o),
(135,538,c)
);
}
);
width = 1684;
}
);
note = hyphen;
unicode = 45;
userData = {
KernOnName = hyphen;
};
},
{
glyphname = endash;
kernLeft = KO_endash;
kernRight = KO_endash;
lastChange = "2023-11-30 04:50:27 +0000";
layers = (
{
layerId = m01;
shapes = (
{
closed = 1;
nodes = (
(107,554,o),
(198,560,o),
(314,564,cs),
(428,567,o),
(522,568,o),
(572,568,cs),
(616,568,o),
(711,567,o),
(827,564,cs),
(942,560,o),
(1037,554,o),
(1081,548,c),
(1084,573,o),
(1086,622,o),
(1086,650,cs),
(1086,665,o),
(1085,725,o),
(1081,752,c),
(1041,745,o),
(927,739,o),
(836,737,cs),
(726,733,o),
(630,732,o),
(572,732,cs),
(520,732,o),
(441,732,o),
(316,736,cs),
(211,738,o),
(109,742,o),
(67,752,c),
(63,717,o),
(62,683,o),
(62,650,cs),
(62,615,o),
(63,583,o),
(67,548,c)
);
}
);
width = 1148;
}
);
note = endash;
unicode = 8211;
},
{
glyphname = emdash;
kernLeft = KO_emdash;
kernRight = KO_emdash;
lastChange = "2023-11-30 04:50:27 +0000";
layers = (
{
layerId = m01;
shapes = (
{
closed = 1;
nodes = (
(115,552,o),
(186,554,o),
(273,557,cs),
(360,560,o),
(461,562,o),
(565,563,cs),
(780,566,o),
(976,568,o),
(1083,568,cs),
(1173,568,o),
(1363,567,o),
(1593,564,cs),
(1824,560,o),
(2011,554,o),
(2101,548,c),
(2106,570,o),
(2110,624,o),
(2110,650,cs),
(2110,676,o),
(2106,735,o),
(2101,752,c),
(2018,745,o),
(1796,739,o),
(1610,737,cs),
(1390,733,o),
(1198,732,o),
(1083,732,cs),
(1007,732,o),
(820,732,o),
(571,735,cs),
(466,736,o),
(362,738,o),
(274,741,cs),
(186,744,o),
(113,748,o),
(72,752,c),
(65,717,o),
(62,683,o),
(62,650,cs),
(62,615,o),
(65,581,o),
(72,548,c)
);
}
);
width = 2172;
}
);
note = emdash;
unicode = 8212;
},
{
glyphname = underscore;
kernLeft = KO_underscore;
kernRight = KO_underscore;
lastChange = "2023-11-30 04:50:27 +0000";
layers = (
{
layerId = m01;
shapes = (
{
closed = 1;
nodes = (
(2009,-535,l),
(2009,-354,l),
(-60,-354,l),
(-60,-535,l)
);
}
);
width = 1949;
}
);
note = underscore;
unicode = 95;
},
{
glyphname = parenleft;
kernLeft = KO_parenleft;
kernRight = KO_parenleft;
lastChange = "2023-11-30 04:50:27 +0000";
layers = (
{
layerId = m01;
shapes = (
{
closed = 1;
nodes = (
(1152,-159,l),
(946.009,-159,o),
(833,44,o),
(833,645,cs),
(833,1252,o),
(948,1449,o),
(1152,1449,c),
(1152,1562,l),
(1011,1562,o),
(862,1546,o),
(727,1496,cs),
(659,1471,o),
(596,1436,o),
(537,1393,cs),
(419,1305,o),
(329,1171,o),
(278,980,cs),
(253,885,o),
(240,773,o),
(240,645,cs),
(240,389,o),
(294,201,o),
(382,65,cs),
(426,-3,o),
(478,-59,o),
(537,-102,cs),
(655,-190,o),
(792,-238,o),
(937,-257,cs),
(1010,-267,o),
(1081,-272,o),
(1152,-272,c)
);
}
);
width = 1332;
}
);
note = parenleft;
unicode = 40;
userData = {
KernOnName = parenleft;
};
},
{
glyphname = parenright;
kernLeft = KO_parenright;
kernRight = KO_parenright;
lastChange = "2023-11-30 04:50:27 +0000";
layers = (
{
layerId = m01;
shapes = (
{
closed = 1;
nodes = (
(321,-272,o),
(470,-255,o),
(606,-205,cs),
(673,-180,o),
(737,-146,o),
(796,-102,cs),
(914,-15,o),
(1003,120,o),
(1054,310,cs),
(1079,405,o),
(1092,516,o),
(1092,645,cs),
(1092,901,o),
(1038,1089,o),
(950,1225,cs),
(906,1293,o),
(855,1349,o),
(796,1393,cs),
(678,1480,o),
(540,1528,o),
(395,1548,cs),
(322,1557,o),
(251,1562,o),
(180,1562,c),
(180,1449,l),
(385.991,1449,o),
(499,1246,o),
(499,645,cs),
(499,38,o),
(384,-159,o),
(180,-159,c),
(180,-272,l)
);
}
);
width = 1332;
}
);
note = parenright;
unicode = 41;
},
{
glyphname = braceleft;
kernLeft = KO_braceleft;
kernRight = KO_braceleft;
lastChange = "2023-11-30 04:50:27 +0000";
layers = (
{
layerId = m01;
shapes = (
{
closed = 1;
nodes = (
(964,-277,o),
(1095,-273,o),
(1262,-257,c),
(1262,-144,l),
(1234,-146,o),
(1208,-147,o),
(1185,-147,cs),
(1073,-147,o),
(1001,-125,o),
(957,-87,cs),
(913,-49,o),
(898,3,o),
(898,67,cs),
(898,169.991,o),
(992,293,o),
(992,412,cs),
(992,537,o),
(894,640,o),
(603,645,c),
(882,650,o),
(992,752,o),
(992,878,cs),
(992,997,o),
(898,1120.009,o),
(898,1223,cs),
(898,1287,o),
(913,1340,o),
(957,1378,cs),
(1001,1416,o),
(1073,1437,o),
(1185,1437,cs),
(1208,1437,o),
(1234,1436,o),
(1262,1434,c),
(1262,1547,l),
(1095,1563,o),
(964,1567,o),
(848,1567,cs),
(672,1567,o),
(544,1548,o),
(460,1502,cs),
(376,1456,o),
(335,1385,o),
(335,1282,cs),
(335,1199,o),
(373,1101,o),
(414,1008,cs),
(453,918,o),
(493,838,o),
(493,796,cs),
(493,714,o),
(391,694,o),
(275,694,c),
(275,596,l),
(391,596,o),
(493,576,o),
(493,494,cs),
(493,452,o),
(453,372,o),
(414,283,cs),
(373,189,o),
(335,91,o),
(335,8,cs),
(335,-95,o),
(376,-165,o),
(460,-211,cs),
(544,-257,o),
(672,-277,o),
(848,-277,cs)
);
}
);
width = 1412;
}
);
note = braceleft;
unicode = 123;
},
{
glyphname = braceright;
kernLeft = KO_braceright;
kernRight = KO_braceright;
lastChange = "2023-11-30 04:50:27 +0000";
layers = (
{
layerId = m01;
shapes = (
{
closed = 1;
nodes = (
(740,-277,o),
(868,-257,o),
(952,-211,cs),
(1036,-165,o),
(1077,-95,o),
(1077,8,cs),
(1077,91,o),
(1039,189,o),
(998,283,cs),
(959,372,o),
(919,452,o),
(919,494,cs),
(919,576,o),
(1021,596,o),
(1137,596,c),
(1137,694,l),
(1021,694,o),
(919,714,o),
(919,796,cs),
(919,838,o),
(959,918,o),
(998,1008,cs),
(1039,1101,o),
(1077,1199,o),
(1077,1282,cs),
(1077,1385,o),
(1036,1456,o),
(952,1502,cs),
(868,1548,o),
(740,1567,o),
(564,1567,cs),
(448,1567,o),
(317,1563,o),
(150,1547,c),
(150,1434,l),
(178,1436,o),
(204,1437,o),
(227,1437,cs),
(339,1437,o),
(411,1416,o),
(455,1378,cs),
(499,1340,o),
(514,1287,o),
(514,1223,cs),
(514,1120.009,o),
(420,997,o),
(420,878,cs),
(420,752,o),
(520,650,o),
(809,645,c),
(530,640,o),
(420,538,o),
(420,412,cs),
(420,293,o),
(514,169.991,o),
(514,67,cs),
(514,3,o),
(499,-49,o),
(455,-87,cs),
(411,-125,o),
(339,-147,o),
(227,-147,cs),
(204,-147,o),
(178,-146,o),
(150,-144,c),
(150,-257,l),
(317,-273,o),
(448,-277,o),
(564,-277,cs)
);
}
);
width = 1412;
}
);
note = braceright;
unicode = 125;
},
{
glyphname = bracketleft;
kernRight = KO_bracketleft;
lastChange = "2023-11-30 04:50:27 +0000";
layers = (
{
layerId = m01;
shapes = (
{
closed = 1;
nodes = (
(1183,-287,l),
(1186,-164,l),
(1037,-164,o),
(936,-160,o),
(866,-127,cs),
(831,-110,o),
(803,-85,o),
(783,-50,cs),
(743,18,o),
(724,137,o),
(719,319,cs),
(716,410,o),
(715,520,o),
(715,651,cs),
(715,912,o),
(718,1092,o),
(738,1214,cs),
(748,1275,o),
(763,1322,o),
(783,1357,cs),
(823,1426,o),
(892,1459,o),
(997,1468,cs),
(1049,1472,o),
(1112,1474,o),
(1187,1474,c),
(1184,1577,l),
(255,1577,l),
(255,-287,l)
);
}
);
width = 1227;
}
);
note = bracketleft;
unicode = 91;
},
{
glyphname = bracketright;
kernLeft = KO_bracketright;
lastChange = "2023-11-30 04:50:27 +0000";
layers = (
{
layerId = m01;
shapes = (
{
closed = 1;
nodes = (
(972,-287,l),
(972,1577,l),
(44,1577,l),
(41,1454,l),
(190,1454,o),
(292,1450,o),
(362,1417,cs),
(397,1400,o),
(424,1375,o),
(444,1341,cs),
(484,1272,o),
(503,1154,o),
(508,972,cs),
(511,881,o),
(512,770,o),
(512,639,cs),
(512,378,o),
(509,199,o),
(489,77,cs),
(479,16,o),
(464,-32,o),
(444,-67,cs),
(404,-136,o),
(336,-169,o),
(232,-177,cs),
(180,-182,o),
(117,-184,o),
(43,-184,c),
(43,-287,l)
);
}
);
width = 1227;
}
);
note = bracketright;
unicode = 93;
},
{
glyphname = quotesinglbase;
kernLeft = KO_quotedblbase;
kernRight = KO_quotesinglbase;
lastChange = "2023-11-30 04:50:27 +0000";
layers = (
{
layerId = m01;
shapes = (
{
closed = 1;
nodes = (
(515,-388,o),
(658,-357,o),
(780,-276,cs),
(881,-210,o),
(975,-87.993,o),
(975,104,cs),
(975,220,o),
(943,323,o),
(871,397,cs),
(798,471,o),
(684,515,o),
(523,515,cs),
(284,515,o),
(117,390,o),
(117,228,cs),
(117,53,o),
(271,-29,o),
(467,-29,cs),
(604,-29,o),
(730,-8,o),
(818,57,c),
(805,-159,o),
(639,-293,o),
(375,-293,c),
(381,-388,l)
);
}
);
width = 1092;
}
);
note = quotesinglbase;
unicode = 8218;
},
{
glyphname = quotedblbase;
kernLeft = KO_quotedblbase;
kernRight = KO_quotedblbase;
lastChange = "2023-11-30 04:50:27 +0000";
layers = (
{
layerId = m01;
shapes = (
{
closed = 1;
nodes = (
(1514,-388,o),
(1657,-357,o),
(1779,-276,cs),
(1880,-210,o),
(1974,-87.993,o),
(1974,104,cs),
(1974,220,o),
(1942,323,o),
(1870,397,cs),
(1797,471,o),
(1683,515,o),
(1522,515,cs),
(1283,515,o),
(1116,390,o),
(1116,228,cs),
(1116,53,o),
(1270,-29,o),
(1466,-29,cs),
(1603,-29,o),
(1729,-8,o),
(1817,57,c),
(1804,-159,o),
(1638,-293,o),
(1374,-293,c),
(1380,-388,l)
);
},
{
closed = 1;
nodes = (
(515,-388,o),
(658,-357,o),
(780,-276,cs),
(881,-210,o),
(975,-87.993,o),
(975,104,cs),
(975,220,o),
(943,323,o),
(871,397,cs),
(798,471,o),
(684,515,o),
(523,515,cs),
(284,515,o),
(117,390,o),
(117,228,cs),
(117,53,o),
(271,-29,o),
(467,-29,cs),
(604,-29,o),
(730,-8,o),
(818,57,c),
(805,-159,o),
(639,-293,o),
(375,-293,c),
(381,-388,l)
);
}
);
width = 2092;
}
);
note = quotedblbase;
unicode = 8222;
},
{
glyphname = quotedblleft;
kernLeft = KO_quotedblleft;
kernRight = KO_quotedblleft;
lastChange = "2023-11-30 04:50:27 +0000";
layers = (
{
layerId = m01;
shapes = (
{
closed = 1;
nodes = (
(1802,624,o),
(1975,748,o),
(1975,911,cs),
(1975,1086,o),
(1821,1168,o),
(1625,1168,cs),
(1488,1168,o),
(1362,1147,o),
(1274,1082,c),
(1287,1298,o),
(1453,1432,o),
(1717,1432,c),
(1711,1527,l),
(1571,1527,o),
(1430,1493,o),
(1313,1416,cs),
(1208,1347,o),
(1117,1221,o),
(1117,1035,cs),
(1117,919,o),
(1149,817,o),
(1222,743,cs),
(1294,669,o),
(1406,624,o),
(1569,624,cs)
);
},
{
closed = 1;
nodes = (
(802,624,o),
(975,748,o),
(975,911,cs),
(975,1086,o),
(821,1168,o),
(625,1168,cs),
(488,1168,o),
(362,1147,o),
(274,1082,c),
(287,1298,o),
(453,1432,o),
(717,1432,c),
(711,1527,l),
(572,1527,o),
(430,1493,o),
(313,1416,cs),
(212,1349,o),
(117,1229,o),
(117,1035,cs),
(117,919,o),
(149,817,o),
(222,743,cs),
(294,669,o),
(406,624,o),
(569,624,cs)
);
}
);
width = 2092;
}
);
note = quotedblleft;
unicode = 8220;
},
{
glyphname = quotedblright;
kernLeft = KO_quoteright;
kernRight = KO_quotedblright;
lastChange = "2023-11-30 04:50:27 +0000";
layers = (
{
layerId = m01;
shapes = (
{
closed = 1;
nodes = (
(1517,627,o),
(1660,659,o),
(1779,739,cs),
(1880,805,o),
(1975,925,o),
(1975,1119,cs),
(1975,1235,o),
(1943,1338,o),
(1871,1412,cs),
(1798,1486,o),
(1684,1530,o),
(1523,1530,cs),
(1284,1530,o),
(1117,1405,o),
(1117,1243,cs),
(1117,1068,o),
(1271,986,o),
(1467,986,cs),
(1604,986,o),
(1730,1007,o),
(1818,1072,c),
(1805,856,o),
(1639,722,o),
(1375,722,c),
(1381,627,l)
);
},
{
closed = 1;
nodes = (
(515,627,o),
(658,658,o),
(780,739,cs),
(881,805,o),
(975,927.007,o),
(975,1119,cs),
(975,1235,o),
(943,1338,o),
(871,1412,cs),
(798,1486,o),
(684,1530,o),
(523,1530,cs),
(284,1530,o),
(117,1405,o),
(117,1243,cs),
(117,1068,o),
(271,986,o),
(467,986,cs),
(604,986,o),
(730,1007,o),
(818,1072,c),
(805,856,o),
(639,722,o),
(375,722,c),
(381,627,l)
);
}
);
width = 2092;
}
);
note = quotedblright;
unicode = 8221;
},
{
glyphname = quoteleft;
kernLeft = KO_quotedblleft;
kernRight = KO_quotedblleft;
lastChange = "2023-11-30 04:50:27 +0000";
layers = (
{
layerId = m01;
shapes = (
{
closed = 1;
nodes = (
(802,624,o),
(975,748,o),
(975,911,cs),
(975,1086,o),
(821,1168,o),
(625,1168,cs),
(488,1168,o),
(362,1147,o),
(274,1082,c),
(287,1298,o),
(453,1432,o),
(717,1432,c),
(711,1527,l),
(572,1527,o),
(430,1493,o),
(313,1416,cs),
(212,1349,o),
(117,1229,o),
(117,1035,cs),
(117,919,o),
(149,817,o),
(222,743,cs),
(294,669,o),
(406,624,o),
(569,624,cs)
);
}
);
width = 1092;
}
);
note = quoteleft;
unicode = 8216;
},
{
glyphname = quoteright;
kernLeft = KO_quoteright;
kernRight = KO_quoteright;
lastChange = "2023-11-30 04:50:27 +0000";
layers = (
{
layerId = m01;
shapes = (
{
closed = 1;
nodes = (
(515,627,o),
(658,658,o),
(780,739,cs),
(881,805,o),
(975,927.007,o),
(975,1119,cs),
(975,1235,o),
(943,1338,o),
(871,1412,cs),
(798,1486,o),
(684,1530,o),
(523,1530,cs),
(284,1530,o),
(117,1405,o),
(117,1243,cs),
(117,1068,o),
(271,986,o),
(467,986,cs),
(604,986,o),
(730,1007,o),
(818,1072,c),
(805,856,o),
(639,722,o),
(375,722,c),
(381,627,l)
);
}
);
width = 1092;
}
);
note = quoteright;
unicode = 8217;
},
{
glyphname = guillemetleft;
kernLeft = KO_guillemetleft;
kernRight = KO_guillemetleft;
lastChange = "2023-11-30 04:50:27 +0000";
layers = (
{
layerId = m01;
shapes = (
{
closed = 1;
nodes = (
(2028,115,l),
(1470,575,l),
(2028,1035,l),
(1956,1111,l),
(1126,718,ls),
(1035,677,o),
(990,639,o),
(990,575,cs),
(990,511,o),
(1035,473,o),
(1126,432,cs),
(1956,39,l)
);
},
{
closed = 1;
nodes = (
(1178,115,l),
(620,575,l),
(1178,1035,l),
(1106,1111,l),
(276,718,ls),
(185,677,o),
(140,639,o),
(140,575,cs),
(140,511,o),
(185,473,o),
(276,432,cs),
(1106,39,l)
);
}
);
width = 2168;
}
);
note = guillemotleft;
unicode = 171;
},
{
glyphname = guillemetright;
kernLeft = KO_guillemetright;
kernRight = KO_guillemetright;
lastChange = "2023-11-30 04:50:27 +0000";
layers = (
{
layerId = m01;
shapes = (
{
closed = 1;
nodes = (
(1892,432,ls),
(1983,473,o),
(2028,511,o),
(2028,575,cs),
(2028,639,o),
(1983,677,o),
(1892,718,cs),
(1062,1111,l),
(990,1035,l),
(1548,575,l),
(990,115,l),
(1062,39,l)
);
},
{
closed = 1;
nodes = (
(1042,432,ls),
(1133,473,o),
(1178,511,o),
(1178,575,cs),
(1178,639,o),
(1133,677,o),
(1042,718,cs),
(212,1111,l),
(140,1035,l),
(698,575,l),
(140,115,l),
(212,39,l)
);
}
);
width = 2168;
}
);
note = guillemotright;
unicode = 187;
},
{
glyphname = guilsinglleft;
kernLeft = KO_guillemetleft;
kernRight = KO_guilsinglleft;
lastChange = "2023-11-30 04:50:27 +0000";
layers = (
{
layerId = m01;
shapes = (
{
closed = 1;
nodes = (
(1178,115,l),
(620,575,l),
(1178,1035,l),
(1106,1111,l),
(276,718,ls),
(185,677,o),
(140,639,o),
(140,575,cs),
(140,511,o),
(185,473,o),
(276,432,cs),
(1106,39,l)
);
}
);
width = 1318;
}
);
note = guilsinglleft;
unicode = 8249;
},
{
glyphname = guilsinglright;
kernLeft = KO_guillemetright;
kernRight = KO_guillemetright;
lastChange = "2023-11-30 04:50:27 +0000";
layers = (
{
layerId = m01;
shapes = (
{
closed = 1;
nodes = (
(1042,432,ls),
(1133,473,o),
(1178,511,o),
(1178,575,cs),
(1178,639,o),
(1133,677,o),
(1042,718,cs),
(212,1111,l),
(140,1035,l),
(698,575,l),
(140,115,l),
(212,39,l)
);
}
);
width = 1318;
}
);
note = guilsinglright;
unicode = 8250;
},
{
glyphname = quotedbl;
kernLeft = KO_quotedbl;
kernRight = KO_quotedbl;
lastChange = "2023-11-30 04:50:27 +0000";
layers = (
{
layerId = m01;
shapes = (
{
closed = 1;
nodes = (
(1218,586,l),
(1221,735,o),
(1248,848,o),
(1284,936,cs),
(1302,980,o),
(1322,1019,o),
(1343,1053,cs),
(1385,1121,o),
(1421,1177,o),
(1445,1229,cs),
(1456,1255,o),
(1462,1282,o),
(1462,1311,cs),
(1462,1451,o),
(1364,1526,o),
(1161,1526,cs),
(957,1526,o),
(860,1451,o),
(860,1311,cs),
(860,1254,o),
(887,1204,o),
(924,1147,cs),
(983,1053,ls),
(1026,985,o),
(1065,899,o),
(1090,784,cs),
(1103,727,o),
(1110,661,o),
(1111,586,c)
);
},
{
closed = 1;
nodes = (
(518,586,l),
(521,735,o),
(548,848,o),
(584,936,cs),
(602,980,o),
(622,1019,o),
(643,1053,cs),
(685,1121,o),
(721,1177,o),
(745,1229,cs),
(756,1255,o),
(762,1282,o),
(762,1311,cs),
(762,1451,o),
(664,1526,o),
(461,1526,cs),
(257,1526,o),
(160,1451,o),
(160,1311,cs),
(160,1254,o),
(187,1204,o),
(224,1147,cs),
(283,1053,ls),
(326,985,o),
(365,899,o),
(390,784,cs),
(403,727,o),
(410,661,o),
(411,586,c)
);
}
);
width = 1622;
}
);
note = quotedbl;
unicode = 34;
},
{
glyphname = quotesingle;
kernLeft = KO_quotesingle;
kernRight = KO_quotesingle;
lastChange = "2023-11-30 04:50:27 +0000";
layers = (
{
layerId = m01;
shapes = (
{
closed = 1;
nodes = (
(518,586,l),
(521,735,o),
(548,848,o),
(584,936,cs),
(602,980,o),
(622,1019,o),
(643,1053,cs),
(685,1121,o),
(721,1177,o),
(745,1229,cs),
(756,1255,o),
(762,1282,o),
(762,1311,cs),
(762,1451,o),
(664,1526,o),
(461,1526,cs),
(257,1526,o),
(160,1451,o),
(160,1311,cs),
(160,1254,o),
(187,1204,o),
(224,1147,cs),
(283,1053,ls),
(326,985,o),
(365,899,o),
(390,784,cs),
(403,727,o),
(410,661,o),
(411,586,c)
);
}
);
width = 922;
}
);
note = quotesingle;
unicode = 39;
},
{
glyphname = florin;
kernLeft = KO_florin;
kernRight = KO_florin;
lastChange = "2023-11-30 04:50:27 +0000";
layers = (
{
layerId = m01;
shapes = (
{
closed = 1;
nodes = (
(2572,740,l),
(2572,878,l),
(1933,878,l),
(1933,884,ls),
(1933,940,o),
(1909,1086,o),
(1909,1211,cs),
(1909,1355,o),
(1963,1463,o),
(2249,1463,cs),
(2314,1463,o),
(2376,1451,o),
(2424,1431,c),
(2292,1431,o),
(2192,1411,o),
(2126,1377,cs),
(2060,1343,o),
(2026,1296,o),
(2026,1244,cs),
(2026,1191,o),
(2077,1142,o),
(2161,1106,cs),
(2245,1070,o),
(2361,1047,o),
(2490,1047,cs),
(2633,1047,o),
(2744,1073,o),
(2820,1117,cs),
(2896,1160,o),
(2937,1219,o),
(2937,1286,cs),
(2937,1462,o),
(2710,1580,o),
(2177,1580,cs),
(1966,1580,o),
(1773,1570,o),
(1606,1542,cs),
(1523,1527,o),
(1447,1508,o),
(1379,1484,cs),
(1175,1412,o),
(1054,1281,o),
(1054,1083,cs),
(1054,864,l),
(621,834,l),
(621,740,l)
);
},
{
closed = 1;
nodes = (
(1054,740,l),
(1064,675,ls),
(1072,621,o),
(1088,473,o),
(1088,348,cs),
(1088,204,o),
(1033,96,o),
(748,96,cs),
(682,96,o),
(621,108,o),
(573,128,c),
(705,128,o),
(805,149,o),
(871,183,cs),
(937,217,o),
(971,263,o),
(971,315,cs),
(971,369,o),
(920,417,o),
(836,453,cs),
(752,489,o),
(636,512,o),
(507,512,cs),
(364,512,o),
(253,486,o),
(177,443,cs),
(101,399,o),
(60,340,o),
(60,273,cs),
(60,97,o),
(287,-21,o),
(820,-21,cs),
(1030,-21,o),
(1224,-11,o),
(1391,18,cs),
(1474,32,o),
(1550,51,o),
(1618,75,cs),
(1822,147,o),
(1953,278,o),
(1943,476,cs),
(1928,776,l)
);
}
);
width = 2997;
}
);
metricRight = "=|";
unicode = 402;
},
{
glyphname = at;
kernLeft = KO_at;
kernRight = KO_at;
lastChange = "2023-11-30 04:50:27 +0000";
layers = (
{
layerId = m01;
shapes = (
{
closed = 1;
nodes = (
(2268,-438,o),
(2711,-349,o),
(3046,-152,c),
(3006,-72,l),
(2827,-148,o),
(2619,-196,o),
(2392,-226,cs),
(2165,-256,o),
(1919,-268,o),
(1664,-268,cs),
(1325,-268,o),
(1056,-241,o),
(848,-187,cs),
(744,-160,o),
(655,-126,o),
(581,-85,cs),
(359,37,o),
(260,222,o),
(260,478,cs),
(260,725,o),
(373,929,o),
(602,1070,cs),
(830,1211,o),
(1174,1291,o),
(1635,1291,cs),
(2569,1291,o),
(2975,955,o),
(2975,479,cs),
(2975,367,o),
(2943,285,o),
(2896,231,cs),
(2849,177,o),
(2785,151,o),
(2724,151,cs),
(2646,151,o),
(2585,220,o),
(2585,454,cs),
(2586,660,ls),
(2586,842,o),
(2447,939,o),
(2243,985,cs),
(2027,1033,o),
(1769,1035,o),
(1515,1035,cs),
(1295,1035,o),
(1097,1016,o),
(953,978,cs),
(808,939,o),
(717,878,o),
(717,797,cs),
(717,744,o),
(755,690,o),
(828,650,cs),
(900,609,o),
(1006,582,o),
(1145,582,cs),
(1261,582,o),
(1368,601,o),
(1445,634,cs),
(1522,667,o),
(1571,712,o),
(1571,767,cs),
(1571,808,o),
(1543,850,o),
(1485,883,cs),
(1427,915,o),
(1337,937,o),
(1217,940,c),
(1570,940,o),
(1723,936,o),
(1723,686,cs),
(1723,487,l),
(1662,497,o),
(1571,504,o),
(1476,508,cs),
(1366,511,o),
(1311,513,o),
(1245,513,cs),
(1071,513,o),
(911,503,o),
(785,464,cs),
(662,426,o),
(584,358,o),
(584,247,cs),
(584,55.005,o),
(816,-3,o),
(1088,-3,cs),
(1301,-3,o),
(1596,34,o),
(1764,143,c),
(1853,9,o),
(2068,-14,o),
(2336,-14,cs),
(2480,-14,o),
(2616,-11,o),
(2733,10,cs),
(2791,20,o),
(2844,35,o),
(2892,56,cs),
(2988,97,o),
(3058,169,o),
(3095,280,cs),
(3114,335,o),
(3123,403,o),
(3123,482,cs),
(3123,841,o),
(2941,1085,o),
(2674,1234,cs),
(2395,1389,o),
(2027,1454,o),
(1635,1454,cs),
(1306,1454,o),
(927,1399,o),
(634,1249,cs),
(339,1098,o),
(133,853,o),
(133,483,cs),
(133,166,o),
(288,-64,o),
(562,-215,cs),
(836,-367,o),
(1231,-438,o),
(1712,-438,cs)
);
},
{
closed = 1;
nodes = (
(1369,200,o),
(1321,243,o),
(1321,295,cs),
(1321,339,o),
(1355,366,o),
(1411,383,cs),
(1467,400,o),
(1544,406,o),
(1629,406,cs),
(1723,404,l),
(1723,302,ls),
(1723,278,o),
(1725,256,o),
(1728,236,c),
(1638,212,o),
(1532,200,o),
(1473,200,cs)
);
}
);
width = 3256;
}
);
note = at;
unicode = 64;
},
{
glyphname = ampersand;
kernLeft = KO_ampersand;
kernRight = KO_ampersand;
lastChange = "2023-11-30 04:50:27 +0000";
layers = (
{
layerId = m01;
shapes = (
{
closed = 1;
nodes = (
(3005,-59,o),
(3224,0,o),
(3382,91,cs),
(3540,182,o),
(3637,305,o),
(3657,433,c),
(3589,490,l),
(3538,475,o),
(3467,466,o),
(3366,466,cs),
(3290,466,o),
(3199,472,o),
(3086,485,cs),
(3046,490,o),
(2988,499,o),
(2916,514,c),
(2975,570,o),
(3029,614,o),
(3111,644,cs),
(3193,674,o),
(3303,690,o),
(3475,690,c),
(3475,795,l),
(2486,795,l),
(2486,690,l),
(2568,690,o),
(2632,685,o),
(2678,675,cs),
(2723,664,o),
(2746,645,o),
(2746,616,cs),
(2746,595,o),
(2743,574,o),
(2736,554,c),
(2524,604,o),
(2268,679,o),
(2048,766,c),
(2386,822,o),
(2644,887,o),
(2644,1028,cs),
(2644,1117,o),
(2579,1197,o),
(2439,1255,cs),
(2299,1313,o),
(2084,1348,o),
(1785,1348,cs),
(1478,1348,o),
(1251,1313,o),
(1103,1244,cs),
(954,1175,o),
(880,1072,o),
(880,935,cs),
(880,822,o),
(931,712,o),
(1019,605,c),
(808,587,o),
(603,570,o),
(437,526,cs),
(279,483,o),
(176,413,o),
(176,291,cs),
(176,129,o),
(385,42,o),
(640,-4,cs),
(897,-52,o),
(1192,-57,o),
(1374,-57,cs),
(1662,-57,o),
(1900,-38,o),
(2117,21,c),
(2326,-30,o),
(2538,-59,o),
(2741,-59,cs)
);
},
{
closed = 1;
nodes = (
(1485,70,o),
(1356,88,o),
(1262,126,cs),
(1168,164,o),
(1110,223,o),
(1110,304,cs),
(1110,355,o),
(1129,406,o),
(1168,459,c),
(1352,310,o),
(1602,181,o),
(1881,89,c),
(1797,76,o),
(1714,70,o),
(1630,70,cs)
);
},
{
closed = 1;
nodes = (
(1702,938,o),
(1621,1011,o),
(1621,1086,cs),
(1621,1194,o),
(1701,1243,o),
(1807,1243,cs),
(1901,1243,o),
(1985,1205,o),
(1985,1100,cs),
(1985,1019,o),
(1921,941,o),
(1826,869,c)
);
}
);
width = 3748;
}
);
note = ampersand;
unicode = 38;
},
{
glyphname = paragraph;
lastChange = "2023-11-30 04:50:27 +0000";
layers = (
{
layerId = m01;
shapes = (
{
closed = 1;
nodes = (
(1666,-500,l),
(1666,1291,l),
(1364,1291,ls),
(1024,1291,o),
(768,1269,o),
(580,1228,cs),
(485,1207,o),
(407,1182,o),
(344,1152,cs),
(156,1061,o),
(89,934,o),
(89,760,cs),
(89,607,o),
(170,483,o),
(335,398,cs),
(499,313,o),
(750,266,o),
(1090,266,cs),
(1198,266,o),
(1304,272,o),
(1427,285,c),
(1422,88,o),
(1405,-53,o),
(1369,-153,cs),
(1351,-203,o),
(1328,-244,o),
(1299,-275,cs),
(1242,-339,o),
(1158,-374,o),
(1044,-390,cs),
(987,-398,o),
(920,-403,o),
(845,-406,c),
(845,-500,l)
);
},
{
closed = 1;
nodes = (
(2634,-500,l),
(2634,-406,l),
(2514,-402,o),
(2417,-385,o),
(2340,-345,cs),
(2301,-325,o),
(2268,-298,o),
(2239,-265,cs),
(2182,-198,o),
(2145,-101,o),
(2126,35,cs),
(2117,103,o),
(2112,182,o),
(2112,272,cs),
(2112,878,o),
(2222,1197,o),
(2634,1197,c),
(2634,1291,l),
(1899,1291,l),
(1899,-500,l)
);
}
);
width = 2680;
}
);
note = paragraph;
unicode = 182;
},
{
glyphname = section;
kernLeft = KO_section;
kernRight = KO_section;
lastChange = "2023-11-30 04:50:27 +0000";
layers = (
{
layerId = m01;
shapes = (
{
closed = 1;
nodes = (
(403,-405,o),
(508,-390,o),
(600,-390,cs),
(975,-390,o),
(1310,-436,o),
(1668,-436,cs),
(2064,-436,o),
(2392,-337,o),
(2392,-97,cs),
(2392,25,o),
(2318,106,o),
(2201,160,cs),
(2086,211,o),
(1934,239,o),
(1773,258,c),
(2185,274,o),
(2407,349,o),
(2407,573,cs),
(2407,669,o),
(2358,738,o),
(2279,790,cs),
(2200,842,o),
(2092,876,o),
(1974,901,cs),
(1742,949,o),
(1461,964,o),
(1304,1011,cs),
(1225,1034,o),
(1176,1066,o),
(1176,1115,cs),
(1176,1178,o),
(1284,1179,o),
(1330,1179,cs),
(1496,1179,o),
(1673,1154,o),
(1833,1112,cs),
(1985,1071,o),
(2105,1020,o),
(2167,971,c),
(2267,971,l),
(2267,1040,o),
(2244,1216,o),
(2216,1283,c),
(2156,1246,o),
(2051,1234,o),
(1959,1234,cs),
(1882,1234,o),
(1739,1246,o),
(1573,1258,cs),
(1408,1270,o),
(1222,1282,o),
(1044,1282,cs),
(820,1282,o),
(625,1249,o),
(487,1186,cs),
(349,1123,o),
(266,1029,o),
(266,908,cs),
(266,674,o),
(518,596,o),
(811,561,c),
(669,540,o),
(534,510,o),
(428,456,cs),
(321,402,o),
(251,321,o),
(251,216,cs),
(251,24,o),
(459,-53,o),
(695,-95,cs),
(815,-116,o),
(946,-127,o),
(1067,-138,cs),
(1187,-149,o),
(1299,-158,o),
(1379,-175,cs),
(1459,-192,o),
(1510,-217,o),
(1510,-258,cs),
(1510,-312,o),
(1413,-327,o),
(1297,-327,cs),
(1114,-327,o),
(911,-299,o),
(749,-258,cs),
(585,-218,o),
(457,-167,o),
(408,-118,c),
(295,-118,l),
(295,-147,o),
(300,-212,o),
(310,-283,cs),
(319,-354,o),
(333,-418,o),
(346,-447,c)
);
},
{
closed = 1;
nodes = (
(1304,305,o),
(1096,327,o),
(1096,434,cs),
(1096,472,o),
(1103,507,o),
(1118,538,c),
(1246,531,o),
(1365,525,o),
(1451,509,cs),
(1537,493,o),
(1590,468,o),
(1590,423,cs),
(1590,379,o),
(1586,344,o),
(1549,281,c)
);
}
);
width = 2642;
}
);
note = section;
unicode = 167;
},
{
glyphname = copyright;
kernLeft = KO_registered;
kernRight = KO_registered;
lastChange = "2023-11-30 04:50:27 +0000";
layers = (
{
layerId = m01;
shapes = (
{
closed = 1;
nodes = (
(1963,-419,o),
(2333,-367,o),
(2626,-214,cs),
(2914,-63,o),
(3122,189,o),
(3122,591,cs),
(3122,925,o),
(2952,1173,o),
(2673,1332,cs),
(2395,1490,o),
(2028,1563,o),
(1634,1563,cs),
(1292,1563,o),
(922,1511,o),
(629,1358,cs),
(341,1207,o),
(133,955,o),
(133,553,cs),
(133,219,o),
(303,-29,o),
(583,-188,cs),
(860,-346,o),
(1226,-419,o),
(1621,-419,cs)
);
},
{
closed = 1;
nodes = (
(1315,-279,o),
(1062,-235,o),
(863,-160,cs),
(764,-123,o),
(678,-78,o),
(606,-26,cs),
(388,130,o),
(290,334,o),
(290,553,cs),
(290,805,o),
(391,1017,o),
(609,1167,cs),
(827,1317,o),
(1162,1403,o),
(1634,1403,cs),
(1949,1403,o),
(2202,1359,o),
(2401,1284,cs),
(2500,1247,o),
(2586,1202,o),
(2658,1151,cs),
(2876,994,o),
(2974,790,o),
(2974,571,cs),
(2974,319,o),
(2874,108,o),
(2656,-42,cs),
(2438,-192,o),
(2102,-279,o),
(1630,-279,cs)
);
},
{
closed = 1;
nodes = (
(1999,65,o),
(2218,107,o),
(2364,181,cs),
(2510,255,o),
(2584,362,o),
(2584,493,c),
(2450,493,l),
(2438,387,o),
(2374,311,o),
(2280,264,cs),
(2191,218,o),
(2077,197,o),
(1965,197,cs),
(1701,197,o),
(1453,297,o),
(1453,548,cs),
(1453,843,o),
(1679,920,o),
(1932,920,cs),
(2129,920,o),
(2386,853,o),
(2442,659,c),
(2576,659,l),
(2576,768,o),
(2535,959,o),
(2474,1057,c),
(2338,1057,l),
(2313,1021,o),
(2257,999,o),
(2219,999,cs),
(2139,999,o),
(2036,1013,o),
(1917,1026,cs),
(1795,1039,o),
(1653,1053,o),
(1504,1053,cs),
(1225,1053,o),
(996,1004,o),
(836,919,cs),
(676,834,o),
(586,712,o),
(586,564,cs),
(586,368,o),
(700,243,o),
(898,168,cs),
(1096,92,o),
(1376,65,o),
(1712,65,cs)
);
}
);
width = 3255;
}
);
note = copyright;
unicode = 169;
},
{
glyphname = registered;
kernLeft = KO_registered;
kernRight = KO_registered;
lastChange = "2023-11-30 04:50:27 +0000";
layers = (
{
layerId = m01;
shapes = (
{
closed = 1;
nodes = (
(1963,-419,o),
(2333,-367,o),
(2626,-214,cs),
(2914,-63,o),
(3122,189,o),
(3122,591,cs),
(3122,925,o),
(2952,1173,o),
(2673,1332,cs),
(2395,1490,o),
(2028,1563,o),
(1634,1563,cs),
(1292,1563,o),
(922,1511,o),
(629,1358,cs),
(341,1207,o),
(133,955,o),
(133,553,cs),
(133,219,o),
(303,-29,o),
(583,-188,cs),
(860,-346,o),
(1226,-419,o),
(1621,-419,cs)
);
},
{
closed = 1;
nodes = (
(1315,-279,o),
(1062,-235,o),
(863,-160,cs),
(764,-123,o),
(678,-78,o),
(606,-26,cs),
(388,130,o),
(290,334,o),
(290,553,cs),
(290,805,o),
(391,1017,o),
(609,1167,cs),
(827,1317,o),
(1162,1403,o),
(1634,1403,cs),
(1949,1403,o),
(2202,1359,o),
(2401,1284,cs),
(2500,1247,o),
(2586,1202,o),
(2658,1151,cs),
(2876,994,o),
(2974,790,o),
(2974,571,cs),
(2974,319,o),
(2874,108,o),
(2656,-42,cs),
(2438,-192,o),
(2102,-279,o),
(1630,-279,cs)
);
},
{
closed = 1;
nodes = (
(2313,71,o),
(2374,74,o),
(2444,80,cs),
(2514,86,o),
(2594,94,o),
(2689,106,c),
(2689,177,l),
(2594,177,o),
(2571,198,o),
(2558,269,cs),
(2537,382,o),
(2497,450,o),
(2428,490,cs),
(2359,530,o),
(2260,541,o),
(2123,541,cs),
(1805,541,ls),
(2022,542,o),
(2207,566,o),
(2338,609,cs),
(2469,652,o),
(2545,715,o),
(2545,796,cs),
(2545,991,o),
(2255,1034,o),
(1656,1034,cs),
(625,1034,l),
(625,969,l),
(742,969,o),
(824,945,o),
(877,884,cs),
(929,823,o),
(952,724,o),
(952,573,cs),
(952,276,o),
(879,184,o),
(625,176,c),
(625,111,l),
(1750,111,l),
(1750,176,l),
(1641,176,o),
(1618,277,o),
(1615,510,c),
(1797,499,o),
(1827,443,o),
(1843,298,cs),
(1848,237,o),
(1857,191,o),
(1878,157,cs),
(1888,140,o),
(1902,126,o),
(1920,115,cs),
(1976,80,o),
(2089,71,o),
(2260,71,cs)
);
},
{
closed = 1;
nodes = (
(1615,951,l),
(1722,947,o),
(1803,936,o),
(1858,908,cs),
(1913,880,o),
(1941,837,o),
(1941,770,cs),
(1941,707,o),
(1902,668,o),
(1842,644,cs),
(1782,619,o),
(1700,610,o),
(1615,606,c)
);
}
);
width = 3255;
}
);
note = registered;
unicode = 174;
},
{
glyphname = trademark;
kernLeft = KO_trademark;
kernRight = KO_trademark;
lastChange = "2023-11-30 04:50:27 +0000";
layers = (
{
layerId = m01;
shapes = (
{
closed = 1;
nodes = (
(2617,1160,l),
(2617,960,ls),
(2617,880,o),
(2614,805,o),
(2584,748,cs),
(2565,711,o),
(2532,684,o),
(2482,668,cs),
(2457,660,o),
(2427,656,o),
(2392,655,c),
(2392,605,l),
(3395,605,l),
(3395,655,l),
(3184,662,o),
(3122,731,o),
(3122,960,cs),
(3122,1193,o),
(3201,1241,o),
(3395,1241,c),
(3395,1291,l),
(2617,1291,l),
(2493,1087,l),
(2316,1291,l),
(1533,1291,l),
(1533,1241,l),
(1631,1241,o),
(1701,1229,o),
(1747,1188,cs),
(1793,1146,o),
(1814,1076,o),
(1814,960,cs),
(1814,733,o),
(1753,662,o),
(1541,655,c),
(1541,605,l),
(2104,605,l),
(2104,655,l),
(2033,657,o),
(1985,674,o),
(1952,700,cs),
(1935,714,o),
(1922,729,o),
(1912,748,cs),
(1892,785,o),
(1883,829,o),
(1881,880,cs),
(1879,906,o),
(1879,932,o),
(1879,960,cs),
(1879,1056,l),
(2258,586,l)
);
},
{
closed = 1;
nodes = (
(1310,605,l),
(1310,655,l),
(1104,662,o),
(1040,726,o),
(1037,943,cs),
(1037,1226,l),
(1193,1195,o),
(1355,1077,o),
(1406,934,c),
(1462,934,l),
(1462,970,o),
(1460,1041,o),
(1455,1110,cs),
(1450,1179,o),
(1444,1246,o),
(1434,1291,c),
(87,1291,l),
(77,1246,o),
(71,1179,o),
(66,1110,cs),
(61,1041,o),
(60,970,o),
(60,934,c),
(115,934,l),
(163,1088,o),
(317,1196,o),
(484,1226,c),
(484,960,ls),
(484,733,o),
(423,662,o),
(211,655,c),
(211,605,l)
);
}
);
width = 3455;
}
);
metricRight = "=|";
unicode = 8482;
},
{
glyphname = degree;
kernLeft = KO_degree;
kernRight = KO_degree;
lastChange = "2023-11-30 04:50:27 +0000";
layers = (
{
layerId = m01;
shapes = (
{
closed = 1;
nodes = (
(829,811,o),
(992,979,o),
(992,1183,cs),
(992,1391,o),
(826,1557,o),
(618,1557,cs),
(414,1557,o),
(246,1394,o),
(246,1183,cs),
(246,978,o),
(410,811,o),
(618,811,cs)
);
},
{
closed = 1;
nodes = (
(517,996,o),
(431,1082,o),
(431,1183,cs),
(431,1285,o),
(516,1371,o),
(618,1371,cs),
(722,1371,o),
(805,1286,o),
(805,1183,cs),
(805,1083,o),
(724,996,o),
(618,996,cs)
);
}
);
width = 1239;
}
);
note = degree;
unicode = 176;
},
{
glyphname = minute;
kernLeft = KO_minute;
kernRight = KO_minute;
lastChange = "2023-11-30 04:50:27 +0000";
layers = (
{
layerId = m01;
shapes = (
{
closed = 1;
nodes = (
(469,586,l),
(487,735,o),
(526,848,o),
(571,936,cs),
(594,980,o),
(618,1019,o),
(642,1053,cs),
(691,1121,o),
(734,1177,o),
(763,1229,cs),
(777,1255,o),
(786,1282,o),
(789,1311,cs),
(803,1451,o),
(713,1526,o),
(510,1526,cs),
(306,1526,o),
(201,1451,o),
(187,1311,cs),
(181,1254,o),
(202,1204,o),
(233,1147,cs),
(283,1053,ls),
(318,985,o),
(348,899,o),
(362,784,cs),
(368,727,o),
(368,661,o),
(362,586,c)
);
}
);
width = 922;
}
);
unicode = 8242;
},
{
glyphname = bar;
lastChange = "2023-11-30 04:50:27 +0000";
layers = (
{
layerId = m01;
shapes = (
{
closed = 1;
nodes = (
(313,-589,o),
(347,-586,o),
(380,-579,c),
(376,-536,o),
(374,-459,o),
(371,-363,cs),
(368,-268,o),
(366,-155,o),
(365,-40,cs),
(362,290,l),
(360,525,l),
(362,772,l),
(365,1145,ls),
(366,1276,o),
(368,1408,o),
(371,1518,cs),
(374,1628,o),
(376,1716,o),
(380,1763,c),
(358,1768,o),
(304,1772,o),
(278,1772,cs),
(252,1772,o),
(193,1768,o),
(176,1763,c),
(180,1715,o),
(182,1628,o),
(185,1522,cs),
(188,1416,o),
(190,1289,o),
(191,1162,cs),
(193,969,o),
(196,719,o),
(196,525,cs),
(196,452.991,o),
(196,243,o),
(193,-34,cs),
(192,-150,o),
(190,-266,o),
(187,-362,cs),
(184,-459,o),
(180,-538,o),
(176,-579,c),
(211,-586,o),
(245,-589,o),
(278,-589,cs)
);
}
);
width = 516;
}
);
note = bar;
unicode = 124;
},
{
glyphname = brokenbar;
lastChange = "2023-11-30 04:50:27 +0000";
layers = (
{
layerId = m01;
shapes = (
{
closed = 1;
nodes = (
(362,797,l),
(362,984,o),
(364,1143,o),
(368,1361,cs),
(370,1535,o),
(374,1701,o),
(380,1761,c),
(358,1766,o),
(304,1770,o),
(278,1770,cs),
(252,1770,o),
(193,1766,o),
(176,1761,c),
(180,1691,o),
(186,1534,o),
(189,1353,cs),
(192,1133,o),
(194,978,o),
(194,797,c)
);
},
{
closed = 1;
nodes = (
(304,-589,o),
(363,-585,o),
(380,-580,c),
(374,-517,o),
(370,-346,o),
(368,-171,cs),
(364,48,o),
(362,203,o),
(362,384,c),
(194,384,l),
(194,197,o),
(192,38,o),
(189,-180,cs),
(186,-362,o),
(180,-513,o),
(176,-580,c),
(198,-585,o),
(252,-589,o),
(278,-589,cs)
);
}
);
width = 516;
}
);
note = brokenbar;
unicode = 166;
},
{
glyphname = dagger;
kernLeft = KO_dagger;
kernRight = KO_dagger;
lastChange = "2023-11-17 20:16:49 +0000";
layers = (
{
layerId = m01;
shapes = (
{
closed = 1;
nodes = (
(456,427,l),
(456,613,o),
(458,1143,o),
(462,1361,cs),
(464,1535,o),
(468,1701,o),
(474,1761,c),
(452,1766,o),
(398,1770,o),
(372,1770,cs),
(346,1770,o),
(287,1766,o),
(270,1761,c),
(274,1691,o),
(280,1534,o),
(283,1353,cs),
(286,1133,o),
(288,608,o),
(288,427,c)
);
},
{
closed = 1;
nodes = (
(52,1294,o),
(138,1299,o),
(198,1301,cs),
(246,1303,o),
(322,1306,o),
(370,1306,cs),
(391,1306,o),
(457,1305,o),
(540,1302,cs),
(623,1298,o),
(688,1292,o),
(709,1286,c),
(710,1311,o),
(712,1360,o),
(712,1388,cs),
(712,1403,o),
(711,1463,o),
(709,1490,c),
(690,1483,o),
(612,1477,o),
(544,1475,cs),
(463,1471,o),
(397,1470,o),
(370,1470,cs),
(356,1470,o),
(289,1470,o),
(200,1473,cs),
(133,1475,o),
(58,1480,o),
(33,1490,c),
(31,1455,o),
(30,1421,o),
(30,1388,cs),
(30,1353,o),
(31,1321,o),
(33,1286,c)
);
}
);
width = 742;
}
);
metricRight = "=|";
unicode = 8224;
},
{
glyphname = daggerdbl;
kernLeft = KO_daggerdbl;
kernRight = KO_daggerdbl;
lastChange = "2023-11-17 20:16:59 +0000";
layers = (
{
layerId = m01;
shapes = (
{
closed = 1;
nodes = (
(456,427,l),
(456,613,o),
(458,1143,o),
(462,1361,cs),
(464,1535,o),
(468,1701,o),
(474,1761,c),
(452,1766,o),
(398,1770,o),
(372,1770,cs),
(346,1770,o),
(287,1766,o),
(270,1761,c),
(274,1691,o),
(280,1534,o),
(283,1353,cs),
(286,1133,o),
(288,608,o),
(288,427,c)
);
},
{
closed = 1;
nodes = (
(52,1294,o),
(138,1299,o),
(198,1301,cs),
(246,1303,o),
(322,1306,o),
(370,1306,cs),
(391,1306,o),
(457,1305,o),
(540,1302,cs),
(623,1298,o),
(688,1292,o),
(709,1286,c),
(710,1311,o),
(712,1360,o),
(712,1388,cs),
(712,1403,o),
(711,1463,o),
(709,1490,c),
(690,1483,o),
(612,1477,o),
(544,1475,cs),
(463,1471,o),
(397,1470,o),
(370,1470,cs),
(356,1470,o),
(289,1470,o),
(200,1473,cs),
(133,1475,o),
(58,1480,o),
(33,1490,c),
(31,1455,o),
(30,1421,o),
(30,1388,cs),
(30,1353,o),
(31,1321,o),
(33,1286,c)
);
},
{
closed = 1;
nodes = (
(52,899,o),
(138,904,o),
(198,906,cs),
(246,908,o),
(322,911,o),
(370,911,cs),
(391,911,o),
(457,910,o),
(540,907,cs),
(623,903,o),
(688,897,o),
(709,891,c),
(710,916,o),
(712,965,o),
(712,993,cs),
(712,1008,o),
(711,1068,o),
(709,1095,c),
(690,1088,o),
(612,1082,o),
(544,1079,cs),
(463,1076,o),
(397,1075,o),
(370,1075,cs),
(356,1075,o),
(289,1075,o),
(200,1078,cs),
(133,1080,o),
(58,1085,o),
(33,1095,c),
(31,1060,o),
(30,1026,o),
(30,993,cs),
(30,958,o),
(31,926,o),
(33,891,c)
);
}
);
width = 1200;
}
);
unicode = 8225;
},
{
glyphname = estimated;
lastChange = "2023-11-17 20:14:50 +0000";
layers = (
{
layerId = m01;
shapes = (
{
closed = 1;
nodes = (
(1018,0,o),
(1166,72,o),
(1334,257,c),
(1202,257,l),
(1099,142,o),
(931,51,o),
(751,51,cs),
(482,51,o),
(303,214,o),
(303,280,cs),
(303,598,ls),
(303,630,o),
(314,632,o),
(331,632,cs),
(1463,632,l),
(1444,1063,o),
(1171,1300,o),
(751,1300,cs),
(335,1300,o),
(40,1039,o),
(40,649,cs),
(40,254,o),
(335,0,o),
(751,0,cs)
);
},
{
closed = 1;
nodes = (
(310,672,o),
(303,677,o),
(303,689,cs),
(303,1028,ls),
(303,1084,o),
(494,1255,o),
(749,1255,cs),
(952,1255,o),
(1198,1116,o),
(1198,1014,cs),
(1198,702,ls),
(1198,679,o),
(1194,672,o),
(1167,672,cs),
(331,672,ls)
);
}
);
width = 1503;
}
);
metricLeft = "=40";
metricRight = "=|";
unicode = 8494;
},
{
glyphname = numero;
kernLeft = KO_numero;
kernRight = KO_numero;
lastChange = "2023-11-30 04:50:27 +0000";
layers = (
{
anchors = (
{
name = bottom;
pos = (1665,0);
},
{
name = center;
pos = (4644,524);
},
{
name = ogonek;
pos = (5694,10);
},
{
name = top;
pos = (1665,1291);
},
{
name = topright;
pos = (5937,1047);
}
);
layerId = m01;
shapes = (
{
closed = 1;
nodes = (
(1230,0,l),
(1230,94,l),
(835,107,o),
(716,236,o),
(716,668,cs),
(716,768,o),
(723,848,o),
(739,915,c),
(1439,315,l),
(1805,0,l),
(2831,0,l),
(2831,668,ls),
(2831,813,o),
(2842,922,o),
(2870,1000,cs),
(2884,1039,o),
(2903,1071,o),
(2926,1097,cs),
(2972,1148,o),
(3040,1176,o),
(3133,1188,cs),
(3180,1194,o),
(3234,1197,o),
(3295,1197,c),
(3295,1291,l),
(2195,1291,l),
(2195,1197,l),
(2561,1197,o),
(2709,1107,o),
(2709,668,cs),
(2707,575,l),
(1826,1291,l),
(80,1291,l),
(80,1197,l),
(203,1197,o),
(301,1186,o),
(377,1157,cs),
(415,1142,o),
(448,1122,o),
(476,1097,cs),
(561,1017,o),
(595,879,o),
(595,668,cs),
(595,240,o),
(480,107,o),
(80,94,c),
(80,0,l)
);
},
{
closed = 1;
nodes = (
(4601,381,o),
(4872,417,o),
(5061,492,cs),
(5250,567,o),
(5358,681,o),
(5358,835,cs),
(5358,990,o),
(5250,1104,o),
(5061,1179,cs),
(4872,1255,o),
(4601,1291,o),
(4278,1291,cs),
(3954,1291,o),
(3685,1255,o),
(3495,1179,cs),
(3305,1104,o),
(3197,990,o),
(3197,835,cs),
(3197,528,o),
(3629,381,o),
(4278,381,cs)
);
},
{
closed = 1;
nodes = (
(4220,465,o),
(4175,508,o),
(4143,575,cs),
(4112,643,o),
(4094,736,o),
(4094,835,cs),
(4094,935,o),
(4112,1028,o),
(4143,1097,cs),
(4175,1165,o),
(4220,1209,o),
(4278,1209,cs),
(4334,1209,o),
(4380,1165,o),
(4412,1097,cs),
(4443,1028,o),
(4461,935,o),
(4461,835,cs),
(4461,736,o),
(4443,643,o),
(4412,575,cs),
(4380,508,o),
(4334,465,o),
(4278,465,cs)
);
},
{
closed = 1;
nodes = (
(4278,24,ls),
(4384,21,o),
(4468,21,o),
(4629,17,cs),
(4747,14,o),
(4868,10,o),
(4903,5,c),
(4906,29,o),
(4908,79,o),
(4908,107,cs),
(4908,122,o),
(4907,181,o),
(4903,209,c),
(4863,203,o),
(4764,198,o),
(4629,195,cs),
(4496,192,o),
(4379,189,o),
(4278,189,cs),
(4113,189,ls),
(4027,189,o),
(3899,190,o),
(3760,193,cs),
(3643,196,o),
(3519,202,o),
(3489,209,c),
(3485,174,o),
(3484,140,o),
(3484,107,cs),
(3484,72,o),
(3485,39,o),
(3489,5,c),
(3524,10,o),
(3624,15,o),
(3761,18,cs),
(3858,21,o),
(4016,24,o),
(4113,24,cs)
);
}
);
width = 5463;
}
);
metricLeft = N;
metricRight = o;
unicode = 8470;
},
{
glyphname = cent;
kernLeft = KO_cent;
kernRight = KO_cent;
lastChange = "2023-11-30 04:50:27 +0000";
layers = (
{
layerId = m01;
shapes = (
{
closed = 1;
nodes = (
(1349,-95,o),
(1411,-91,o),
(1430,-86,c),
(1426,-26,o),
(1422,47,o),
(1419,131,c),
(1455,131,ls),
(1719,131,o),
(1947,167,o),
(2120,235,cs),
(2297,304,o),
(2407,409,o),
(2407,547,c),
(2284,547,l),
(2284,478,o),
(2213,416,o),
(2104,370,cs),
(1995,324,o),
(1846,295,o),
(1693,295,cs),
(1545,295,o),
(1406,332,o),
(1300,404,cs),
(1194,476,o),
(1120,589,o),
(1120,746,cs),
(1120,1065,o),
(1351,1165,o),
(1595,1165,cs),
(1679,1165,o),
(1762,1156,o),
(1838,1135,c),
(1573,1135,o),
(1436,1030,o),
(1436,926,cs),
(1436,803,o),
(1651,715,o),
(1919,715,cs),
(2062,715,o),
(2174,746,o),
(2250,794,cs),
(2326,841,o),
(2367,904,o),
(2367,969,cs),
(2367,1061,o),
(2256,1137,o),
(2088,1188,cs),
(1916,1239,o),
(1699,1266,o),
(1456,1268,c),
(1459,1351,o),
(1462,1422,o),
(1469,1473,c),
(1434,1480,o),
(1392,1483,o),
(1359,1483,cs),
(1324,1483,o),
(1285,1480,o),
(1250,1473,c),
(1254,1418,o),
(1258,1347,o),
(1261,1264,c),
(948,1250,o),
(674,1202,o),
(468,1110,cs),
(261,1018,o),
(133,879,o),
(133,690,cs),
(133,496,o),
(251,361,o),
(449,275,cs),
(645,189,o),
(915,147,o),
(1225,135,c),
(1222,47,o),
(1218,-30,o),
(1214,-86,c),
(1236,-91,o),
(1297,-95,o),
(1322,-95,cs)
);
}
);
width = 2522;
}
);
note = cent;
unicode = 162;
},
{
glyphname = currency;
lastChange = "2023-11-30 04:50:27 +0000";
layers = (
{
layerId = m01;
shapes = (
{
closed = 1;
nodes = (
(268,21,o),
(393,150,o),
(469,228,c),
(568,159,o),
(689,119,o),
(824,119,cs),
(957,119,o),
(1079,159,o),
(1178,227,c),
(1236,168,o),
(1340,61,o),
(1409,-14,c),
(1432,3,o),
(1468,33,o),
(1494,59,cs),
(1513,78,o),
(1560,131,o),
(1567,144,c),
(1540,167,o),
(1413,288,o),
(1324,375,c),
(1379,456,o),
(1409,550,o),
(1409,653,cs),
(1409,756,o),
(1378,851,o),
(1323,932,c),
(1365,972,o),
(1532,1135,o),
(1567,1165,c),
(1560,1178,o),
(1513,1231,o),
(1494,1250,cs),
(1468,1276,o),
(1432,1306,o),
(1409,1323,c),
(1366,1276,o),
(1281,1190,o),
(1177,1080,c),
(1078,1148,o),
(957,1188,o),
(824,1188,cs),
(691,1188,o),
(569,1147,o),
(470,1079,c),
(395,1158,o),
(266,1289,o),
(238,1323,c),
(215,1306,o),
(179,1276,o),
(153,1250,cs),
(134,1231,o),
(87,1178,o),
(80,1165,c),
(130,1119,o),
(218,1032,o),
(325,931,c),
(270,850,o),
(240,756,o),
(240,653,cs),
(240,550,o),
(271,457,o),
(324,376,c),
(242,299,o),
(117,176,o),
(80,144,c),
(87,131,o),
(134,78,o),
(153,59,cs),
(179,33,o),
(215,3,o),
(238,-14,c)
);
},
{
closed = 1;
nodes = (
(581,259,o),
(400,407,o),
(400,653,cs),
(400,895,o),
(579,1047,o),
(824,1047,cs),
(1068,1047,o),
(1248,896,o),
(1248,653,cs),
(1248,407,o),
(1066,259,o),
(824,259,cs)
);
}
);
width = 1647;
}
);
note = currency;
unicode = 164;
},
{
glyphname = dollar;
kernLeft = KO_dollar;
kernRight = KO_dollar;
lastChange = "2023-11-30 04:50:27 +0000";
layers = (
{
layerId = m01;
shapes = (
{
closed = 1;
nodes = (
(1519,-271,o),
(1587,-267,o),
(1605,-262,c),
(1601,-210,o),
(1598,-138,o),
(1595,-57,c),
(1882,-57,o),
(2158,-44,o),
(2391,21,cs),
(2609,82,o),
(2755,200,o),
(2755,393,cs),
(2755,677,o),
(2530,784,o),
(2251,834,cs),
(2113,858,o),
(1965,869,o),
(1827,881,cs),
(1689,893,o),
(1563,907,o),
(1471,937,cs),
(1379,967,o),
(1322,1014,o),
(1322,1093,cs),
(1322,1129,o),
(1346,1165,o),
(1393,1191,cs),
(1440,1217,o),
(1507,1234,o),
(1595,1234,cs),
(1829,1234,o),
(2043,1192,o),
(2205,1131,cs),
(2368,1069,o),
(2480,989,o),
(2508,911,c),
(2621,911,l),
(2621,958,o),
(2613,1043,o),
(2599,1131,cs),
(2585,1219,o),
(2566,1304,o),
(2545,1347,c),
(2411,1313,o),
(2354,1303,o),
(2205,1303,cs),
(2122,1303,o),
(2031,1307,o),
(1934,1316,cs),
(1836,1325,o),
(1732,1332,o),
(1622,1339,c),
(1625,1417,o),
(1628,1502,o),
(1633,1537,c),
(1598,1544,o),
(1564,1547,o),
(1531,1547,cs),
(1498,1547,o),
(1439,1544,o),
(1409,1537,c),
(1412,1497,o),
(1414,1424,o),
(1417,1347,c),
(1371,1347,ls),
(1078,1347,o),
(797,1322,o),
(575,1248,cs),
(362,1177,o),
(223,1054,o),
(223,873,cs),
(223,738,o),
(283,645,o),
(380,580,cs),
(476,515,o),
(609,476,o),
(754,452,cs),
(898,427,o),
(1054,417,o),
(1199,406,cs),
(1343,395,o),
(1476,384,o),
(1573,360,cs),
(1669,336,o),
(1729,297,o),
(1729,232,cs),
(1729,143,o),
(1614,72,o),
(1229,72,cs),
(1047,72,o),
(864,94,o),
(704,147,cs),
(541,201,o),
(409,291,o),
(344,423,c),
(242,423,l),
(242,376,o),
(249,280,o),
(265,181,cs),
(280,81,o),
(298,-14,o),
(320,-57,c),
(453,-22,o),
(515,-13,o),
(657,-13,cs),
(940,-13,o),
(1133,-41,o),
(1390,-52,c),
(1387,-139,o),
(1384,-211,o),
(1381,-262,c),
(1403,-267,o),
(1470,-271,o),
(1493,-271,cs)
);
}
);
width = 2889;
}
);
note = dollar;
unicode = 36;
},
{
glyphname = euro;
kernLeft = KO_euro;
kernRight = KO_euro;
lastChange = "2023-11-30 04:50:27 +0000";
layers = (
{
layerId = m01;
shapes = (
{
closed = 1;
nodes = (
(2648,-57,o),
(3033,111,o),
(3106,418,c),
(2941,416,l),
(2845,188,o),
(2551,102,o),
(2304,102,cs),
(2040,102,o),
(1857,182,o),
(1769,353,c),
(1916,352,o),
(2063,350,o),
(2184,347,cs),
(2305,344,o),
(2400,340,o),
(2443,336,c),
(2450,371,o),
(2453,405,o),
(2453,438,cs),
(2453,473,o),
(2450,507,o),
(2443,540,c),
(2349,532,o),
(2020,527,o),
(1717,524,c),
(1712,557,o),
(1710,592,o),
(1710,629,cs),
(1710,658,o),
(1711,687,o),
(1713,714,c),
(2211,708,ls),
(2351,706,o),
(2488,701,o),
(2533,696,c),
(2540,731,o),
(2543,765,o),
(2543,798,cs),
(2543,833,o),
(2540,867,o),
(2533,900,c),
(2482,896,o),
(2367,893,o),
(2223,890,cs),
(2078,886,o),
(1906,884,o),
(1742,883,c),
(1809,1104,o),
(1982,1185,o),
(2261,1185,cs),
(2487,1185,o),
(2789,1104,o),
(2916,896,c),
(3108,896,l),
(3103,1032,o),
(3077,1176,o),
(2907,1291,c),
(2876,1258,o),
(2832,1249,o),
(2787,1249,cs),
(2756,1249,o),
(2727,1252,o),
(2700,1258,cs),
(2638,1270,l),
(2541,1281,o),
(2418,1299,o),
(2253,1316,cs),
(2088,1332,o),
(1894,1346,o),
(1698,1346,cs),
(1406,1346,o),
(1154,1302,o),
(958,1223,cs),
(762,1144,o),
(620,1028,o),
(547,887,c),
(418,889,o),
(273,895,o),
(205,900,c),
(200,878,o),
(196,824,o),
(196,798,cs),
(196,772,o),
(200,713,o),
(205,696,c),
(269,700,o),
(373,704,o),
(494,707,c),
(492,689,o),
(491,671,o),
(491,652,cs),
(491,607,o),
(495,566,o),
(502,527,c),
(352,529,o),
(193,534,o),
(115,540,c),
(110,518,o),
(106,464,o),
(106,438,cs),
(106,412,o),
(110,353,o),
(115,336,c),
(226,343,o),
(363,345,o),
(568,351,c),
(756,35,o),
(1282,-57,o),
(1972,-57,cs)
);
}
);
width = 3247;
}
);
note = Euro;
unicode = 8364;
},
{
glyphname = hryvnia;
kernLeft = KO_hryvnia;
kernRight = KO_hryvnia;
lastChange = "2023-11-17 23:25:21 +0000";
layers = (
{
layerId = m01;
shapes = (
{
closed = 1;
nodes = (
(2798,24,o),
(2835,295,o),
(2835,353,c),
(2733,353,l),
(2668,261,o),
(2536,201,o),
(2373,147,cs),
(2213,94,o),
(2030,72,o),
(1848,72,cs),
(1463,72,o),
(1348,143,o),
(1348,324,cs),
(1348,548,o),
(1549,611,o),
(2250,611,cs),
(2421,611,o),
(2793,632,o),
(2793,933,cs),
(2793,1266,o),
(2240,1347,o),
(1706,1347,cs),
(1549,1347,o),
(1397,1336,o),
(1257,1325,cs),
(1116,1314,o),
(987,1303,o),
(872,1303,cs),
(723,1303,o),
(666,1313,o),
(532,1347,c),
(501,1284,o),
(461,1096,o),
(461,985,c),
(574,985,l),
(602,1063,o),
(709,1090,o),
(872,1131,cs),
(1034,1172,o),
(1248,1234,o),
(1482,1234,cs),
(1620,1234,o),
(1755,1207,o),
(1755,1012,cs),
(1755,738,o),
(1252,721,o),
(1081,721,cs),
(629,721,o),
(370,617,o),
(370,393,cs),
(370,60,o),
(761,-57,o),
(1485,-57,cs),
(1824,-57,o),
(2072,-13,o),
(2420,-13,cs),
(2562,-13,o),
(2624,-22,o),
(2757,-57,c)
);
},
{
closed = 1;
nodes = (
(1483,753,o),
(2734,749,o),
(2839,747,cs),
(2945,744,o),
(3028,740,o),
(3070,736,c),
(3077,770,o),
(3080,814,o),
(3080,848,cs),
(3080,882,o),
(3077,905,o),
(3070,940,c),
(3026,936,o),
(2941,934,o),
(2835,930,cs),
(2729,927,o),
(1715,925,o),
(1588,924,cs),
(1461,925,o),
(467,927,o),
(361,930,cs),
(255,934,o),
(170,936,o),
(126,940,c),
(119,905,o),
(116,882,o),
(116,848,cs),
(116,814,o),
(119,770,o),
(126,736,c),
(168,740,o),
(251,744,o),
(357,747,cs),
(462,749,o),
(1651,753,o),
(1582,753,cs)
);
},
{
closed = 1;
nodes = (
(1709,406,o),
(2734,404,o),
(2839,402,cs),
(2945,399,o),
(3028,395,o),
(3070,391,c),
(3077,425,o),
(3080,469,o),
(3080,503,cs),
(3080,537,o),
(3077,560,o),
(3070,595,c),
(3026,591,o),
(2941,589,o),
(2835,585,cs),
(2729,582,o),
(1981,580,o),
(1588,580,cs),
(1461,580,o),
(467,582,o),
(361,585,cs),
(255,589,o),
(170,591,o),
(126,595,c),
(119,560,o),
(116,537,o),
(116,503,cs),
(116,469,o),
(119,425,o),
(126,391,c),
(168,395,o),
(251,399,o),
(357,402,cs),
(462,404,o),
(1455,406,o),
(1582,406,cs)
);
}
);
width = 3196;
}
);
metricLeft = T;
metricRight = T;
unicode = 8372;
},
{
glyphname = sterling;
kernLeft = KO_sterling;
kernRight = KO_sterling;
lastChange = "2023-11-30 04:50:27 +0000";
layers = (
{
layerId = m01;
shapes = (
{
closed = 1;
nodes = (
(2675,-81,o),
(2836,-56,o),
(2942,-2,cs),
(3048,52,o),
(3099,135,o),
(3099,255,cs),
(3099,327,o),
(3065,414,o),
(3028,469,c),
(2935,469,l),
(2898,404,o),
(2791,362,o),
(2663,336,cs),
(2537,311,o),
(2389,301,o),
(2247,301,cs),
(2058,301,o),
(1856,320,o),
(1651,345,c),
(1666,394,o),
(1675,447,o),
(1675,506,cs),
(1675,522,o),
(1674,540,o),
(1672,559,c),
(1768,558,o),
(1864,556,o),
(1946,553,cs),
(2028,550,o),
(2097,546,o),
(2141,542,c),
(2148,577,o),
(2151,611,o),
(2151,644,cs),
(2151,679,o),
(2148,705,o),
(2141,740,c),
(2047,732,o),
(1842,730,o),
(1650,727,c),
(1642,780,o),
(1636,830,o),
(1636,870,cs),
(1636,1190,o),
(1807,1228,o),
(2053,1228,cs),
(2249,1228,o),
(2403,1209,o),
(2547,1191,c),
(2387,1190,o),
(2268,1167,o),
(2189,1134,cs),
(2109,1101,o),
(2071,1056,o),
(2071,1009,cs),
(2071,911,o),
(2258,811,o),
(2584,811,cs),
(2704,811,o),
(2824,826,o),
(2915,861,cs),
(3006,896,o),
(3067,950,o),
(3067,1029,cs),
(3067,1092,o),
(3013,1144,o),
(2925,1185,cs),
(2836,1226,o),
(2711,1258,o),
(2570,1282,cs),
(2289,1330,o),
(1933,1347,o),
(1661,1347,cs),
(1352,1347,o),
(1083,1313,o),
(888,1239,cs),
(693,1165,o),
(574,1049,o),
(574,888,cs),
(574,832,o),
(589,781,o),
(613,734,c),
(497,737,o),
(394,741,o),
(330,746,c),
(325,724,o),
(321,670,o),
(321,644,cs),
(321,618,o),
(325,559,o),
(330,542,c),
(425,550,o),
(580,552,o),
(747,557,c),
(805,494,ls),
(824,473,o),
(842,452,o),
(859,431,c),
(816,434,o),
(776,435,o),
(737,435,cs),
(386,435,o),
(174,327,o),
(174,196,cs),
(174,47,o),
(317,-57,o),
(738,-57,cs),
(959,-57,o),
(1130,-36,o),
(1258,-3,cs),
(1385,30,o),
(1470,77,o),
(1525,129,cs),
(1529,133,l),
(1816,29,o),
(2107,-81,o),
(2455,-81,cs)
);
},
{
closed = 1;
nodes = (
(537,36,o),
(367,81,o),
(367,182,cs),
(367,218,o),
(401,248,o),
(464,269,cs),
(527,290,o),
(618,302,o),
(731,302,cs),
(806,302,o),
(876,297,o),
(944,288,c),
(955,260,o),
(960,231,o),
(960,200,cs),
(960,160,o),
(942,119,o),
(895,88,cs),
(847,57,o),
(770,36,o),
(654,36,cs)
);
}
);
width = 3256;
}
);
note = sterling;
unicode = 163;
},
{
glyphname = tenge;
kernLeft = KO_tenge;
kernRight = KO_tenge;
lastChange = "2023-11-30 04:50:27 +0000";
layers = (
{
anchors = (
{
name = bottom;
pos = (1435,0);
},
{
name = center;
pos = (1435,646);
},
{
name = top;
pos = (1435,1291);
}
);
layerId = m01;
shapes = (
{
closed = 1;
nodes = (
(2468,0,l),
(2468,94,l),
(2081,107,o),
(1955,58,o),
(1955,406,cs),
(1955,879,l),
(2248,820,o),
(2553,658,o),
(2649,389,c),
(2754,389,l),
(2754,458,o),
(2724,530,o),
(2715,661,cs),
(2705,790,o),
(2703,916,o),
(2703,1001,c),
(167,1001,l),
(170,916,o),
(158,790,o),
(149,661,cs),
(139,530,o),
(116,458,o),
(116,389,c),
(221,389,l),
(310,619,o),
(601,821,o),
(915,879,c),
(915,438,ls),
(915,70,o),
(800,107,o),
(400,94,c),
(400,0,l)
);
},
{
closed = 1;
nodes = (
(263,1105,o),
(1422,1119,o),
(1436,1119,cs),
(1537,1119,o),
(2560,1105,o),
(2695,1087,c),
(2698,1112,o),
(2700,1161,o),
(2700,1189,cs),
(2700,1204,o),
(2699,1264,o),
(2695,1291,c),
(175,1291,l),
(171,1256,o),
(170,1222,o),
(170,1189,cs),
(170,1154,o),
(171,1122,o),
(175,1087,c)
);
}
);
width = 2870;
}
);
unicode = 8376;
},
